<svg width="32" height="34" viewBox="0 0 32 34" fill="none" xmlns="http://www.w3.org/2000/svg">
<g clip-path="url(#clip0_4_900)">
<path d="M26.879 15.2041C26.7156 14.9282 26.4797 14.7017 26.1964 14.549C25.913 14.3963 25.5931 14.3232 25.271 14.3375H24.3522H24.1409C22.8345 14.1852 21.5147 14.1852 20.2083 14.3375C20.0521 14.3375 19.8683 14.4014 19.6753 14.4287C19.6753 14.2919 19.6753 14.1459 19.6753 14.0273C19.6753 13.2702 19.6754 12.4766 19.6019 11.683C19.5284 10.8894 19.5375 10.1232 19.5375 9.37515C19.524 9.12599 19.487 8.8786 19.4272 8.63624C19.605 8.32256 19.6907 7.96567 19.6744 7.60609C19.6582 7.24651 19.5408 6.89867 19.3354 6.60205V6.52906C19.1355 6.35724 18.909 6.21864 18.6646 6.11858C18.4321 6.03491 18.186 5.9947 17.9387 5.99999H17.6356C17.4833 5.97711 17.3284 5.97711 17.1761 5.99999C16.8454 5.79931 16.2573 6.07297 15.9816 6.28277C15.7294 6.33986 15.4898 6.44183 15.2742 6.58379C14.7996 6.69236 14.3568 6.90867 13.9805 7.21571C13.6043 7.52276 13.3048 7.9122 13.1056 8.35346V9.45724C13.1158 9.62819 13.1595 9.79551 13.2343 9.94981C13.1793 10.7486 13.1793 11.5501 13.2343 12.3489C13.2343 12.7503 13.2343 13.1608 13.2343 13.6169C13.2343 14.073 13.2987 14.3101 13.3171 14.748C12.3904 14.7908 11.4687 14.9068 10.5606 15.0946C10.3447 15.1091 10.1298 15.1365 9.91731 15.1767C9.73825 15.2085 9.55706 15.2268 9.37523 15.2315H9.19139L9.06286 15.3592C8.94663 15.4289 8.81917 15.4782 8.6861 15.5051H8.55745L8.41041 15.6511C8.09147 15.688 7.78095 15.7774 7.49157 15.9156C6.48085 15.9156 4.00006 16.016 4.00006 18.1505C4.06943 18.8436 4.28236 19.5149 4.62548 20.1224C4.9686 20.7299 5.43442 21.2605 5.99386 21.6807C6.48126 21.8781 7.02072 21.9102 7.52836 21.772C8.05697 22.016 8.63645 22.1317 9.21899 22.1095C9.5608 22.1139 9.90226 22.0864 10.2389 22.0274C10.7351 22.0274 11.2312 22.0274 11.7182 21.9544C12.2052 21.8814 12.6371 21.8905 13.1332 21.8905C13.2187 21.9007 13.3051 21.9007 13.3905 21.8905H13.4456L13.5008 21.9361H13.85L13.9142 22.6385C13.9142 24.2714 14.0521 27.2816 14.0521 27.2908V27.5644C14.0704 27.8328 14.1483 28.0938 14.2801 28.3288C14.4119 28.5637 14.5946 28.7669 14.8148 28.9236L15.1455 29.252H15.8805C16.2412 29.4275 16.6367 29.521 17.0383 29.5256C17.5901 29.7819 18.1854 29.9335 18.7933 29.9726C19.1127 29.9832 19.4294 29.9109 19.7121 29.7628C19.9448 29.653 20.1488 29.4914 20.3082 29.2904C20.4676 29.0894 20.5781 28.8546 20.631 28.6043C20.7498 28.3856 20.8128 28.1413 20.8147 27.8928C21.026 26.5448 21.026 25.1724 20.8147 23.8244V23.6693C20.7732 23.5506 20.7425 23.4285 20.7228 23.3044C20.6903 23.1002 20.6317 22.901 20.5483 22.7115L20.1807 22.3101C20.1984 21.9813 20.1483 21.6523 20.0337 21.3432C20.0292 21.2977 20.0292 21.2519 20.0337 21.2064L20.6952 21.1243H20.9709C21.1164 21.1137 21.2591 21.0798 21.3936 21.0239L21.5222 20.9783H21.9816V20.7047C22.2848 20.7047 22.6064 20.7047 22.9005 20.6317C23.1945 20.5587 23.6356 20.5678 23.9663 20.5678C24.3372 20.5539 24.706 20.5081 25.0689 20.431H25.4733C25.6171 20.4334 25.7571 20.3849 25.8683 20.2942C26.1597 20.308 26.4499 20.2483 26.7118 20.1207C26.9736 19.9931 27.1987 19.8017 27.366 19.5644L27.4579 19.4458V18.8985C27.7732 18.5071 27.9744 18.0373 28.0392 17.5402C28.104 17.0432 28.03 16.538 27.8254 16.0798L26.879 15.2041Z" fill="#FF8700"/>
</g>
<defs>
<clipPath id="clip0_4_900">
<rect width="24" height="24" fill="white" transform="translate(4 6)"/>
</clipPath>
</defs>
</svg>
