<svg width="162" height="154" viewBox="0 0 162 154" fill="none" xmlns="http://www.w3.org/2000/svg">
<path d="M154 80.5313C154 71.0104 152.112 61.5828 148.443 52.7867C144.775 43.9906 139.397 35.9983 132.619 29.266C125.84 22.5338 117.793 17.1935 108.936 13.55C100.079 9.90652 90.5865 8.03125 81 8.03125C71.4135 8.03124 61.9209 9.90651 53.0641 13.55C44.2074 17.1934 36.1599 22.5337 29.3812 29.266C22.6026 35.9982 17.2254 43.9906 13.5568 52.7867C9.88821 61.5828 8 71.0104 8 80.5312" stroke="#DDEDC9" stroke-width="16" stroke-linecap="round" stroke-linejoin="round"/>
<path d="M8 80.5312C8 71.0104 9.88821 61.5828 13.5568 52.7867C17.2254 43.9906 22.6026 35.9982 29.3812 29.266C36.1599 22.5337 44.2074 17.1934 53.0642 13.55C61.9209 9.90651 71.4135 8.03124 81 8.03125C88.6459 8.03125 96.232 9.22413 103.483 11.5556" stroke="#89BB4D" stroke-width="16" stroke-linecap="round" stroke-linejoin="round"/>
<path d="M72.9986 91.6484C72.9522 91.2143 72.7566 90.8762 72.4119 90.6342C72.0705 90.3923 71.6264 90.2713 71.0795 90.2713C70.6951 90.2713 70.3653 90.3293 70.0902 90.4453C69.8151 90.5613 69.6046 90.7187 69.4588 90.9176C69.313 91.1165 69.2384 91.3435 69.2351 91.5987C69.2351 91.8108 69.2831 91.9948 69.3793 92.1506C69.4787 92.3063 69.6129 92.4389 69.782 92.5483C69.951 92.6544 70.1383 92.7438 70.3438 92.8168C70.5492 92.8897 70.7564 92.951 70.9652 93.0007L71.9197 93.2393C72.3042 93.3288 72.6738 93.4498 73.0284 93.6023C73.3864 93.7547 73.7062 93.947 73.9879 94.179C74.273 94.411 74.4983 94.6911 74.6641 95.0192C74.8298 95.3473 74.9126 95.7318 74.9126 96.1726C74.9126 96.7692 74.7602 97.2945 74.4553 97.7486C74.1503 98.1993 73.7095 98.5523 73.1328 98.8075C72.5594 99.0594 71.8651 99.1854 71.0497 99.1854C70.2576 99.1854 69.5698 99.0627 68.9865 98.8175C68.4065 98.5722 67.9524 98.2143 67.6243 97.7436C67.2995 97.273 67.1238 96.6996 67.0973 96.0234H68.9119C68.9384 96.3781 69.0478 96.6731 69.2401 96.9084C69.4323 97.1437 69.6825 97.3194 69.9908 97.4354C70.3023 97.5514 70.6503 97.6094 71.0348 97.6094C71.4358 97.6094 71.7872 97.5497 72.0888 97.4304C72.3937 97.3078 72.6323 97.1387 72.8047 96.9233C72.977 96.7045 73.0649 96.4493 73.0682 96.1577C73.0649 95.8925 72.987 95.6738 72.8345 95.5014C72.6821 95.3258 72.4683 95.1799 72.1932 95.0639C71.9214 94.9446 71.6032 94.8385 71.2386 94.7457L70.0803 94.4474C69.2417 94.232 68.5788 93.9055 68.0916 93.468C67.6077 93.0272 67.3658 92.4422 67.3658 91.7131C67.3658 91.1132 67.5282 90.5878 67.853 90.1371C68.1811 89.6863 68.6269 89.3366 69.1903 89.0881C69.7538 88.8362 70.3918 88.7102 71.1044 88.7102C71.8269 88.7102 72.46 88.8362 73.0036 89.0881C73.5504 89.3366 73.9796 89.683 74.2912 90.1271C74.6027 90.5679 74.7635 91.075 74.7734 91.6484H72.9986ZM79.8084 99.1804C79.0627 99.1804 78.4164 99.0163 77.8695 98.6882C77.3226 98.3601 76.8984 97.901 76.5968 97.3111C76.2985 96.7211 76.1493 96.0317 76.1493 95.2429C76.1493 94.4541 76.2985 93.763 76.5968 93.1697C76.8984 92.5765 77.3226 92.1158 77.8695 91.7876C78.4164 91.4595 79.0627 91.2955 79.8084 91.2955C80.5542 91.2955 81.2005 91.4595 81.7473 91.7876C82.2942 92.1158 82.7168 92.5765 83.0151 93.1697C83.3167 93.763 83.4675 94.4541 83.4675 95.2429C83.4675 96.0317 83.3167 96.7211 83.0151 97.3111C82.7168 97.901 82.2942 98.3601 81.7473 98.6882C81.2005 99.0163 80.5542 99.1804 79.8084 99.1804ZM79.8184 97.7386C80.2227 97.7386 80.5608 97.6276 80.8326 97.4055C81.1043 97.1802 81.3065 96.8786 81.4391 96.5007C81.575 96.1229 81.6429 95.7019 81.6429 95.2379C81.6429 94.7706 81.575 94.348 81.4391 93.9702C81.3065 93.589 81.1043 93.2857 80.8326 93.0604C80.5608 92.835 80.2227 92.7223 79.8184 92.7223C79.4041 92.7223 79.0594 92.835 78.7843 93.0604C78.5125 93.2857 78.3087 93.589 78.1728 93.9702C78.0402 94.348 77.9739 94.7706 77.9739 95.2379C77.9739 95.7019 78.0402 96.1229 78.1728 96.5007C78.3087 96.8786 78.5125 97.1802 78.7843 97.4055C79.0594 97.6276 79.4041 97.7386 79.8184 97.7386ZM86.7947 88.8494V99.0312H84.995V88.8494H86.7947ZM91.4792 99.1655C90.8793 99.1655 90.3424 99.0114 89.8684 98.7031C89.3945 98.3949 89.0199 97.9474 88.7449 97.3608C88.4698 96.7741 88.3322 96.0616 88.3322 95.223C88.3322 94.3745 88.4714 93.6586 88.7498 93.0753C89.0315 92.4886 89.411 92.0462 89.8883 91.7479C90.3656 91.4463 90.8975 91.2955 91.4842 91.2955C91.9316 91.2955 92.2995 91.3717 92.5879 91.5241C92.8762 91.6733 93.1049 91.8539 93.274 92.0661C93.443 92.2749 93.5739 92.4721 93.6667 92.6577H93.7413V88.8494H95.546V99.0312H93.7761V97.8281H93.6667C93.5739 98.0137 93.4397 98.2109 93.264 98.4197C93.0884 98.6252 92.8564 98.8009 92.568 98.9467C92.2797 99.0926 91.9167 99.1655 91.4792 99.1655ZM91.9814 97.6889C92.3625 97.6889 92.6873 97.5862 92.9558 97.3807C93.2243 97.1719 93.4281 96.8819 93.5673 96.5107C93.7065 96.1394 93.7761 95.7069 93.7761 95.2131C93.7761 94.7192 93.7065 94.29 93.5673 93.9254C93.4314 93.5608 93.2292 93.2775 92.9608 93.0753C92.6956 92.8731 92.3691 92.772 91.9814 92.772C91.5803 92.772 91.2456 92.8764 90.9771 93.0852C90.7086 93.294 90.5065 93.5824 90.3706 93.9503C90.2347 94.3182 90.1667 94.7391 90.1667 95.2131C90.1667 95.6903 90.2347 96.1162 90.3706 96.4908C90.5098 96.862 90.7136 97.1553 90.9821 97.3707C91.2538 97.5829 91.5869 97.6889 91.9814 97.6889Z" fill="#2B4D02"/>
<path d="M66.3037 69.5684C66.3037 71.0775 66.0378 72.4505 65.5059 73.6875C64.974 74.9121 64.238 75.9635 63.2979 76.8418C62.3701 77.7077 61.263 78.3818 59.9766 78.8643C58.6901 79.3467 57.2985 79.5879 55.8018 79.5879C54.5771 79.5879 53.4701 79.4209 52.4805 79.0869C51.5033 78.7529 50.625 78.2891 49.8457 77.6953C49.0788 77.1016 48.417 76.3965 47.8604 75.5801C47.3037 74.7637 46.8398 73.8792 46.4688 72.9268C46.11 71.9743 45.8441 70.9661 45.6709 69.9023C45.4977 68.8385 45.4111 67.7624 45.4111 66.6738C45.4111 65.3379 45.5101 64.0391 45.708 62.7773C45.9059 61.5033 46.209 60.3096 46.6172 59.1963C47.0378 58.083 47.5758 57.0563 48.2314 56.1162C48.887 55.1761 49.6663 54.3721 50.5693 53.7041C51.4723 53.0361 52.5052 52.5166 53.668 52.1455C54.8431 51.762 56.1605 51.5703 57.6201 51.5703C58.152 51.5703 58.6963 51.5951 59.2529 51.6445C59.8096 51.6816 60.3662 51.7559 60.9229 51.8672C61.4795 51.9785 62.0176 52.127 62.5371 52.3125C63.069 52.498 63.57 52.7331 64.04 53.0176L63.4834 60.3281C62.6051 59.8952 61.6527 59.5674 60.626 59.3447C59.6117 59.1097 58.6221 58.9922 57.6572 58.9922C56.8903 58.9922 56.2285 59.1097 55.6719 59.3447C55.1152 59.5674 54.6452 59.889 54.2617 60.3096C53.8783 60.7301 53.5752 61.2373 53.3525 61.8311C53.1423 62.4124 53.0062 63.0618 52.9443 63.7793C53.7607 63.3092 54.6328 62.9382 55.5605 62.666C56.4883 62.3939 57.4346 62.2578 58.3994 62.2578C59.488 62.2578 60.5146 62.4248 61.4795 62.7588C62.4443 63.0928 63.2793 63.5752 63.9844 64.2061C64.7018 64.8369 65.2646 65.6038 65.6729 66.5068C66.0934 67.4098 66.3037 68.4303 66.3037 69.5684ZM59.2529 70.125C59.2529 69.7415 59.1663 69.4014 58.9932 69.1045C58.8324 68.7952 58.6159 68.5355 58.3438 68.3252C58.084 68.1025 57.7809 67.9355 57.4346 67.8242C57.0882 67.7005 56.7419 67.6387 56.3955 67.6387C56.0492 67.6387 55.709 67.7005 55.375 67.8242C55.041 67.9355 54.738 68.1025 54.4658 68.3252C54.2061 68.5355 53.9896 68.7952 53.8164 69.1045C53.6556 69.4014 53.5752 69.7415 53.5752 70.125C53.5752 70.4961 53.6556 70.8363 53.8164 71.1455C53.9896 71.4424 54.2061 71.696 54.4658 71.9062C54.738 72.1165 55.041 72.2835 55.375 72.4072C55.709 72.5186 56.0492 72.5742 56.3955 72.5742C56.7419 72.5742 57.0882 72.5186 57.4346 72.4072C57.7809 72.2835 58.084 72.1165 58.3438 71.9062C58.6159 71.696 58.8324 71.4424 58.9932 71.1455C59.1663 70.8363 59.2529 70.4961 59.2529 70.125ZM90.1094 65.7461C90.1094 66.8346 89.9857 67.917 89.7383 68.9932C89.5033 70.0693 89.1569 71.1022 88.6992 72.0918C88.2415 73.0814 87.6787 74.0029 87.0107 74.8564C86.3551 75.71 85.6006 76.4521 84.7471 77.083C83.8936 77.7139 82.9535 78.2087 81.9268 78.5674C80.9124 78.9261 79.8177 79.1055 78.6426 79.1055C77.4551 79.1055 76.348 78.9261 75.3213 78.5674C74.2946 78.2087 73.3545 77.7139 72.501 77.083C71.6598 76.4521 70.9053 75.71 70.2373 74.8564C69.5693 74.0029 69.0065 73.0814 68.5488 72.0918C68.0911 71.1022 67.7386 70.0693 67.4912 68.9932C67.2562 67.9046 67.1387 66.8223 67.1387 65.7461C67.1387 64.6699 67.2562 63.5876 67.4912 62.499C67.7386 61.4105 68.0911 60.3714 68.5488 59.3818C69.0065 58.3923 69.5693 57.4707 70.2373 56.6172C70.9053 55.7513 71.6598 55.0029 72.501 54.3721C73.3545 53.7412 74.2946 53.2464 75.3213 52.8877C76.3604 52.529 77.4674 52.3496 78.6426 52.3496C79.8177 52.3496 80.9124 52.529 81.9268 52.8877C82.9535 53.2464 83.8936 53.7412 84.7471 54.3721C85.6006 55.0029 86.3551 55.7513 87.0107 56.6172C87.6787 57.4707 88.2415 58.3923 88.6992 59.3818C89.1569 60.3714 89.5033 61.4105 89.7383 62.499C89.9857 63.5876 90.1094 64.6699 90.1094 65.7461ZM82.2793 66.3027C82.2793 65.7585 82.2051 65.1523 82.0566 64.4844C81.9082 63.8164 81.6794 63.1917 81.3701 62.6104C81.0609 62.029 80.665 61.5404 80.1826 61.1445C79.7002 60.7487 79.125 60.5508 78.457 60.5508C77.7767 60.5508 77.1953 60.7487 76.7129 61.1445C76.2305 61.5404 75.8285 62.029 75.5068 62.6104C75.1976 63.1917 74.9688 63.8164 74.8203 64.4844C74.6719 65.1523 74.5977 65.7585 74.5977 66.3027C74.5977 66.847 74.6719 67.4531 74.8203 68.1211C74.9688 68.7891 75.1976 69.4137 75.5068 69.9951C75.8285 70.5765 76.2305 71.0651 76.7129 71.4609C77.1953 71.8568 77.7767 72.0547 78.457 72.0547C79.125 72.0547 79.7002 71.8568 80.1826 71.4609C80.665 71.0651 81.0609 70.5765 81.3701 69.9951C81.6794 69.4137 81.9082 68.7891 82.0566 68.1211C82.2051 67.4531 82.2793 66.847 82.2793 66.3027ZM117.422 71.127C117.422 71.7826 117.286 72.432 117.014 73.0752C116.742 73.7061 116.346 74.2751 115.826 74.7822C115.307 75.277 114.676 75.6852 113.934 76.0068C113.204 76.3161 112.375 76.4707 111.447 76.4707C110.532 76.4707 109.703 76.3161 108.961 76.0068C108.231 75.6852 107.606 75.277 107.087 74.7822C106.58 74.2751 106.19 73.7061 105.918 73.0752C105.646 72.432 105.51 71.7826 105.51 71.127C105.51 70.4837 105.646 69.8405 105.918 69.1973C106.19 68.554 106.58 67.985 107.087 67.4902C107.606 66.9831 108.231 66.5749 108.961 66.2656C109.703 65.944 110.532 65.7832 111.447 65.7832C112.375 65.7832 113.204 65.944 113.934 66.2656C114.676 66.5749 115.307 66.9831 115.826 67.4902C116.346 67.985 116.742 68.554 117.014 69.1973C117.286 69.8405 117.422 70.4837 117.422 71.127ZM113.229 71.0898C113.229 70.8919 113.191 70.6816 113.117 70.459C113.055 70.224 112.95 70.0075 112.802 69.8096C112.653 69.5993 112.462 69.4261 112.227 69.29C112.004 69.154 111.732 69.0859 111.41 69.0859C111.089 69.0859 110.81 69.154 110.575 69.29C110.34 69.4261 110.148 69.5993 110 69.8096C109.852 70.0075 109.74 70.224 109.666 70.459C109.592 70.6816 109.555 70.8919 109.555 71.0898C109.555 71.2878 109.592 71.5042 109.666 71.7393C109.74 71.9619 109.852 72.1784 110 72.3887C110.148 72.5866 110.34 72.7536 110.575 72.8896C110.81 73.0257 111.089 73.0938 111.41 73.0938C111.732 73.0938 112.004 73.0257 112.227 72.8896C112.462 72.7536 112.653 72.5866 112.802 72.3887C112.95 72.1784 113.055 71.9619 113.117 71.7393C113.191 71.5042 113.229 71.2878 113.229 71.0898ZM103.32 61.9238C103.32 62.5794 103.184 63.2288 102.912 63.8721C102.64 64.5029 102.244 65.0719 101.725 65.5791C101.205 66.0739 100.574 66.4821 99.832 66.8037C99.1022 67.113 98.2734 67.2676 97.3457 67.2676C96.4303 67.2676 95.6016 67.113 94.8594 66.8037C94.1296 66.4821 93.5049 66.0739 92.9854 65.5791C92.4782 65.0719 92.0885 64.5029 91.8164 63.8721C91.5443 63.2288 91.4082 62.5794 91.4082 61.9238C91.4082 61.2806 91.5443 60.6374 91.8164 59.9941C92.0885 59.3509 92.4782 58.7819 92.9854 58.2871C93.5049 57.7799 94.1296 57.3717 94.8594 57.0625C95.6016 56.7409 96.4303 56.5801 97.3457 56.5801C98.2734 56.5801 99.1022 56.7409 99.832 57.0625C100.574 57.3717 101.205 57.7799 101.725 58.2871C102.244 58.7819 102.64 59.3509 102.912 59.9941C103.184 60.6374 103.32 61.2806 103.32 61.9238ZM99.127 61.8867C99.127 61.6888 99.0898 61.4785 99.0156 61.2559C98.9538 61.0208 98.8486 60.8044 98.7002 60.6064C98.5518 60.3962 98.36 60.223 98.125 60.0869C97.9023 59.9508 97.6302 59.8828 97.3086 59.8828C96.987 59.8828 96.7087 59.9508 96.4736 60.0869C96.2386 60.223 96.0469 60.3962 95.8984 60.6064C95.75 60.8044 95.6387 61.0208 95.5645 61.2559C95.4902 61.4785 95.4531 61.6888 95.4531 61.8867C95.4531 62.0846 95.4902 62.3011 95.5645 62.5361C95.6387 62.7588 95.75 62.9753 95.8984 63.1855C96.0469 63.3835 96.2386 63.5505 96.4736 63.6865C96.7087 63.8226 96.987 63.8906 97.3086 63.8906C97.6302 63.8906 97.9023 63.8226 98.125 63.6865C98.36 63.5505 98.5518 63.3835 98.7002 63.1855C98.8486 62.9753 98.9538 62.7588 99.0156 62.5361C99.0898 62.3011 99.127 62.0846 99.127 61.8867ZM110.742 55.9492C109.159 59.4004 107.687 62.9134 106.326 66.4883C104.978 70.0508 103.716 73.6504 102.541 77.2871L98.6816 75.877C99.4115 74.0833 100.135 72.2959 100.853 70.5146C101.582 68.721 102.325 66.9398 103.079 65.1709C103.846 63.402 104.638 61.6517 105.454 59.9199C106.271 58.1758 107.143 56.4564 108.07 54.7617L110.742 55.9492Z" fill="#2B4D02"/>
</svg>
