<svg width="66" height="66" viewBox="0 0 66 66" fill="none" xmlns="http://www.w3.org/2000/svg">
<circle cx="33" cy="33" r="31.5" fill="#FFD600" stroke="#FEC559" stroke-width="3"/>
<g clip-path="url(#clip0_1_12)">
<path d="M48.8243 18.2378C48.2516 15.6665 46.3822 14.0156 44.058 14.0156C39.679 14.0156 38.0874 19.2934 37.5864 21.7507C36.1673 21.0141 34.5927 20.6296 32.9948 20.6296C31.3969 20.6296 29.8223 21.0141 28.4032 21.7507C27.9022 19.2934 26.298 14.0156 21.9358 14.0156C19.6116 14.0156 17.7253 15.6792 17.1737 18.2378C16.4874 21.3327 17.7758 25.3734 22.0874 27.7758C20.1085 30.9256 18.9422 34.6707 18.9422 37.9598C18.9533 41.6896 20.4393 45.2627 23.0741 47.8954C25.7089 50.528 29.2774 52.0052 32.9969 52.003C36.7167 52.0063 40.2859 50.5295 42.921 47.8966C45.556 45.2637 47.0416 41.69 47.0516 37.9598C47.0516 34.6707 45.8895 30.9256 43.9064 27.7758C48.2222 25.3734 49.5106 21.3327 48.8243 18.2378Z" fill="#785104"/>
<path d="M24.7719 39.5191L25.7812 40.5312L30.9052 35.3931L29.8959 34.381L24.7719 39.5191Z" fill="#FAF8F1"/>
<path d="M25.7827 34.3863L24.7734 35.3984L29.8974 40.5366L30.9067 39.5245L25.7827 34.3863Z" fill="#FAF8F1"/>
<path d="M34.8266 39.5191L35.8359 40.5312L40.9599 35.3931L39.9506 34.381L34.8266 39.5191Z" fill="#FAF8F1"/>
<path d="M35.8374 34.3863L34.8281 35.3984L39.952 40.5366L40.9613 39.5245L35.8374 34.3863Z" fill="#FAF8F1"/>
</g>
<defs>
<clipPath id="clip0_1_12">
<rect width="32" height="38" fill="white" transform="translate(17 14)"/>
</clipPath>
</defs>
</svg>
