<svg width="162" height="154" viewBox="0 0 162 154" fill="none" xmlns="http://www.w3.org/2000/svg">
<path d="M154 80.6719C154 71.1511 152.112 61.7234 148.443 52.9273C144.775 44.1312 139.397 36.1389 132.619 29.4066C125.84 22.6744 117.793 17.3341 108.936 13.6906C100.079 10.0471 90.5865 8.17188 81 8.17188C71.4135 8.17187 61.9209 10.0471 53.0641 13.6906C44.2074 17.3341 36.1599 22.6744 29.3812 29.4066C22.6026 36.1388 17.2254 44.1312 13.5568 52.9273C9.88821 61.7234 8 71.151 8 80.6718" stroke="#DDEDC9" stroke-width="16" stroke-linecap="round" stroke-linejoin="round"/>
<path d="M8 80.6718C8 71.151 9.88821 61.7234 13.5568 52.9273C17.2254 44.1312 22.6026 36.1388 29.3812 29.4066C36.1599 22.6744 44.2074 17.3341 53.0642 13.6906C61.9209 10.0471 71.4135 8.17187 81 8.17188C90.5865 8.17188 100.079 10.0471 108.936 13.6906C117.793 17.3341 125.84 22.6744 132.619 29.4066C136.008 32.7731 139.048 36.4546 141.698 40.3941" stroke="#89BB4D" stroke-width="16" stroke-linecap="round" stroke-linejoin="round"/>
<path d="M72.9986 91.7891C72.9522 91.3549 72.7566 91.0168 72.4119 90.7749C72.0705 90.5329 71.6264 90.4119 71.0795 90.4119C70.6951 90.4119 70.3653 90.4699 70.0902 90.5859C69.8151 90.7019 69.6046 90.8594 69.4588 91.0582C69.313 91.2571 69.2384 91.4841 69.2351 91.7393C69.2351 91.9515 69.2831 92.1354 69.3793 92.2912C69.4787 92.447 69.6129 92.5795 69.782 92.6889C69.951 92.795 70.1383 92.8845 70.3438 92.9574C70.5492 93.0303 70.7564 93.0916 70.9652 93.1413L71.9197 93.38C72.3042 93.4695 72.6738 93.5904 73.0284 93.7429C73.3864 93.8954 73.7062 94.0876 73.9879 94.3196C74.273 94.5516 74.4983 94.8317 74.6641 95.1598C74.8298 95.4879 74.9126 95.8724 74.9126 96.3132C74.9126 96.9098 74.7602 97.4351 74.4553 97.8892C74.1503 98.34 73.7095 98.6929 73.1328 98.9482C72.5594 99.2 71.8651 99.326 71.0497 99.326C70.2576 99.326 69.5698 99.2034 68.9865 98.9581C68.4065 98.7128 67.9524 98.3549 67.6243 97.8842C67.2995 97.4136 67.1238 96.8402 67.0973 96.1641H68.9119C68.9384 96.5187 69.0478 96.8137 69.2401 97.049C69.4323 97.2843 69.6825 97.46 69.9908 97.576C70.3023 97.692 70.6503 97.75 71.0348 97.75C71.4358 97.75 71.7872 97.6903 72.0888 97.571C72.3937 97.4484 72.6323 97.2794 72.8047 97.0639C72.977 96.8452 73.0649 96.59 73.0682 96.2983C73.0649 96.0331 72.987 95.8144 72.8345 95.642C72.6821 95.4664 72.4683 95.3205 72.1932 95.2045C71.9214 95.0852 71.6032 94.9792 71.2386 94.8864L70.0803 94.5881C69.2417 94.3726 68.5788 94.0462 68.0916 93.6087C67.6077 93.1679 67.3658 92.5829 67.3658 91.8537C67.3658 91.2538 67.5282 90.7285 67.853 90.2777C68.1811 89.8269 68.6269 89.4773 69.1903 89.2287C69.7538 88.9768 70.3918 88.8509 71.1044 88.8509C71.8269 88.8509 72.46 88.9768 73.0036 89.2287C73.5504 89.4773 73.9796 89.8236 74.2912 90.2678C74.6027 90.7086 74.7635 91.2157 74.7734 91.7891H72.9986ZM79.8084 99.321C79.0627 99.321 78.4164 99.157 77.8695 98.8288C77.3226 98.5007 76.8984 98.0417 76.5968 97.4517C76.2985 96.8617 76.1493 96.1723 76.1493 95.3835C76.1493 94.5947 76.2985 93.9036 76.5968 93.3104C76.8984 92.7171 77.3226 92.2564 77.8695 91.9283C78.4164 91.6001 79.0627 91.4361 79.8084 91.4361C80.5542 91.4361 81.2005 91.6001 81.7473 91.9283C82.2942 92.2564 82.7168 92.7171 83.0151 93.3104C83.3167 93.9036 83.4675 94.5947 83.4675 95.3835C83.4675 96.1723 83.3167 96.8617 83.0151 97.4517C82.7168 98.0417 82.2942 98.5007 81.7473 98.8288C81.2005 99.157 80.5542 99.321 79.8084 99.321ZM79.8184 97.8793C80.2227 97.8793 80.5608 97.7682 80.8326 97.5462C81.1043 97.3208 81.3065 97.0192 81.4391 96.6413C81.575 96.2635 81.6429 95.8426 81.6429 95.3786C81.6429 94.9112 81.575 94.4886 81.4391 94.1108C81.3065 93.7296 81.1043 93.4264 80.8326 93.201C80.5608 92.9756 80.2227 92.8629 79.8184 92.8629C79.4041 92.8629 79.0594 92.9756 78.7843 93.201C78.5125 93.4264 78.3087 93.7296 78.1728 94.1108C78.0402 94.4886 77.9739 94.9112 77.9739 95.3786C77.9739 95.8426 78.0402 96.2635 78.1728 96.6413C78.3087 97.0192 78.5125 97.3208 78.7843 97.5462C79.0594 97.7682 79.4041 97.8793 79.8184 97.8793ZM86.7947 88.9901V99.1719H84.995V88.9901H86.7947ZM91.4792 99.3061C90.8793 99.3061 90.3424 99.152 89.8684 98.8438C89.3945 98.5355 89.0199 98.0881 88.7449 97.5014C88.4698 96.9148 88.3322 96.2022 88.3322 95.3636C88.3322 94.5152 88.4714 93.7992 88.7498 93.2159C89.0315 92.6293 89.411 92.1868 89.8883 91.8885C90.3656 91.5869 90.8975 91.4361 91.4842 91.4361C91.9316 91.4361 92.2995 91.5123 92.5879 91.6648C92.8762 91.8139 93.1049 91.9946 93.274 92.2067C93.443 92.4155 93.5739 92.6127 93.6667 92.7983H93.7413V88.9901H95.546V99.1719H93.7761V97.9688H93.6667C93.5739 98.1544 93.4397 98.3516 93.264 98.5604C93.0884 98.7659 92.8564 98.9415 92.568 99.0874C92.2797 99.2332 91.9167 99.3061 91.4792 99.3061ZM91.9814 97.8295C92.3625 97.8295 92.6873 97.7268 92.9558 97.5213C93.2243 97.3125 93.4281 97.0225 93.5673 96.6513C93.7065 96.2801 93.7761 95.8475 93.7761 95.3537C93.7761 94.8598 93.7065 94.4306 93.5673 94.0661C93.4314 93.7015 93.2292 93.4181 92.9608 93.2159C92.6956 93.0137 92.3691 92.9126 91.9814 92.9126C91.5803 92.9126 91.2456 93.017 90.9771 93.2259C90.7086 93.4347 90.5065 93.723 90.3706 94.0909C90.2347 94.4588 90.1667 94.8797 90.1667 95.3537C90.1667 95.831 90.2347 96.2569 90.3706 96.6314C90.5098 97.0026 90.7136 97.2959 90.9821 97.5114C91.2538 97.7235 91.5869 97.8295 91.9814 97.8295Z" fill="#2B4D02"/>
<path d="M66.0254 70.9707C66.0254 71.9727 65.8893 72.8695 65.6172 73.6611C65.3451 74.4528 64.9678 75.1579 64.4854 75.7764C64.0153 76.3825 63.4525 76.902 62.7969 77.335C62.1536 77.7679 61.4424 78.1266 60.6631 78.4111C59.8962 78.6833 59.0859 78.8874 58.2324 79.0234C57.3789 79.1471 56.513 79.209 55.6348 79.209C54.3854 79.209 53.1484 79.042 51.9238 78.708C50.7116 78.374 49.6169 77.8669 48.6396 77.1865C47.6748 76.4938 46.8893 75.6341 46.2832 74.6074C45.6895 73.5807 45.3926 72.3685 45.3926 70.9707C45.3926 70.4017 45.4606 69.8327 45.5967 69.2637C45.7327 68.6823 45.9307 68.1318 46.1904 67.6123C46.4502 67.0928 46.778 66.6227 47.1738 66.2021C47.5697 65.7816 48.0273 65.429 48.5469 65.1445C47.7305 64.4147 47.1182 63.5798 46.71 62.6396C46.3018 61.6872 46.0977 60.6667 46.0977 59.5781C46.0977 58.304 46.376 57.1908 46.9326 56.2383C47.5016 55.2734 48.2376 54.4694 49.1406 53.8262C50.056 53.1706 51.0827 52.682 52.2207 52.3604C53.3587 52.0264 54.4967 51.8594 55.6348 51.8594C56.3893 51.8594 57.1439 51.9336 57.8984 52.082C58.6654 52.2305 59.4014 52.4469 60.1064 52.7314C60.8115 53.016 61.4671 53.3747 62.0732 53.8076C62.6917 54.2406 63.2236 54.7477 63.6689 55.3291C64.1266 55.8981 64.4854 56.5413 64.7451 57.2588C65.0049 57.9639 65.1348 58.737 65.1348 59.5781C65.1348 60.6667 64.9307 61.6872 64.5225 62.6396C64.1143 63.5798 63.502 64.4147 62.6855 65.1445C63.873 65.763 64.7266 66.5609 65.2461 67.5381C65.7656 68.5153 66.0254 69.6595 66.0254 70.9707ZM58.7148 61.3594C58.7148 60.9512 58.6221 60.5863 58.4365 60.2646C58.2633 59.9307 58.0283 59.6462 57.7314 59.4111C57.4346 59.1761 57.1006 58.9967 56.7295 58.873C56.3708 58.7493 56.0059 58.6875 55.6348 58.6875C55.2513 58.6875 54.874 58.7493 54.5029 58.873C54.1318 58.9967 53.7979 59.1761 53.501 59.4111C53.2041 59.6462 52.9629 59.9307 52.7773 60.2646C52.6042 60.5863 52.5176 60.9512 52.5176 61.3594C52.5176 61.7676 52.6042 62.1387 52.7773 62.4727C52.9629 62.7943 53.2041 63.0664 53.501 63.2891C53.7979 63.5117 54.1318 63.6849 54.5029 63.8086C54.874 63.9323 55.2513 63.9941 55.6348 63.9941C56.0059 63.9941 56.3708 63.9323 56.7295 63.8086C57.1006 63.6849 57.4346 63.5117 57.7314 63.2891C58.0283 63.0664 58.2633 62.7943 58.4365 62.4727C58.6221 62.1387 58.7148 61.7676 58.7148 61.3594ZM58.6777 70.0801C58.6777 69.6719 58.585 69.307 58.3994 68.9854C58.2262 68.6514 57.9974 68.373 57.7129 68.1504C57.4284 67.9277 57.1006 67.7546 56.7295 67.6309C56.3708 67.5072 56.0059 67.4453 55.6348 67.4453C55.2637 67.4453 54.8926 67.5072 54.5215 67.6309C54.1628 67.7546 53.835 67.9277 53.5381 68.1504C53.2412 68.373 53 68.6514 52.8145 68.9854C52.6413 69.307 52.5547 69.6719 52.5547 70.0801C52.5547 70.4759 52.6413 70.8346 52.8145 71.1562C53 71.4779 53.2412 71.75 53.5381 71.9727C53.835 72.1953 54.1628 72.3685 54.5215 72.4922C54.8926 72.6159 55.2637 72.6777 55.6348 72.6777C56.0059 72.6777 56.3708 72.6159 56.7295 72.4922C57.1006 72.3685 57.4284 72.1953 57.7129 71.9727C57.9974 71.75 58.2262 71.4779 58.3994 71.1562C58.585 70.8346 58.6777 70.4759 58.6777 70.0801ZM90.0723 65.8867C90.0723 66.9753 89.9486 68.0576 89.7012 69.1338C89.4661 70.21 89.1198 71.2428 88.6621 72.2324C88.2044 73.222 87.6416 74.1436 86.9736 74.9971C86.318 75.8506 85.5635 76.5928 84.71 77.2236C83.8564 77.8545 82.9163 78.3493 81.8896 78.708C80.8753 79.0667 79.7806 79.2461 78.6055 79.2461C77.418 79.2461 76.3109 79.0667 75.2842 78.708C74.2575 78.3493 73.3174 77.8545 72.4639 77.2236C71.6227 76.5928 70.8682 75.8506 70.2002 74.9971C69.5322 74.1436 68.9694 73.222 68.5117 72.2324C68.054 71.2428 67.7015 70.21 67.4541 69.1338C67.2191 68.0452 67.1016 66.9629 67.1016 65.8867C67.1016 64.8105 67.2191 63.7282 67.4541 62.6396C67.7015 61.5511 68.054 60.512 68.5117 59.5225C68.9694 58.5329 69.5322 57.6113 70.2002 56.7578C70.8682 55.8919 71.6227 55.1436 72.4639 54.5127C73.3174 53.8818 74.2575 53.387 75.2842 53.0283C76.3232 52.6696 77.4303 52.4902 78.6055 52.4902C79.7806 52.4902 80.8753 52.6696 81.8896 53.0283C82.9163 53.387 83.8564 53.8818 84.71 54.5127C85.5635 55.1436 86.318 55.8919 86.9736 56.7578C87.6416 57.6113 88.2044 58.5329 88.6621 59.5225C89.1198 60.512 89.4661 61.5511 89.7012 62.6396C89.9486 63.7282 90.0723 64.8105 90.0723 65.8867ZM82.2422 66.4434C82.2422 65.8991 82.168 65.293 82.0195 64.625C81.8711 63.957 81.6423 63.3324 81.333 62.751C81.0238 62.1696 80.6279 61.681 80.1455 61.2852C79.6631 60.8893 79.0879 60.6914 78.4199 60.6914C77.7396 60.6914 77.1582 60.8893 76.6758 61.2852C76.1934 61.681 75.7913 62.1696 75.4697 62.751C75.1605 63.3324 74.9316 63.957 74.7832 64.625C74.6348 65.293 74.5605 65.8991 74.5605 66.4434C74.5605 66.9876 74.6348 67.5938 74.7832 68.2617C74.9316 68.9297 75.1605 69.5544 75.4697 70.1357C75.7913 70.7171 76.1934 71.2057 76.6758 71.6016C77.1582 71.9974 77.7396 72.1953 78.4199 72.1953C79.0879 72.1953 79.6631 71.9974 80.1455 71.6016C80.6279 71.2057 81.0238 70.7171 81.333 70.1357C81.6423 69.5544 81.8711 68.9297 82.0195 68.2617C82.168 67.5938 82.2422 66.9876 82.2422 66.4434ZM117.385 71.2676C117.385 71.9232 117.249 72.5726 116.977 73.2158C116.704 73.8467 116.309 74.4157 115.789 74.9229C115.27 75.4176 114.639 75.8258 113.896 76.1475C113.167 76.4567 112.338 76.6113 111.41 76.6113C110.495 76.6113 109.666 76.4567 108.924 76.1475C108.194 75.8258 107.569 75.4176 107.05 74.9229C106.543 74.4157 106.153 73.8467 105.881 73.2158C105.609 72.5726 105.473 71.9232 105.473 71.2676C105.473 70.6243 105.609 69.9811 105.881 69.3379C106.153 68.6947 106.543 68.1257 107.05 67.6309C107.569 67.1237 108.194 66.7155 108.924 66.4062C109.666 66.0846 110.495 65.9238 111.41 65.9238C112.338 65.9238 113.167 66.0846 113.896 66.4062C114.639 66.7155 115.27 67.1237 115.789 67.6309C116.309 68.1257 116.704 68.6947 116.977 69.3379C117.249 69.9811 117.385 70.6243 117.385 71.2676ZM113.191 71.2305C113.191 71.0326 113.154 70.8223 113.08 70.5996C113.018 70.3646 112.913 70.1481 112.765 69.9502C112.616 69.7399 112.424 69.5667 112.189 69.4307C111.967 69.2946 111.695 69.2266 111.373 69.2266C111.051 69.2266 110.773 69.2946 110.538 69.4307C110.303 69.5667 110.111 69.7399 109.963 69.9502C109.814 70.1481 109.703 70.3646 109.629 70.5996C109.555 70.8223 109.518 71.0326 109.518 71.2305C109.518 71.4284 109.555 71.6449 109.629 71.8799C109.703 72.1025 109.814 72.319 109.963 72.5293C110.111 72.7272 110.303 72.8942 110.538 73.0303C110.773 73.1663 111.051 73.2344 111.373 73.2344C111.695 73.2344 111.967 73.1663 112.189 73.0303C112.424 72.8942 112.616 72.7272 112.765 72.5293C112.913 72.319 113.018 72.1025 113.08 71.8799C113.154 71.6449 113.191 71.4284 113.191 71.2305ZM103.283 62.0645C103.283 62.7201 103.147 63.3695 102.875 64.0127C102.603 64.6436 102.207 65.2126 101.688 65.7197C101.168 66.2145 100.537 66.6227 99.7949 66.9443C99.0651 67.2536 98.2363 67.4082 97.3086 67.4082C96.3932 67.4082 95.5645 67.2536 94.8223 66.9443C94.0924 66.6227 93.4678 66.2145 92.9482 65.7197C92.4411 65.2126 92.0514 64.6436 91.7793 64.0127C91.5072 63.3695 91.3711 62.7201 91.3711 62.0645C91.3711 61.4212 91.5072 60.778 91.7793 60.1348C92.0514 59.4915 92.4411 58.9225 92.9482 58.4277C93.4678 57.9206 94.0924 57.5124 94.8223 57.2031C95.5645 56.8815 96.3932 56.7207 97.3086 56.7207C98.2363 56.7207 99.0651 56.8815 99.7949 57.2031C100.537 57.5124 101.168 57.9206 101.688 58.4277C102.207 58.9225 102.603 59.4915 102.875 60.1348C103.147 60.778 103.283 61.4212 103.283 62.0645ZM99.0898 62.0273C99.0898 61.8294 99.0527 61.6191 98.9785 61.3965C98.9167 61.1615 98.8115 60.945 98.6631 60.7471C98.5146 60.5368 98.3229 60.3636 98.0879 60.2275C97.8652 60.0915 97.5931 60.0234 97.2715 60.0234C96.9499 60.0234 96.6715 60.0915 96.4365 60.2275C96.2015 60.3636 96.0098 60.5368 95.8613 60.7471C95.7129 60.945 95.6016 61.1615 95.5273 61.3965C95.4531 61.6191 95.416 61.8294 95.416 62.0273C95.416 62.2253 95.4531 62.4417 95.5273 62.6768C95.6016 62.8994 95.7129 63.1159 95.8613 63.3262C96.0098 63.5241 96.2015 63.6911 96.4365 63.8271C96.6715 63.9632 96.9499 64.0312 97.2715 64.0312C97.5931 64.0312 97.8652 63.9632 98.0879 63.8271C98.3229 63.6911 98.5146 63.5241 98.6631 63.3262C98.8115 63.1159 98.9167 62.8994 98.9785 62.6768C99.0527 62.4417 99.0898 62.2253 99.0898 62.0273ZM110.705 56.0898C109.122 59.541 107.65 63.054 106.289 66.6289C104.941 70.1914 103.679 73.791 102.504 77.4277L98.6445 76.0176C99.3743 74.224 100.098 72.4365 100.815 70.6553C101.545 68.8617 102.287 67.0804 103.042 65.3115C103.809 63.5426 104.601 61.7923 105.417 60.0605C106.233 58.3164 107.105 56.597 108.033 54.9023L110.705 56.0898Z" fill="#2B4D02"/>
</svg>
