<svg width="162" height="154" viewBox="0 0 162 154" fill="none" xmlns="http://www.w3.org/2000/svg">
<path d="M154 80.5313C154 71.0104 152.112 61.5828 148.443 52.7867C144.775 43.9906 139.397 35.9983 132.619 29.266C125.84 22.5338 117.793 17.1935 108.936 13.55C100.079 9.90652 90.5865 8.03125 81 8.03125C71.4135 8.03124 61.9209 9.90651 53.0641 13.55C44.2074 17.1934 36.1599 22.5337 29.3812 29.266C22.6026 35.9982 17.2254 43.9906 13.5568 52.7867C9.88821 61.5828 8 71.0104 8 80.5312" stroke="#DDEDC9" stroke-width="16" stroke-linecap="round" stroke-linejoin="round"/>
<path d="M8 80.5312C8 65.2208 12.8804 50.3033 21.9418 37.9168C31.0031 25.5304 43.7802 16.3109 58.4418 11.5797" stroke="#89BB4D" stroke-width="16" stroke-linecap="round" stroke-linejoin="round"/>
<path d="M72.9986 91.6484C72.9522 91.2143 72.7566 90.8762 72.4119 90.6342C72.0705 90.3923 71.6264 90.2713 71.0795 90.2713C70.6951 90.2713 70.3653 90.3293 70.0902 90.4453C69.8151 90.5613 69.6046 90.7187 69.4588 90.9176C69.313 91.1165 69.2384 91.3435 69.2351 91.5987C69.2351 91.8108 69.2831 91.9948 69.3793 92.1506C69.4787 92.3063 69.6129 92.4389 69.782 92.5483C69.951 92.6544 70.1383 92.7438 70.3438 92.8168C70.5492 92.8897 70.7564 92.951 70.9652 93.0007L71.9197 93.2393C72.3042 93.3288 72.6738 93.4498 73.0284 93.6023C73.3864 93.7547 73.7062 93.947 73.9879 94.179C74.273 94.411 74.4983 94.6911 74.6641 95.0192C74.8298 95.3473 74.9126 95.7318 74.9126 96.1726C74.9126 96.7692 74.7602 97.2945 74.4553 97.7486C74.1503 98.1993 73.7095 98.5523 73.1328 98.8075C72.5594 99.0594 71.8651 99.1854 71.0497 99.1854C70.2576 99.1854 69.5698 99.0627 68.9865 98.8175C68.4065 98.5722 67.9524 98.2143 67.6243 97.7436C67.2995 97.273 67.1238 96.6996 67.0973 96.0234H68.9119C68.9384 96.3781 69.0478 96.6731 69.2401 96.9084C69.4323 97.1437 69.6825 97.3194 69.9908 97.4354C70.3023 97.5514 70.6503 97.6094 71.0348 97.6094C71.4358 97.6094 71.7872 97.5497 72.0888 97.4304C72.3937 97.3078 72.6323 97.1387 72.8047 96.9233C72.977 96.7045 73.0649 96.4493 73.0682 96.1577C73.0649 95.8925 72.987 95.6738 72.8345 95.5014C72.6821 95.3258 72.4683 95.1799 72.1932 95.0639C71.9214 94.9446 71.6032 94.8385 71.2386 94.7457L70.0803 94.4474C69.2417 94.232 68.5788 93.9055 68.0916 93.468C67.6077 93.0272 67.3658 92.4422 67.3658 91.7131C67.3658 91.1132 67.5282 90.5878 67.853 90.1371C68.1811 89.6863 68.6269 89.3366 69.1903 89.0881C69.7538 88.8362 70.3918 88.7102 71.1044 88.7102C71.8269 88.7102 72.46 88.8362 73.0036 89.0881C73.5504 89.3366 73.9796 89.683 74.2912 90.1271C74.6027 90.5679 74.7635 91.075 74.7734 91.6484H72.9986ZM79.8084 99.1804C79.0627 99.1804 78.4164 99.0163 77.8695 98.6882C77.3226 98.3601 76.8984 97.901 76.5968 97.3111C76.2985 96.7211 76.1493 96.0317 76.1493 95.2429C76.1493 94.4541 76.2985 93.763 76.5968 93.1697C76.8984 92.5765 77.3226 92.1158 77.8695 91.7876C78.4164 91.4595 79.0627 91.2955 79.8084 91.2955C80.5542 91.2955 81.2005 91.4595 81.7473 91.7876C82.2942 92.1158 82.7168 92.5765 83.0151 93.1697C83.3167 93.763 83.4675 94.4541 83.4675 95.2429C83.4675 96.0317 83.3167 96.7211 83.0151 97.3111C82.7168 97.901 82.2942 98.3601 81.7473 98.6882C81.2005 99.0163 80.5542 99.1804 79.8084 99.1804ZM79.8184 97.7386C80.2227 97.7386 80.5608 97.6276 80.8326 97.4055C81.1043 97.1802 81.3065 96.8786 81.4391 96.5007C81.575 96.1229 81.6429 95.7019 81.6429 95.2379C81.6429 94.7706 81.575 94.348 81.4391 93.9702C81.3065 93.589 81.1043 93.2857 80.8326 93.0604C80.5608 92.835 80.2227 92.7223 79.8184 92.7223C79.4041 92.7223 79.0594 92.835 78.7843 93.0604C78.5125 93.2857 78.3087 93.589 78.1728 93.9702C78.0402 94.348 77.9739 94.7706 77.9739 95.2379C77.9739 95.7019 78.0402 96.1229 78.1728 96.5007C78.3087 96.8786 78.5125 97.1802 78.7843 97.4055C79.0594 97.6276 79.4041 97.7386 79.8184 97.7386ZM86.7947 88.8494V99.0312H84.995V88.8494H86.7947ZM91.4792 99.1655C90.8793 99.1655 90.3424 99.0114 89.8684 98.7031C89.3945 98.3949 89.0199 97.9474 88.7449 97.3608C88.4698 96.7741 88.3322 96.0616 88.3322 95.223C88.3322 94.3745 88.4714 93.6586 88.7498 93.0753C89.0315 92.4886 89.411 92.0462 89.8883 91.7479C90.3656 91.4463 90.8975 91.2955 91.4842 91.2955C91.9316 91.2955 92.2995 91.3717 92.5879 91.5241C92.8762 91.6733 93.1049 91.8539 93.274 92.0661C93.443 92.2749 93.5739 92.4721 93.6667 92.6577H93.7413V88.8494H95.546V99.0312H93.7761V97.8281H93.6667C93.5739 98.0137 93.4397 98.2109 93.264 98.4197C93.0884 98.6252 92.8564 98.8009 92.568 98.9467C92.2797 99.0926 91.9167 99.1655 91.4792 99.1655ZM91.9814 97.6889C92.3625 97.6889 92.6873 97.5862 92.9558 97.3807C93.2243 97.1719 93.4281 96.8819 93.5673 96.5107C93.7065 96.1394 93.7761 95.7069 93.7761 95.2131C93.7761 94.7192 93.7065 94.29 93.5673 93.9254C93.4314 93.5608 93.2292 93.2775 92.9608 93.0753C92.6956 92.8731 92.3691 92.772 91.9814 92.772C91.5803 92.772 91.2456 92.8764 90.9771 93.0852C90.7086 93.294 90.5065 93.5824 90.3706 93.9503C90.2347 94.3182 90.1667 94.7391 90.1667 95.2131C90.1667 95.6903 90.2347 96.1162 90.3706 96.4908C90.5098 96.862 90.7136 97.1553 90.9821 97.3707C91.2538 97.5829 91.5869 97.6889 91.9814 97.6889Z" fill="#2B4D02"/>
<path d="M65.7832 70.125L64.1504 70.1621L63.8164 78.1777L55.4297 78.9199L55.875 70.3477L45.9668 70.5703L48.7129 54.2793H55.7266L53.6855 65.6348L56.1348 65.5605L56.8398 51.4961H64.8926L64.3359 65.2637L65.7832 65.1895V70.125ZM89.96 65.7461C89.96 66.8346 89.8363 67.917 89.5889 68.9932C89.3538 70.0693 89.0075 71.1022 88.5498 72.0918C88.0921 73.0814 87.5293 74.0029 86.8613 74.8564C86.2057 75.71 85.4512 76.4521 84.5977 77.083C83.7441 77.7139 82.804 78.2087 81.7773 78.5674C80.763 78.9261 79.6683 79.1055 78.4932 79.1055C77.3057 79.1055 76.1986 78.9261 75.1719 78.5674C74.1452 78.2087 73.2051 77.7139 72.3516 77.083C71.5104 76.4521 70.7559 75.71 70.0879 74.8564C69.4199 74.0029 68.8571 73.0814 68.3994 72.0918C67.9417 71.1022 67.5892 70.0693 67.3418 68.9932C67.1068 67.9046 66.9893 66.8223 66.9893 65.7461C66.9893 64.6699 67.1068 63.5876 67.3418 62.499C67.5892 61.4105 67.9417 60.3714 68.3994 59.3818C68.8571 58.3923 69.4199 57.4707 70.0879 56.6172C70.7559 55.7513 71.5104 55.0029 72.3516 54.3721C73.2051 53.7412 74.1452 53.2464 75.1719 52.8877C76.2109 52.529 77.318 52.3496 78.4932 52.3496C79.6683 52.3496 80.763 52.529 81.7773 52.8877C82.804 53.2464 83.7441 53.7412 84.5977 54.3721C85.4512 55.0029 86.2057 55.7513 86.8613 56.6172C87.5293 57.4707 88.0921 58.3923 88.5498 59.3818C89.0075 60.3714 89.3538 61.4105 89.5889 62.499C89.8363 63.5876 89.96 64.6699 89.96 65.7461ZM82.1299 66.3027C82.1299 65.7585 82.0557 65.1523 81.9072 64.4844C81.7588 63.8164 81.5299 63.1917 81.2207 62.6104C80.9115 62.029 80.5156 61.5404 80.0332 61.1445C79.5508 60.7487 78.9756 60.5508 78.3076 60.5508C77.6273 60.5508 77.0459 60.7487 76.5635 61.1445C76.0811 61.5404 75.679 62.029 75.3574 62.6104C75.0482 63.1917 74.8193 63.8164 74.6709 64.4844C74.5225 65.1523 74.4482 65.7585 74.4482 66.3027C74.4482 66.847 74.5225 67.4531 74.6709 68.1211C74.8193 68.7891 75.0482 69.4137 75.3574 69.9951C75.679 70.5765 76.0811 71.0651 76.5635 71.4609C77.0459 71.8568 77.6273 72.0547 78.3076 72.0547C78.9756 72.0547 79.5508 71.8568 80.0332 71.4609C80.5156 71.0651 80.9115 70.5765 81.2207 69.9951C81.5299 69.4137 81.7588 68.7891 81.9072 68.1211C82.0557 67.4531 82.1299 66.847 82.1299 66.3027ZM117.272 71.127C117.272 71.7826 117.136 72.432 116.864 73.0752C116.592 73.7061 116.196 74.2751 115.677 74.7822C115.157 75.277 114.526 75.6852 113.784 76.0068C113.054 76.3161 112.226 76.4707 111.298 76.4707C110.382 76.4707 109.554 76.3161 108.812 76.0068C108.082 75.6852 107.457 75.277 106.938 74.7822C106.43 74.2751 106.041 73.7061 105.769 73.0752C105.496 72.432 105.36 71.7826 105.36 71.127C105.36 70.4837 105.496 69.8405 105.769 69.1973C106.041 68.554 106.43 67.985 106.938 67.4902C107.457 66.9831 108.082 66.5749 108.812 66.2656C109.554 65.944 110.382 65.7832 111.298 65.7832C112.226 65.7832 113.054 65.944 113.784 66.2656C114.526 66.5749 115.157 66.9831 115.677 67.4902C116.196 67.985 116.592 68.554 116.864 69.1973C117.136 69.8405 117.272 70.4837 117.272 71.127ZM113.079 71.0898C113.079 70.8919 113.042 70.6816 112.968 70.459C112.906 70.224 112.801 70.0075 112.652 69.8096C112.504 69.5993 112.312 69.4261 112.077 69.29C111.854 69.154 111.582 69.0859 111.261 69.0859C110.939 69.0859 110.661 69.154 110.426 69.29C110.191 69.4261 109.999 69.5993 109.851 69.8096C109.702 70.0075 109.591 70.224 109.517 70.459C109.442 70.6816 109.405 70.8919 109.405 71.0898C109.405 71.2878 109.442 71.5042 109.517 71.7393C109.591 71.9619 109.702 72.1784 109.851 72.3887C109.999 72.5866 110.191 72.7536 110.426 72.8896C110.661 73.0257 110.939 73.0938 111.261 73.0938C111.582 73.0938 111.854 73.0257 112.077 72.8896C112.312 72.7536 112.504 72.5866 112.652 72.3887C112.801 72.1784 112.906 71.9619 112.968 71.7393C113.042 71.5042 113.079 71.2878 113.079 71.0898ZM103.171 61.9238C103.171 62.5794 103.035 63.2288 102.763 63.8721C102.491 64.5029 102.095 65.0719 101.575 65.5791C101.056 66.0739 100.425 66.4821 99.6826 66.8037C98.9528 67.113 98.124 67.2676 97.1963 67.2676C96.2809 67.2676 95.4521 67.113 94.71 66.8037C93.9801 66.4821 93.3555 66.0739 92.8359 65.5791C92.3288 65.0719 91.9391 64.5029 91.667 63.8721C91.3949 63.2288 91.2588 62.5794 91.2588 61.9238C91.2588 61.2806 91.3949 60.6374 91.667 59.9941C91.9391 59.3509 92.3288 58.7819 92.8359 58.2871C93.3555 57.7799 93.9801 57.3717 94.71 57.0625C95.4521 56.7409 96.2809 56.5801 97.1963 56.5801C98.124 56.5801 98.9528 56.7409 99.6826 57.0625C100.425 57.3717 101.056 57.7799 101.575 58.2871C102.095 58.7819 102.491 59.3509 102.763 59.9941C103.035 60.6374 103.171 61.2806 103.171 61.9238ZM98.9775 61.8867C98.9775 61.6888 98.9404 61.4785 98.8662 61.2559C98.8044 61.0208 98.6992 60.8044 98.5508 60.6064C98.4023 60.3962 98.2106 60.223 97.9756 60.0869C97.7529 59.9508 97.4808 59.8828 97.1592 59.8828C96.8376 59.8828 96.5592 59.9508 96.3242 60.0869C96.0892 60.223 95.8975 60.3962 95.749 60.6064C95.6006 60.8044 95.4893 61.0208 95.415 61.2559C95.3408 61.4785 95.3037 61.6888 95.3037 61.8867C95.3037 62.0846 95.3408 62.3011 95.415 62.5361C95.4893 62.7588 95.6006 62.9753 95.749 63.1855C95.8975 63.3835 96.0892 63.5505 96.3242 63.6865C96.5592 63.8226 96.8376 63.8906 97.1592 63.8906C97.4808 63.8906 97.7529 63.8226 97.9756 63.6865C98.2106 63.5505 98.4023 63.3835 98.5508 63.1855C98.6992 62.9753 98.8044 62.7588 98.8662 62.5361C98.9404 62.3011 98.9775 62.0846 98.9775 61.8867ZM110.593 55.9492C109.009 59.4004 107.537 62.9134 106.177 66.4883C104.828 70.0508 103.567 73.6504 102.392 77.2871L98.5322 75.877C99.262 74.0833 99.9857 72.2959 100.703 70.5146C101.433 68.721 102.175 66.9398 102.93 65.1709C103.697 63.402 104.488 61.6517 105.305 59.9199C106.121 58.1758 106.993 56.4564 107.921 54.7617L110.593 55.9492Z" fill="#2B4D02"/>
</svg>
