<svg width="1440" height="862" viewBox="0 0 1440 862" fill="none" xmlns="http://www.w3.org/2000/svg">
<g clip-path="url(#clip0_3_1593)">
<path fill-rule="evenodd" clip-rule="evenodd" d="M-50.7845 753.804C-28.0227 742.892 -29.6017 716 -29.6017 716H0V3H1440V716H2535.59C2535.59 716 2534.01 742.94 2556.77 753.804C2579.54 764.667 2520.68 742.94 2519.12 740.526C2517.57 738.112 2522.98 798.101 2531.7 816.544C2531.71 816.673 2531.71 816.802 2531.7 816.93C2520.97 804.088 2491.94 768.384 2490.92 756.193C2490.72 764.401 2489.56 801.263 2484.7 806.888C2484.7 806.888 2483.12 785.838 2472.92 777.92L2470.49 798.197L2465.77 791.969L2462.64 807.564C2462.64 807.564 2457.93 781.01 2450.11 775.602C2450.11 775.602 2441.46 802.156 2437.52 808.336L2436.75 777.147L2428.1 793.635L2427.1 782.699L2421.03 795.18L2418.6 785.234L2409.2 798.294L2412.53 771.016C2412.53 771.016 2387.21 799.984 2390.35 818.572C2390.35 818.572 2384.17 783.187 2394.08 773.552C2392.44 775.108 2381.6 785.633 2380.14 792.838C2378.57 800.636 2379.37 774.902 2379.37 774.902C2379.37 774.902 2367.61 785.838 2367.61 792.066C2367.61 798.294 2365.18 775.699 2365.18 775.699C2365.18 775.699 2345.55 787.383 2358.89 809.978C2353.42 804.331 2348.82 797.913 2345.24 790.931C2344.02 794.634 2342.13 798.086 2339.67 801.118C2343.61 788.807 2327.14 781.565 2327.14 781.565C2338.9 822.603 2326.87 822.12 2326.87 822.12C2335.86 818.861 2326.22 788.541 2322.84 778.668C2325.46 791.342 2306.86 809.905 2306.86 809.905C2320.17 787.31 2300.56 775.602 2300.56 775.602C2300.56 775.602 2298.13 798.222 2298.13 791.969C2298.13 785.717 2286.35 774.83 2286.35 774.83C2286.35 774.83 2287.15 800.539 2285.58 792.742C2284.11 785.529 2273.28 774.99 2271.66 773.451C2281.58 783.102 2275.37 818.499 2275.37 818.499C2278.53 799.767 2253.22 770.919 2253.22 770.919L2256.62 798.463L2247.19 785.403L2244.76 795.325L2238.69 782.868L2237.72 793.78L2229.07 777.413L2228.29 808.602C2224.38 802.35 2215.74 775.844 2215.74 775.844C2207.91 781.299 2203.18 807.805 2203.18 807.805L2200.04 792.211L2195.43 798.463L2186.68 776.23C2176.48 784.027 2177.79 810.026 2177.79 810.026C2172.93 804.643 2168.85 776.23 2167.83 768.722C2168.41 776.481 2162.64 783.353 2144.45 805.025L2144.44 805.037C2141.41 808.647 2138.03 812.668 2134.28 817.172C2134.27 817.051 2134.27 816.93 2134.28 816.81C2137.14 810.604 2139.07 804.017 2140.02 797.256C2142.28 781.034 2126.15 776.085 2126.15 776.085C2126.15 776.085 2128.7 796.242 2127.41 790.811C2126.12 785.379 2113.71 778.233 2113.71 778.233C2113.71 778.233 2119.61 800.467 2116.65 793.997C2113.93 788.059 2102.53 781.124 2100.68 780.025C2111.23 786.474 2113 818.499 2113 818.499C2111.93 801.601 2084.07 781.565 2084.07 781.565L2092.5 804.643L2081.67 795.156V804.112L2073.84 794.456L2075.2 804.112L2064.37 791.607L2070.03 818.886C2065.34 814.251 2052.44 792.911 2052.44 792.911C2046.73 799.235 2048.02 823.255 2048.02 823.255L2042.12 810.292L2039.16 816.713L2032.99 799.549C2025.7 808.385 2028.61 827.021 2028.61 827.021C2023.68 823.479 2016.15 795.998 2013.48 786.288C2013.26 785.473 2013.07 784.784 2012.92 784.244C2014.52 795.059 1996.52 831.921 1989.77 845.223L1989.62 844.933C1993.46 827.142 1985.93 774.202 1985.15 776.278C1984.69 777.461 1972.35 785.934 1962.66 792.307C1966.57 805.295 1971.04 816.447 1971.04 816.447C1962.66 818.548 1932.49 778.668 1932.49 778.668C1927.63 787.238 1942.33 810.05 1942.33 810.05C1938.68 812.102 1926.15 797.98 1919.08 789.604C1921.71 796.071 1923.84 802.729 1925.44 809.519C1925.44 809.519 1914 791.849 1914.58 803.412C1914.93 809.885 1914.02 811.657 1913.05 813.573L1913.03 813.601C1912.97 813.712 1912.92 813.824 1912.86 813.937C1911.62 807.685 1900.71 803.532 1900.71 803.532C1900.69 806.182 1901.24 808.806 1902.32 811.228C1903.41 813.651 1904.99 815.817 1906.98 817.582C1898.6 814.999 1883.56 802.808 1883.56 802.808C1877.44 812.006 1912.01 847.419 1912.01 847.419L1886.11 830.907L1891.97 848.844L1863.06 809.254C1856.16 817.63 1870.66 862 1870.66 862C1866.12 860.6 1836.15 811.523 1836.15 811.523L1837.97 821.734C1826.96 813.913 1813.85 776.399 1813.85 776.399C1807.46 785.258 1827.81 823.303 1827.81 823.303C1814.09 816.568 1805.37 774.83 1805.37 774.83C1798.66 776.93 1796.45 804.015 1801.7 812.947C1802.5 819.489 1785.45 784.824 1785.45 784.824C1774.42 784.824 1779.08 823.448 1779.08 823.448C1775.34 822.338 1768.88 804.981 1764.19 790.859C1763.22 790.221 1762.25 789.569 1761.28 788.916C1759.82 787.937 1758.36 786.958 1756.9 786.031C1755.37 794.19 1753.14 803.943 1751.73 809.93L1751.51 809.302C1751.82 799.863 1751.24 790.415 1749.79 781.082C1748.16 779.89 1746.76 778.825 1745.73 778.04L1745.51 777.871C1744.52 781.732 1743.2 785.504 1741.58 789.145C1739.39 805.536 1736.89 833.104 1739.44 844.981L1739.29 845.271C1735.92 838.632 1729.77 826.128 1724.72 813.889C1718.16 820.141 1711.92 822.845 1708.76 819.175C1714.32 817.326 1719.21 813.892 1722.82 809.302C1718.6 798.729 1715.53 789 1716.24 784.269C1714.39 791.366 1705.89 823.207 1700.52 827.045C1700.52 827.045 1703.44 808.409 1696.15 799.573L1689.98 816.737L1686.92 810.34L1681.02 823.303C1681.02 823.303 1682.3 799.284 1676.57 792.959C1676.57 792.959 1663.7 814.299 1659.01 818.934L1664.67 791.655L1653.83 804.16L1655.19 794.504L1647.37 804.16V795.035L1636.54 804.522L1644.97 781.444C1644.97 781.444 1617.1 801.48 1616.03 818.379C1616.03 818.379 1617.82 786.158 1628.49 779.826C1627.15 780.613 1615.14 787.771 1612.39 793.876C1609.47 800.346 1615.33 778.113 1615.33 778.113C1615.33 778.113 1602.89 785.355 1601.6 790.69C1600.32 796.025 1602.89 775.964 1602.89 775.964C1602.89 775.964 1586.76 780.913 1589.02 797.135C1589.97 803.893 1591.91 810.479 1594.75 816.689C1594.76 816.809 1594.76 816.93 1594.75 817.051C1591.66 813.363 1588.82 809.999 1586.22 806.919L1586.22 806.918C1566.63 783.689 1560.66 776.618 1561.16 768.626C1560.14 776.061 1555.96 804.546 1551.2 809.93C1551.2 809.93 1552.51 783.955 1542.31 776.133L1533.56 798.463L1528.87 792.211L1525.74 807.805C1525.74 807.805 1521.03 781.251 1513.18 775.844C1513.18 775.844 1504.53 802.398 1500.62 808.602L1499.87 777.34L1491.2 793.635L1490.22 782.724L1484.15 795.18L1481.72 785.258L1472.37 798.463L1475.7 771.16C1475.7 771.16 1450.39 800.129 1453.54 818.741C1453.54 818.741 1447.34 783.248 1457.29 773.653C1455.83 775.043 1444.79 785.706 1443.34 792.983C1441.79 800.78 1442.54 775.071 1442.54 775.071C1442.54 775.071 1430.78 785.982 1430.78 792.211C1430.78 798.439 1428.35 775.844 1428.35 775.844C1428.35 775.844 1408.75 787.552 1422.08 810.147C1422.08 810.147 1403.45 791.583 1406.08 778.909C1402.7 788.565 1393.06 818.982 1402.04 822.362C1402.04 822.362 1389.9 822.869 1401.8 781.806C1401.8 781.806 1385.31 789.048 1389.24 801.312C1386.77 798.283 1384.88 794.831 1383.65 791.124C1380.03 798.097 1375.39 804.499 1369.88 810.123C1383.22 787.527 1363.59 775.844 1363.59 775.844C1363.59 775.844 1361.16 798.439 1361.16 792.211C1361.16 785.982 1349.4 775.047 1349.4 775.047C1349.4 775.047 1350.18 800.78 1348.6 792.983C1347.21 786.123 1337.49 776.105 1335.18 773.796C1344.68 783.833 1338.62 818.523 1338.62 818.523C1341.75 799.815 1316.44 770.967 1316.44 770.967L1319.77 798.246L1310.39 785.186L1307.96 795.132L1301.89 782.651L1301.33 788.747C1303.35 800.032 1305.85 810.511 1308.7 816.544C1308.71 816.673 1308.71 816.802 1308.7 816.93C1304.77 812.223 1298.37 804.443 1291.8 795.876L1291.49 808.433C1288.6 803.86 1283.18 788.353 1280.51 780.435C1279.61 779.127 1278.73 777.832 1277.89 776.557C1270.67 783.482 1266.37 807.66 1266.37 807.66L1264.54 798.552C1263.77 802.533 1262.84 805.569 1261.7 806.888C1261.7 806.888 1261.35 802.223 1259.91 796.46L1258.53 798.294L1257.37 788.608C1256.23 785.882 1254.81 783.248 1253.04 781.033C1251.22 783.266 1249.77 785.946 1248.62 788.722L1247.49 798.197L1246.13 796.402C1244.67 802.233 1244.31 806.984 1244.31 806.984C1243.16 805.67 1242.22 802.599 1241.45 798.568L1239.64 807.564C1239.64 807.564 1235.36 783.444 1228.19 776.499C1227.31 777.83 1226.4 779.185 1225.46 780.553C1222.75 788.542 1217.39 803.838 1214.52 808.336L1214.21 795.937C1207.64 804.521 1201.25 812.318 1197.31 817.027V816.641C1200.15 810.536 1202.64 799.964 1204.64 788.605L1204.1 782.699L1198.03 795.18L1195.6 785.234L1186.2 798.294L1189.53 771.016C1189.53 771.016 1164.21 799.984 1167.35 818.572C1167.35 818.572 1161.17 783.188 1171.08 773.552C1169.44 775.108 1158.6 785.633 1157.14 792.838C1155.57 800.636 1156.37 774.902 1156.37 774.902C1156.37 774.902 1144.61 785.838 1144.61 792.066C1144.61 798.294 1142.18 775.699 1142.18 775.699C1142.18 775.699 1122.55 787.383 1135.89 809.978C1130.42 804.331 1125.82 797.913 1122.24 790.931C1121.02 794.634 1119.13 798.086 1116.67 801.118C1120.61 788.807 1104.14 781.565 1104.14 781.565C1115.9 822.603 1103.87 822.12 1103.87 822.12C1112.86 818.861 1103.22 788.541 1099.84 778.668C1102.46 791.342 1083.86 809.905 1083.86 809.905C1097.17 787.31 1077.56 775.602 1077.56 775.602C1077.56 775.602 1075.13 798.222 1075.13 791.969C1075.13 785.717 1063.35 774.83 1063.35 774.83C1063.35 774.83 1064.15 800.539 1062.58 792.742C1061.11 785.529 1050.28 774.99 1048.66 773.451C1058.58 783.102 1052.37 818.499 1052.37 818.499C1055.53 799.767 1030.22 770.919 1030.22 770.919L1033.62 798.463L1024.19 785.403L1021.76 795.325L1015.69 782.868L1014.72 793.78L1006.07 777.413L1005.29 808.602C1001.38 802.35 992.735 775.844 992.735 775.844C984.913 781.299 980.176 807.805 980.176 807.805L977.042 792.211L972.427 798.463L963.682 776.23C953.479 784.027 954.791 810.026 954.791 810.026C949.932 804.643 945.851 776.23 944.831 768.722C945.414 776.481 939.644 783.353 921.45 805.024C918.416 808.637 915.036 812.662 911.283 817.172C911.272 817.051 911.272 816.93 911.283 816.81C914.143 810.604 916.075 804.017 917.016 797.256C919.276 781.034 903.146 776.085 903.146 776.085C903.146 776.085 905.696 796.242 904.409 790.811C903.121 785.379 890.708 778.233 890.708 778.233C890.708 778.233 896.611 800.467 893.647 793.997C890.927 788.059 879.529 781.124 877.675 780.025C888.234 786.474 890.003 818.499 890.003 818.499C888.935 801.601 861.071 781.565 861.071 781.565L869.501 804.643L858.667 795.156V804.112L850.844 794.456L852.205 804.112L841.371 791.607L847.031 818.886C842.342 814.251 829.443 792.911 829.443 792.911C823.734 799.235 825.022 823.255 825.022 823.255L819.119 810.292L816.155 816.713L809.985 799.549C802.697 808.385 805.612 827.021 805.612 827.021C800.682 823.48 793.146 796.001 790.483 786.289L790.483 786.289C790.259 785.474 790.07 784.784 789.92 784.244C791.523 795.059 773.522 831.921 766.769 845.223L766.623 844.933C770.462 827.142 762.931 774.202 762.154 776.278C761.692 777.461 749.352 785.934 739.659 792.307C743.57 805.295 748.04 816.447 748.04 816.447C739.659 818.548 709.488 778.668 709.488 778.668C704.63 787.238 719.327 810.05 719.327 810.05C715.683 812.102 703.148 797.98 696.079 789.604C698.709 796.071 700.837 802.729 702.443 809.519C702.443 809.519 691.002 791.849 691.585 803.412C691.928 809.885 691.023 811.657 690.045 813.573C689.984 813.693 689.922 813.814 689.86 813.937C688.621 807.685 677.714 803.532 677.714 803.532C677.695 806.182 678.244 808.806 679.325 811.228C680.405 813.651 681.993 815.817 683.981 817.582C675.601 814.999 660.564 802.808 660.564 802.808C654.442 812.006 689.01 847.419 689.01 847.419L663.114 830.907L668.969 848.844L640.061 809.254C633.162 817.63 647.665 862 647.665 862C643.122 860.6 613.145 811.523 613.145 811.523L614.967 821.734C603.963 813.913 590.845 776.399 590.845 776.399C584.456 785.258 604.813 823.303 604.813 823.303C591.088 816.568 582.367 774.83 582.367 774.83C575.663 776.93 573.452 804.015 578.699 812.947C579.501 819.489 562.448 784.824 562.448 784.824C551.419 784.824 556.083 823.448 556.083 823.448C552.342 822.338 545.88 804.981 541.192 790.859C540.223 790.223 539.254 789.572 538.285 788.921L538.277 788.916L538.277 788.916C536.819 787.937 535.362 786.958 533.904 786.031C532.374 794.19 530.139 803.943 528.73 809.93L528.511 809.302C528.816 799.863 528.239 790.415 526.787 781.082C525.158 779.891 523.761 778.825 522.733 778.041L522.732 778.04L522.511 777.871C521.52 781.732 520.204 785.504 518.576 789.145C516.39 805.536 513.887 833.104 516.438 844.981L516.292 845.271C512.916 838.632 506.77 826.128 501.717 813.889C495.158 820.141 488.915 822.845 485.757 819.175C491.318 817.326 496.21 813.892 499.822 809.302C495.595 798.729 492.535 789 493.239 784.269C491.393 791.366 482.891 823.207 477.522 827.045C477.522 827.045 480.437 808.409 473.149 799.573L466.979 816.737L463.918 810.34L458.015 823.303C458.015 823.303 459.303 799.284 453.57 792.959C453.57 792.959 440.695 814.299 436.007 818.934L441.667 791.655L430.832 804.16L432.193 794.504L424.371 804.16V795.035L413.536 804.522L421.966 781.444C421.966 781.444 394.103 801.48 393.034 818.379C393.034 818.379 394.818 786.157 405.494 779.826C404.147 780.615 392.14 787.772 389.39 793.876C386.475 800.346 392.329 778.113 392.329 778.113C392.329 778.113 379.892 785.355 378.604 790.69C377.317 796.025 379.892 775.964 379.892 775.964C379.892 775.964 363.762 780.913 366.021 797.135C366.974 803.893 368.905 810.479 371.754 816.689C371.765 816.809 371.765 816.93 371.754 817.051C368.66 813.363 365.822 809.999 363.224 806.919C343.629 783.689 337.664 776.618 338.158 768.626C337.137 776.061 332.959 804.546 328.198 809.93C328.198 809.93 329.51 783.955 319.307 776.133L310.562 798.463L305.873 792.211L302.74 807.805C302.74 807.805 298.027 781.251 290.181 775.844C290.181 775.844 281.533 802.398 277.622 808.602L276.869 777.34L268.196 793.635L267.225 782.724L261.152 795.18L258.722 785.258L249.37 798.463L252.698 771.16C252.698 771.16 227.385 800.129 230.543 818.741C230.543 818.741 224.342 783.248 234.294 773.653C232.828 775.044 221.792 785.706 220.341 792.983C218.786 800.78 219.539 775.071 219.539 775.071C219.539 775.071 207.782 785.982 207.782 792.211C207.782 798.439 205.352 775.844 205.352 775.844C205.352 775.844 185.749 787.552 199.085 810.147C199.085 810.147 180.453 791.583 183.076 778.909C179.7 788.565 170.056 818.982 179.044 822.362C179.044 822.362 166.898 822.869 178.801 781.806C178.801 781.806 162.307 789.048 166.242 801.312C163.769 798.283 161.876 794.831 160.655 791.124C157.03 798.097 152.389 804.499 146.881 810.123C160.217 787.527 140.589 775.844 140.589 775.844C140.589 775.844 138.16 798.439 138.16 792.211C138.16 785.982 126.403 775.047 126.403 775.047C126.403 775.047 127.18 800.78 125.601 792.983C124.212 786.123 114.493 776.105 112.176 773.796C121.678 783.833 115.617 818.523 115.617 818.523C118.751 799.815 93.4382 770.967 93.4382 770.967L96.7663 798.246L87.3895 785.186L84.9603 795.132L78.8872 782.651L77.8912 793.635L69.2675 777.244L68.4902 808.433C64.5548 802.205 55.9311 775.699 55.9311 775.699C48.0847 781.154 43.372 807.66 43.372 807.66L40.2383 792.066L35.5257 798.294L33.0964 778.016C22.8937 785.838 21.3147 806.984 21.3147 806.984C16.4563 801.432 15.2903 764.546 15.0959 756.29C14.0757 768.36 -14.9535 804.184 -25.6907 817.027V816.641C-17.0669 798.125 -11.747 738.499 -13.1316 740.526C-14.5163 742.554 -73.5463 764.667 -50.7845 753.804ZM737.886 786.127C738.763 783.476 739.405 780.754 739.805 777.992C735.481 770.75 735.457 756.097 735.457 756.097C732.444 761.408 734.582 773.888 737.886 786.127ZM1960.89 786.127C1961.76 783.476 1962.4 780.754 1962.8 777.992C1958.48 770.75 1958.46 756.097 1958.46 756.097C1955.44 761.408 1957.58 773.888 1960.89 786.127Z" fill="url(#paint0_linear_3_1593)"/>
</g>
<defs>
<linearGradient id="paint0_linear_3_1593" x1="1440" y1="339" x2="-7.9999" y2="349" gradientUnits="userSpaceOnUse">
<stop stop-color="#1E3601"/>
<stop offset="1" stop-color="#274502"/>
</linearGradient>
<clipPath id="clip0_3_1593">
<rect width="1440" height="862" fill="white" transform="matrix(1 0 0 -1 0 862)"/>
</clipPath>
</defs>
</svg>
