<svg width="66" height="66" viewBox="0 0 66 66" fill="none" xmlns="http://www.w3.org/2000/svg">
<circle cx="33" cy="33" r="31.5" fill="#B7DD88" stroke="#B1D881" stroke-width="3"/>
<g clip-path="url(#clip0_1_17)">
<path d="M30.6411 23.1971C28.9259 21.6848 26.715 20.9025 24.4589 21.0097C22.202 21.1174 20.0702 22.1083 18.4994 23.7796C16.9288 25.4505 16.0368 27.6751 16.0053 29.9997V30.2628C15.8483 34.9495 19.2114 38.1102 22.7609 40.4103C25.6352 42.2443 28.3413 44.3439 30.8456 46.683C31.3167 47.1265 31.6892 47.5023 31.9667 47.7805C32.0346 47.8515 32.1156 47.9079 32.205 47.9464C32.2943 47.9849 32.3902 48.0047 32.487 48.0047C32.5839 48.0047 32.6798 47.9849 32.7691 47.9464C32.8584 47.9079 32.9394 47.8515 33.0074 47.7805C33.2849 47.5023 33.6574 47.1265 34.1285 46.683C36.6375 44.3421 39.3485 42.2413 42.2278 40.4066C45.7772 38.1177 49.1368 34.957 48.9907 30.259V29.9959C48.972 28.6946 48.6826 27.4125 48.1422 26.2359C47.6018 25.0592 46.8227 24.0154 45.8576 23.1745C44.8918 22.3329 43.7623 21.7136 42.5448 21.3584C41.3274 21.0032 40.0501 20.9202 38.7989 21.115C37.5466 21.3123 36.3498 21.7834 35.2891 22.4965C34.2284 23.2096 33.3284 24.1482 32.6495 25.2491C32.4925 25.5085 32.3428 25.7866 32.204 26.0647C31.6289 27.2607 31.2913 28.5626 31.2108 29.8945V30.1463C31.1957 30.2713 31.1398 30.3874 31.0522 30.4755C30.9646 30.5636 30.8506 30.6184 30.7288 30.6311C30.6081 30.6426 30.4872 30.6117 30.3858 30.5434C30.2843 30.4752 30.2083 30.3736 30.1701 30.2553C30.1482 30.1688 30.1299 30.0861 30.1116 29.9959C29.8013 28.4622 29.7939 26.8799 30.0897 25.3431C30.2114 24.6153 30.3984 23.9006 30.6484 23.2084L30.6411 23.1971Z" fill="#4E7B18"/>
</g>
<defs>
<clipPath id="clip0_1_17">
<rect width="33" height="27" fill="white" transform="translate(16 21)"/>
</clipPath>
</defs>
</svg>
