<svg width="468" height="464" viewBox="0 0 468 464" fill="none" xmlns="http://www.w3.org/2000/svg">
<g clip-path="url(#clip0_3_1780)">
<g clip-path="url(#clip1_3_1780)">
<path d="M509.111 213.755L75.1424 129.88C58.8749 126.736 43.1387 137.375 39.9946 153.642L5.07843 334.299C1.93435 350.567 12.573 366.303 28.8405 369.447L462.809 453.322C479.077 456.466 494.813 445.827 497.957 429.56L532.873 248.903C536.017 232.635 525.379 216.899 509.111 213.755Z" fill="#FFEEDA"/>
<path opacity="0.2" d="M191.433 493.881C300.451 514.952 390.777 521.951 393.18 509.515C395.584 497.079 309.155 469.917 200.137 448.847C91.1189 427.776 0.793725 420.777 -1.60983 433.213C-4.01339 445.649 82.4149 472.811 191.433 493.881Z" fill="#522323"/>
<path d="M322.122 496.872C311.16 495.577 300.653 492.722 294.348 489.973C289.308 487.771 284.713 484.667 280.79 480.813C273.883 474.043 270.908 464.231 272.743 454.737L274.624 445.003C274.624 445.003 274.102 444.794 273.135 444.426C265.727 441.633 227.023 428.676 201.351 431.504C201.004 431.536 200.675 431.579 200.338 431.621L198.15 442.943C196.745 450.21 191.487 460.025 184.726 463.061C176.374 466.804 168.383 467.372 149.599 463.847C149.09 463.758 148.576 463.658 148.054 463.557C110.267 456.254 108.463 433.482 110.531 427.007C111.522 423.884 113.398 420.487 116.331 418.014L116.332 418.006C121.928 413.272 131.359 411.879 145.784 422.061L148.066 410.255C148.066 410.255 146.065 408.824 143.799 405.673C143.798 405.67 143.796 405.668 143.794 405.666C143.792 405.664 143.789 405.663 143.786 405.662C143.781 405.663 143.776 405.662 143.771 405.659C139.646 399.914 134.665 388.533 139.216 369.841C141.242 361.527 144.136 355.509 147.224 351.159C154.92 340.33 163.852 339.815 163.852 339.815L163.732 334.723L163.185 311.761C163.185 311.761 136.335 308.325 116.945 296.292C110.985 292.589 105.728 288.079 102.183 282.608C98.848 277.466 98.0695 272.209 99.1002 267.044C102.744 248.868 128.917 231.985 144.979 225.92C150.323 223.905 159.591 220.597 171.431 217.183C171.453 217.18 171.474 217.174 171.495 217.165C171.778 217.082 172.11 216.986 172.48 216.883C179.829 214.782 188.137 212.653 197.074 210.776C200.977 209.943 204.99 209.171 209.114 208.461C237.445 206.803 303.997 212.531 303.997 212.531C304.014 212.525 304.031 212.518 304.047 212.51C305.543 211.809 339.519 195.823 361.229 188.785C361.234 188.784 361.24 188.785 361.244 188.788C363.325 188.115 365.284 187.527 367.102 187.028C388.296 181.322 404.219 177.533 407.572 185.536C408.357 187.389 407.89 190.316 406.363 193.686C401.736 203.829 387.302 218.013 367.54 219.314C367.516 219.312 367.493 219.312 367.47 219.316C365.596 219.44 363.717 219.443 361.843 219.326C361.843 219.326 344.894 243.657 323.444 258.291C323.444 258.291 321.117 282.993 331.398 310.948C331.489 311.035 332.219 311.787 333.41 313.112C339.585 319.977 358.135 342.258 364.561 368.485C365.99 374.294 366.819 380.3 366.787 386.377C366.736 395.284 365.647 403.165 363.711 410.027C358.975 426.923 349.183 437.835 337.375 443.404C337.36 443.401 337.349 443.415 337.333 443.418C332.844 445.533 328.046 446.917 323.12 447.516L325.916 462.897C325.916 462.897 345.339 454.722 356.439 461.531C359.739 463.548 362.301 466.888 363.41 472.162C363.735 473.744 363.924 475.351 363.975 476.966C364.723 496.264 342.622 499.291 322.122 496.872Z" fill="#FFCC93"/>
<path opacity="0.6" d="M363.727 410.032L363.73 410.017C362.896 372.373 331.894 311.9 331.414 310.953C331.504 311.04 332.235 311.792 333.426 313.118C339.601 319.982 358.151 342.264 364.577 368.49C366.005 374.299 366.834 380.306 366.803 386.382C366.747 395.289 365.665 403.166 363.727 410.032Z" fill="white"/>
<path d="M406.373 193.682C401.746 203.825 387.313 218.009 367.55 219.311C367.527 219.308 367.503 219.309 367.48 219.312C361.082 219.372 347.704 218.669 341.061 212.148C332.251 203.503 360.503 189.161 361.239 188.786C361.244 188.785 361.249 188.786 361.254 188.789C363.335 188.116 365.294 187.529 367.111 187.03C388.305 181.323 404.228 177.534 407.582 185.537C408.367 187.392 407.894 190.311 406.373 193.682Z" fill="white"/>
<path d="M160.38 448.774C159.186 454.952 155.268 460.118 149.602 463.846C149.093 463.757 148.578 463.657 148.057 463.556C110.27 456.253 108.466 433.481 110.534 427.006C111.525 423.882 113.401 420.486 116.334 418.013L116.335 418.005C121.931 413.271 131.361 411.877 145.787 422.059L145.983 421.044C156.455 428.229 162.344 438.611 160.38 448.774Z" fill="white"/>
<path d="M322.122 496.87C315.597 491.151 312.2 484.359 313.462 477.834C315.898 465.226 334.849 458.189 356.451 461.532C359.75 463.549 362.313 466.888 363.421 472.163C363.747 473.745 363.936 475.352 363.986 476.966C364.723 496.263 342.622 499.29 322.122 496.87Z" fill="white"/>
<path opacity="0.6" d="M406.372 193.685C382.182 184.248 306.298 211.706 304.053 212.52C305.688 211.748 346.348 192.63 367.109 187.034C388.303 181.328 404.226 177.539 407.58 185.542C408.365 187.395 407.893 190.314 406.372 193.685Z" fill="white"/>
<path opacity="0.2" d="M361.85 219.321C361.85 219.321 344.901 243.653 323.451 258.287C323.451 258.287 321.125 282.988 331.406 310.943C331.406 310.943 332.152 311.705 333.425 313.116C330.879 313.714 328.953 313.541 327.798 312.425C316.036 301.036 313.163 263.624 313.163 263.624L302.623 268.875C316.809 265.436 351.28 211.434 351.28 211.434C351.28 211.434 363.179 213.002 369.433 207.069C375.688 201.136 383.746 199.302 383.746 199.302C393.975 201.149 407.572 185.537 407.572 185.537C410.933 193.534 391.392 221.114 361.85 219.321Z" fill="#522323"/>
<path d="M299.675 399.049C295.93 418.423 285.949 434.542 273.14 444.422C265.731 441.629 232.174 429.667 206.499 432.494C197.818 418.446 194.285 399.303 198.128 379.422C205.068 343.514 233.429 318.792 261.474 324.213C289.518 329.633 306.616 363.134 299.675 399.049Z" fill="white"/>
<path d="M147.487 466.495C137.93 464.648 129.856 461.679 123.49 457.673C118.057 454.252 113.86 450.086 111.014 445.293C106.765 438.13 106.278 430.491 107.68 426.097C108.699 422.904 111.97 415.176 120.331 412.371C126.997 410.134 134.843 411.728 143.695 417.104L144.801 411.382C143.161 409.823 140.499 406.836 138.288 402.212C136.339 398.135 135.111 393.58 134.637 388.675C134.054 382.645 134.616 376.066 136.31 369.122C138.004 362.178 140.43 356.192 143.526 351.296C146.063 347.288 149.054 344 152.419 341.525C155.716 339.101 158.729 337.921 160.804 337.349L160.252 314.336C157.45 313.876 152.533 312.965 146.587 311.427C134.168 308.215 123.665 303.975 115.366 298.825C108.448 294.535 103.167 289.623 99.6704 284.225C95.4637 277.742 94.5687 270.685 97.0101 263.255C103.144 244.585 129.042 228.726 143.925 223.115C149.678 220.946 158.977 217.654 170.604 214.303L170.656 214.288C170.948 214.203 171.29 214.104 171.673 213.996C193.549 207.747 214.648 203.788 234.369 202.231C260.908 200.135 284.27 202.521 303.834 209.296C310.774 206.045 346.803 189.386 366.326 184.124C376.553 181.372 386.344 178.842 393.749 178.15C397.077 177.839 407.2 176.892 410.335 184.363C411.981 188.291 410.261 194.292 405.62 200.834C401.331 206.878 395.23 212.291 388.439 216.078C380.642 220.429 371.994 222.595 363.334 222.372C361.696 224.607 358.056 229.436 352.944 235.278C346.745 242.366 337.181 252.28 326.337 259.916C326.121 264.629 326.198 269.351 326.566 274.054C327.191 282.53 328.992 295.482 333.998 309.315C335.966 311.396 343.803 319.927 351.706 332.362C356.973 340.648 361.164 348.944 364.163 357.023C367.949 367.214 369.843 377.094 369.792 386.388C369.737 396.115 368.456 405.046 365.986 412.932C363.655 420.374 360.256 426.927 355.882 432.411C348.591 441.631 338.193 447.883 326.629 449.998L328.241 458.863C334.749 456.709 348.904 453.162 358.28 459.133C363.732 462.605 366.662 468.567 366.98 476.85C367.133 480.792 366.426 484.353 364.883 487.416C363.431 490.299 361.235 492.756 358.357 494.719C349.275 500.912 335.088 501.093 324.785 500.155C313.586 499.135 301.166 496.214 293.151 492.711C287.779 490.363 282.881 487.053 278.699 482.944C271.09 475.49 267.761 464.729 269.803 454.163L271.208 446.898C266.458 445.165 255.662 441.633 243.41 438.765C227.152 434.958 213.17 433.441 202.855 434.356L201.087 443.505C199.496 451.734 193.653 462.343 185.955 465.793C180.926 468.053 176.368 469.06 170.701 469.184C164.935 469.315 157.775 468.483 147.487 466.495ZM129.819 417.739C127.02 417.198 124.475 417.295 122.236 418.046C116.471 419.98 114.124 425.593 113.384 427.917C112.691 430.084 112.383 435.866 116.164 442.231C119.865 448.47 128.501 456.723 148.624 460.612C168.979 464.546 176.091 463.655 183.509 460.33C189.077 457.834 193.919 449.063 195.212 442.368L197.401 431.046C197.522 430.427 197.836 429.863 198.297 429.433C198.758 429.003 199.344 428.729 199.969 428.651C200.317 428.609 200.666 428.565 201.046 428.519C212.285 427.289 226.999 428.772 244.778 432.935C258.137 436.063 269.862 439.982 274.194 441.617C275.195 442.001 275.731 442.214 275.731 442.214C276.379 442.471 276.917 442.946 277.252 443.558C277.588 444.169 277.699 444.879 277.567 445.564L275.685 455.298C274.026 463.885 276.717 472.621 282.888 478.668C286.552 482.268 290.843 485.167 295.551 487.223C301.667 489.897 313.256 493.091 325.33 494.192C338.514 495.391 349.045 493.822 354.986 489.771C359.248 486.862 361.216 482.71 361 477.077C360.759 470.79 358.82 466.573 355.075 464.184C345.476 458.063 327.276 465.576 327.094 465.651C326.681 465.824 326.235 465.902 325.787 465.88C325.34 465.858 324.903 465.735 324.509 465.522C324.116 465.309 323.775 465.01 323.512 464.647C323.249 464.285 323.07 463.868 322.99 463.427L320.193 448.048C320.119 447.647 320.129 447.236 320.22 446.84C320.311 446.443 320.483 446.069 320.724 445.741C320.964 445.412 321.27 445.137 321.621 444.93C321.972 444.724 322.361 444.592 322.765 444.541C348.28 441.347 363.625 419.596 363.812 386.355C363.917 366.856 354.544 347.978 346.661 335.575C338.052 322.034 329.36 313.121 329.274 313.032C328.976 312.73 328.746 312.367 328.599 311.969C323.167 297.201 321.245 283.356 320.589 274.341C319.877 264.536 320.449 258.259 320.475 257.991C320.517 257.553 320.654 257.13 320.877 256.751C321.101 256.373 321.405 256.048 321.768 255.8C342.495 241.657 359.232 217.836 359.399 217.596C359.691 217.176 360.086 216.838 360.546 216.614C361.006 216.39 361.516 216.288 362.027 216.318C379.9 217.403 394.051 206.784 400.738 197.362C404.658 191.84 405.319 187.872 404.814 186.673C404.467 185.83 403.381 183.256 394.309 184.105C387.38 184.755 377.85 187.217 367.883 189.898C347.2 195.47 305.693 215.025 305.278 215.218C304.56 215.556 303.737 215.597 302.989 215.33C261.124 200.318 209.358 209.443 173.305 219.743C172.945 219.843 172.644 219.93 172.381 220.008C172.334 220.023 172.267 220.042 172.188 220.063C160.788 223.351 151.677 226.574 146.039 228.703C131.166 234.307 107.89 249.309 102.699 265.107C100.826 270.811 101.479 275.994 104.695 280.953C107.708 285.604 112.361 289.9 118.525 293.722C137.116 305.259 163.304 308.732 163.568 308.765C164.277 308.857 164.931 309.199 165.41 309.731C165.888 310.262 166.161 310.948 166.178 311.663L166.847 339.718C166.878 340.495 166.601 341.253 166.076 341.826C165.551 342.4 164.821 342.742 164.044 342.779C163.784 342.803 160.046 343.222 155.622 346.594C149.468 351.293 144.802 359.568 142.129 370.52C135.601 397.257 149.67 407.697 149.814 407.799C150.279 408.133 150.639 408.593 150.851 409.125C151.063 409.657 151.118 410.239 151.009 410.801L148.728 422.607C148.632 423.098 148.416 423.557 148.098 423.943C147.779 424.329 147.369 424.629 146.905 424.815C146.441 425.002 145.938 425.07 145.441 425.012C144.944 424.954 144.47 424.772 144.061 424.484C138.852 420.829 134.044 418.556 129.819 417.739Z" fill="#522323"/>
<path d="M324.85 260.922C322.888 261.678 320.939 262.415 318.977 263.148C317.015 263.882 315.064 264.603 313.103 265.328C309.18 266.764 305.249 268.173 301.3 269.51C304.817 267.275 308.288 264.981 311.743 262.662C313.47 261.502 315.192 260.337 316.91 259.165C318.626 257.993 320.344 256.815 322.042 255.634C322.367 255.408 322.733 255.248 323.12 255.164C323.507 255.08 323.907 255.072 324.296 255.142C324.686 255.213 325.058 255.359 325.391 255.573C325.725 255.787 326.012 256.064 326.238 256.389C326.464 256.714 326.624 257.081 326.708 257.467C326.793 257.854 326.8 258.254 326.73 258.644C326.66 259.033 326.514 259.405 326.3 259.739C326.086 260.072 325.808 260.36 325.483 260.586C325.286 260.722 325.074 260.835 324.85 260.922Z" fill="#522323"/>
<path d="M163.469 308.773C163.563 308.791 163.692 308.816 163.817 308.84C163.942 308.864 164.068 308.889 164.197 308.914C164.455 308.964 164.711 309.013 164.976 309.047C165.5 309.135 166.03 309.21 166.564 309.283C167.097 309.355 167.632 309.414 168.168 309.482L169.784 309.641C171.943 309.832 174.118 309.917 176.309 309.896C176.854 309.884 177.403 309.891 177.948 309.872L179.59 309.795C179.866 309.785 180.138 309.761 180.411 309.736L181.233 309.665L182.056 309.595C182.332 309.575 182.601 309.53 182.875 309.496L184.518 309.283C185.063 309.194 185.605 309.09 186.153 308.993L186.974 308.846L187.783 308.662L189.414 308.278L187.91 309.017L187.159 309.382L186.385 309.712C185.866 309.93 185.346 310.156 184.822 310.369L183.231 310.955C182.964 311.049 182.7 311.16 182.43 311.242L181.62 311.5L180.808 311.76C180.537 311.847 180.264 311.936 179.991 312.007L178.345 312.465C177.793 312.616 177.238 312.737 176.684 312.875C174.46 313.398 172.206 313.819 169.922 314.138L168.206 314.354C167.632 314.413 167.056 314.48 166.471 314.529C165.887 314.578 165.313 314.627 164.728 314.662C164.436 314.682 164.14 314.694 163.843 314.71C163.697 314.717 163.546 314.722 163.392 314.727C163.238 314.731 163.092 314.737 162.907 314.735L162.688 314.733C162.291 314.731 161.897 314.65 161.531 314.495C161.165 314.34 160.832 314.115 160.553 313.832C160.274 313.549 160.053 313.214 159.903 312.845C159.754 312.477 159.678 312.083 159.681 311.685C159.683 311.287 159.764 310.894 159.919 310.528C160.074 310.162 160.299 309.829 160.582 309.55C160.865 309.271 161.201 309.05 161.569 308.9C161.937 308.751 162.332 308.675 162.729 308.678C162.979 308.679 163.227 308.711 163.469 308.773Z" fill="#522323"/>
<path d="M364.089 199.658C365.033 199.023 366.018 198.452 367.039 197.948C368.052 197.439 369.088 196.978 370.147 196.564C371.213 196.147 372.301 195.785 373.405 195.479C374.537 195.161 375.691 194.921 376.857 194.76C378.116 194.577 379.393 194.543 380.661 194.659C381.399 194.732 382.127 194.89 382.829 195.13C383.703 195.423 384.507 195.898 385.186 196.523C385.582 196.887 385.923 197.308 386.196 197.771L386.301 197.948C386.333 198.007 386.355 198.055 386.384 198.11L386.539 198.435C386.641 198.656 386.729 198.883 386.802 199.115C387.113 200.089 387.177 201.124 386.99 202.129C386.821 203.007 386.499 203.848 386.039 204.614C385.652 205.258 385.2 205.861 384.689 206.412C384.23 206.904 383.739 207.367 383.221 207.798C382.717 208.211 382.218 208.584 381.699 208.932C380.692 209.606 379.64 210.208 378.55 210.736C378.284 210.866 378.014 210.991 377.744 211.114L377.653 211.156L377.643 211.154C377.643 211.154 377.63 211.152 377.622 211.15C377.607 211.149 377.591 211.15 377.577 211.153C377.489 211.175 377.411 211.226 377.355 211.297C377.335 211.319 377.322 211.344 377.302 211.371C377.257 211.513 377.205 211.692 377.151 211.852C377.045 212.171 376.926 212.488 376.797 212.804C376.53 213.428 376.211 214.029 375.844 214.599C375.113 215.741 374.174 216.735 373.075 217.529C372.022 218.289 370.837 218.846 369.58 219.174C369.43 219.218 369.278 219.251 369.125 219.283C368.973 219.315 368.823 219.352 368.672 219.377C368.367 219.421 368.068 219.48 367.764 219.498L367.313 219.536L366.865 219.554C366.567 219.573 366.27 219.553 365.974 219.552C364.817 219.506 363.671 219.305 362.567 218.954C363.632 218.659 364.68 218.309 365.708 217.905C366.657 217.528 367.562 217.05 368.409 216.479C369.175 215.964 369.858 215.334 370.433 214.612C370.964 213.939 371.386 213.187 371.685 212.384C371.833 211.988 371.952 211.583 372.044 211.171C372.084 210.964 372.124 210.758 372.163 210.553C372.173 210.502 372.183 210.451 372.193 210.4L372.208 210.323L372.215 210.285L372.224 210.236C372.267 209.994 372.326 209.756 372.4 209.522C372.705 208.548 373.262 207.672 374.015 206.983C374.205 206.807 374.407 206.644 374.62 206.494C374.729 206.422 374.837 206.348 374.951 206.283L375.212 206.131C375.43 206.004 375.646 205.876 375.86 205.746C376.713 205.23 377.544 204.677 378.306 204.106C379.024 203.588 379.692 203.005 380.303 202.364C380.541 202.115 380.755 201.843 380.941 201.552C381.056 201.383 381.149 201.2 381.217 201.007C381.249 200.933 381.265 200.853 381.262 200.772C381.253 200.748 381.271 200.726 381.249 200.691C381.242 200.675 381.238 200.657 381.235 200.639L381.231 200.616C381.239 200.618 381.231 200.616 381.245 200.602C381.26 200.588 381.249 200.583 381.24 200.569C381.231 200.555 381.217 200.536 381.207 200.511C381.18 200.483 381.152 200.457 381.122 200.432C381.03 200.354 380.928 200.287 380.82 200.234C380.501 200.072 380.164 199.947 379.817 199.86C378.915 199.641 377.995 199.504 377.068 199.451C375.071 199.316 372.931 199.356 370.768 199.424L367.478 199.549C366.351 199.596 365.234 199.641 364.089 199.658Z" fill="#522323"/>
<path d="M147.502 466.425C145.698 466.065 143.934 465.524 142.238 464.811C140.583 464.122 138.984 463.305 137.457 462.366C135.941 461.442 134.491 460.412 133.12 459.284C131.739 458.157 130.441 456.932 129.236 455.62C128.014 454.29 126.905 452.861 125.92 451.347C124.906 449.792 124.065 448.13 123.413 446.391C122.727 444.576 122.322 442.667 122.211 440.73C122.1 438.717 122.374 436.703 123.018 434.793C123.343 433.844 123.754 432.927 124.248 432.054C124.727 431.208 125.275 430.404 125.888 429.65C126.036 429.466 126.176 429.277 126.336 429.095L126.815 428.56L127.296 428.025C127.465 427.854 127.643 427.688 127.819 427.519L128.347 427.015C128.526 426.851 128.723 426.702 128.912 426.543L129.483 426.075C129.682 425.925 129.879 425.784 130.09 425.643L130.705 425.217L131.355 424.833C131.576 424.706 131.786 424.576 132.014 424.464L132.696 424.138C133.615 423.716 134.57 423.379 135.55 423.132C135.795 423.065 136.042 423.026 136.289 422.973C136.535 422.92 136.784 422.873 137.031 422.838L137.775 422.754C138.024 422.725 138.273 422.695 138.52 422.69C139.014 422.659 139.508 422.653 140.002 422.674L140.737 422.705C140.98 422.723 141.221 422.756 141.462 422.782C143.347 423.011 145.189 423.508 146.933 424.26C148.609 424.98 150.196 425.892 151.661 426.978C153.098 428.037 154.413 429.25 155.583 430.597C156.16 431.268 156.695 431.974 157.185 432.712C157.678 433.446 158.108 434.22 158.473 435.025C158.564 435.224 158.587 435.448 158.539 435.661C158.492 435.874 158.375 436.066 158.208 436.208C158.041 436.349 157.833 436.431 157.614 436.443C157.396 436.454 157.18 436.394 156.999 436.271L156.938 436.231C156.6 435.995 156.29 435.752 155.956 435.531L155.47 435.185L154.979 434.85C154.33 434.403 153.664 433.989 153.013 433.579C151.708 432.786 150.361 432.064 148.979 431.415C147.649 430.788 146.279 430.253 144.876 429.814C143.548 429.404 142.182 429.127 140.799 428.988C139.506 428.847 138.2 428.896 136.921 429.134C135.673 429.383 134.483 429.865 133.415 430.557C133.279 430.644 133.14 430.726 133.007 430.818L132.617 431.119C132.488 431.221 132.354 431.316 132.231 431.427L131.864 431.769C131.743 431.885 131.618 431.995 131.496 432.113L131.151 432.49L130.804 432.867C130.694 432.999 130.591 433.142 130.484 433.278C130.058 433.794 129.679 434.347 129.35 434.93C129.033 435.485 128.77 436.069 128.563 436.674C128.155 437.885 127.983 439.163 128.055 440.439C128.138 441.785 128.424 443.111 128.904 444.372C129.408 445.708 130.056 446.985 130.837 448.181C131.648 449.42 132.56 450.59 133.562 451.68C135.604 453.895 137.945 455.814 140.517 457.383C141.787 458.164 143.117 458.844 144.493 459.417C145.826 459.98 147.211 460.407 148.629 460.693C149.39 460.84 150.061 461.283 150.495 461.925C150.929 462.568 151.09 463.356 150.943 464.117C150.796 464.878 150.353 465.549 149.711 465.983C149.069 466.417 148.28 466.579 147.519 466.432L147.502 466.425Z" fill="#522323"/>
<path d="M319.947 493.639C321.41 493.914 322.888 494.104 324.373 494.209C325.852 494.309 327.336 494.308 328.815 494.206C330.283 494.112 331.743 493.913 333.183 493.608C334.595 493.302 335.978 492.878 337.319 492.341C338.621 491.821 339.865 491.163 341.027 490.379C342.137 489.639 343.134 488.743 343.987 487.719C345.616 485.716 346.446 483.33 346.232 480.814C346.05 478.241 344.948 475.821 343.127 473.995C342.187 473.066 341.115 472.28 339.947 471.662C338.752 471.028 337.495 470.52 336.195 470.148C334.868 469.763 333.511 469.496 332.137 469.35C330.731 469.204 329.314 469.174 327.902 469.261C326.443 469.353 324.993 469.556 323.565 469.87C323.387 469.911 323.208 469.953 323.014 469.989C322.82 470.024 322.655 470.089 322.467 470.129C322.107 470.23 321.723 470.307 321.36 470.426C320.997 470.544 320.615 470.639 320.245 470.763C320.063 470.827 319.881 470.888 319.684 470.947C319.487 471.006 319.307 471.07 319.111 471.126L319.037 471.145C318.828 471.204 318.606 471.194 318.403 471.116C318.2 471.037 318.029 470.895 317.914 470.711C317.799 470.526 317.747 470.31 317.766 470.094C317.785 469.877 317.874 469.673 318.019 469.511C318.164 469.351 318.315 469.198 318.467 469.042C318.62 468.886 318.77 468.731 318.926 468.579C319.081 468.427 319.247 468.288 319.411 468.144C319.575 468.001 319.744 467.868 319.911 467.731L320.164 467.521C320.251 467.453 320.342 467.385 320.43 467.327L320.964 466.946C321.146 466.823 321.324 466.689 321.512 466.575C321.701 466.462 321.896 466.349 322.088 466.238C323.63 465.33 325.287 464.634 327.015 464.169C330.571 463.214 334.314 463.208 337.872 464.152C341.538 465.141 344.851 467.141 347.435 469.922C347.762 470.275 348.063 470.654 348.373 471.022C348.658 471.417 348.957 471.793 349.227 472.196C349.766 473.008 350.237 473.862 350.637 474.751L350.929 475.423C351.025 475.647 351.095 475.882 351.178 476.112C351.261 476.343 351.338 476.573 351.413 476.806L351.597 477.522C351.653 477.759 351.725 477.994 351.765 478.235L351.891 478.955C351.973 479.436 352.03 479.921 352.061 480.408L352.092 480.774C352.098 480.896 352.097 481.02 352.099 481.143L352.104 481.885C352.11 482.132 352.085 482.38 352.067 482.629L352.005 483.372C351.978 483.62 351.93 483.867 351.891 484.112C351.852 484.356 351.814 484.607 351.749 484.848L351.564 485.574L351.469 485.937C351.435 486.058 351.389 486.173 351.35 486.293C350.721 488.158 349.757 489.893 348.505 491.412C347.3 492.868 345.89 494.143 344.321 495.196C342.812 496.216 341.198 497.073 339.507 497.751C337.856 498.416 336.152 498.94 334.413 499.318C332.698 499.683 330.958 499.924 329.208 500.038L328.555 500.082C328.336 500.096 328.119 500.096 327.901 500.105L327.25 500.122C327.03 500.129 326.814 500.133 326.596 500.127L325.293 500.11L323.991 500.04C322.264 499.923 320.546 499.705 318.845 499.386C318.083 499.243 317.409 498.803 316.972 498.163C316.534 497.524 316.369 496.736 316.511 495.974C316.654 495.213 317.094 494.539 317.734 494.101C318.374 493.663 319.161 493.498 319.923 493.641L319.947 493.639Z" fill="#522323"/>
<path d="M323.3 450.5C322.933 450.602 322.561 450.683 322.184 450.741C321.815 450.803 321.445 450.842 321.076 450.878C320.336 450.94 319.594 450.961 318.852 450.943C318.11 450.927 317.369 450.874 316.628 450.792C316.256 450.751 315.885 450.698 315.515 450.645C315.144 450.592 314.773 450.54 314.402 450.477C312.91 450.235 311.431 449.918 309.971 449.527C309.235 449.322 308.504 449.111 307.775 448.853C307.039 448.603 306.317 448.314 305.612 447.986C305.531 447.947 305.464 447.884 305.418 447.807C305.372 447.729 305.35 447.64 305.355 447.55C305.359 447.46 305.391 447.374 305.444 447.302C305.498 447.229 305.571 447.174 305.656 447.144L305.667 447.146C306.41 446.897 307.141 446.704 307.871 446.507C308.601 446.31 309.325 446.138 310.046 445.973C311.492 445.635 312.927 445.34 314.362 445.081L314.892 444.979L315.43 444.888C315.782 444.827 316.145 444.762 316.502 444.707C317.219 444.599 317.934 444.508 318.651 444.442C319.368 444.377 320.084 444.35 320.8 444.356C321.519 444.353 322.236 444.411 322.944 444.529L323.008 444.541C323.687 444.668 324.302 445.021 324.756 445.542C325.209 446.063 325.473 446.722 325.506 447.411C325.538 448.101 325.337 448.782 324.935 449.343C324.533 449.904 323.953 450.313 323.289 450.504L323.3 450.5Z" fill="#522323"/>
<path d="M150.099 408.059C150.173 408.087 150.245 408.122 150.312 408.165C150.386 408.21 150.477 408.26 150.556 408.311C150.707 408.406 150.886 408.514 151.05 408.621C151.381 408.831 151.707 409.059 152.038 409.283L153.019 409.982L153.994 410.703L154.962 411.447L155.929 412.21C156.252 412.463 156.565 412.739 156.894 412.99C157.223 413.241 157.545 413.504 157.869 413.771C158.532 414.273 159.18 414.811 159.854 415.321C160.188 415.578 160.522 415.84 160.855 416.106C161.196 416.359 161.533 416.622 161.872 416.885C162.042 417.014 162.21 417.151 162.379 417.285L162.894 417.677C163.236 417.939 163.579 418.206 163.929 418.483L164.185 418.689L164.446 418.887L164.966 419.296C165.31 419.572 165.657 419.856 165.991 420.152L166.004 420.155C166.075 420.216 166.125 420.298 166.147 420.39C166.169 420.481 166.161 420.577 166.126 420.664C166.09 420.752 166.028 420.825 165.948 420.875C165.869 420.925 165.775 420.949 165.681 420.943C164.776 420.882 163.874 420.787 162.986 420.643C162.546 420.568 162.104 420.487 161.659 420.398C161.214 420.312 160.776 420.214 160.341 420.104C159.906 419.995 159.468 419.885 159.034 419.767C158.599 419.649 158.172 419.508 157.749 419.374L157.108 419.168L156.472 418.94C156.047 418.79 155.624 418.632 155.203 418.467C154.365 418.135 153.533 417.775 152.716 417.382C152.306 417.19 151.902 416.982 151.506 416.761C151.108 416.542 150.714 416.318 150.329 416.074C149.945 415.829 149.573 415.588 149.191 415.317C149.007 415.181 148.821 415.051 148.639 414.912L148.097 414.483C147.921 414.338 147.742 414.189 147.569 414.04C147.395 413.891 147.224 413.732 147.056 413.563C146.887 413.395 146.719 413.235 146.555 413.053C146.471 412.962 146.394 412.878 146.309 412.78L146.031 412.457C145.654 412.013 145.422 411.463 145.368 410.882C145.314 410.302 145.44 409.718 145.729 409.212C146.018 408.706 146.457 408.3 146.984 408.052C147.511 407.803 148.103 407.723 148.677 407.822L150.099 408.059Z" fill="#522323"/>
<path d="M163.415 336.846L163.529 336.838L163.613 336.833C163.67 336.829 163.723 336.827 163.771 336.827C163.872 336.824 163.975 336.82 164.068 336.821C164.26 336.819 164.449 336.82 164.635 336.825C165.007 336.833 165.371 336.851 165.729 336.877C166.45 336.929 167.159 337.002 167.86 337.108C169.251 337.311 170.625 337.613 171.973 338.01C173.306 338.403 174.61 338.886 175.876 339.457C177.127 340.028 178.336 340.688 179.492 341.433C179.774 341.624 180.065 341.799 180.341 342L181.168 342.599C181.438 342.803 181.699 343.021 181.964 343.231L182.357 343.548L182.736 343.885C183.742 344.767 184.683 345.721 185.55 346.741C187.238 348.747 188.668 350.956 189.809 353.316C188.277 351.269 186.496 349.421 184.508 347.813C183.53 347.035 182.497 346.33 181.417 345.702L181.017 345.466L180.608 345.25C180.333 345.108 180.065 344.959 179.787 344.826L178.951 344.44C178.675 344.31 178.386 344.205 178.106 344.087C176.979 343.639 175.822 343.272 174.643 342.989C173.476 342.716 172.292 342.524 171.098 342.415C169.922 342.306 168.739 342.28 167.558 342.338C166.975 342.363 166.396 342.42 165.828 342.488C165.546 342.524 165.266 342.565 164.995 342.613C164.859 342.638 164.726 342.663 164.599 342.69C164.532 342.702 164.476 342.719 164.421 342.732L164.34 342.754L164.304 342.764C164.289 342.761 164.304 342.764 164.304 342.764C163.906 343.073 163.44 343.286 162.946 343.384C162.451 343.483 161.94 343.464 161.453 343.331C160.967 343.198 160.518 342.953 160.143 342.615C159.767 342.278 159.476 341.858 159.291 341.389C159.106 340.919 159.033 340.413 159.078 339.911C159.123 339.408 159.285 338.923 159.55 338.494C159.815 338.065 160.176 337.703 160.606 337.438C161.035 337.173 161.52 337.012 162.023 336.967L163.415 336.846Z" fill="#522323"/>
<path opacity="0.2" d="M294.354 489.976C289.314 487.775 284.719 484.67 280.796 480.816C273.889 474.047 270.914 464.234 272.749 454.74L274.63 445.006C274.63 445.006 274.108 444.798 273.141 444.429C265.733 441.636 227.029 428.679 201.357 431.507C201.011 431.539 200.681 431.583 200.344 431.625L198.156 442.946C196.752 450.213 191.494 460.029 184.733 463.064C176.155 466.91 167.956 467.406 148.067 463.562C110.279 456.259 108.476 433.487 110.544 427.012C111.535 423.888 113.411 420.492 116.343 418.019C127.86 438.514 144.205 444.813 162.1 449.689C179.995 454.564 199.701 434.96 182.118 427.791C164.826 420.729 144.438 406.134 143.802 405.676C143.801 405.673 143.799 405.671 143.797 405.669C143.794 405.667 143.792 405.665 143.789 405.665C143.784 405.665 143.779 405.664 143.774 405.662C139.649 399.917 134.668 388.536 139.219 369.843C141.245 361.529 144.139 355.511 147.227 351.162C140.259 396.682 172.815 406.99 190.607 411.16C208.399 415.33 218.73 393.815 281.306 419.873C343.883 445.93 364.576 368.485 364.576 368.485C366.005 374.294 366.834 380.3 366.802 386.377C366.635 417.166 354.006 435.556 337.39 443.404C337.376 443.401 337.365 443.415 337.349 443.418C315.298 448.944 293.497 444.264 287.656 444.081C281.815 443.898 272.757 465.842 304.053 477.119C335.348 488.397 363.417 472.16 363.417 472.16L363.425 472.162C363.75 473.744 363.939 475.351 363.99 476.966C365.132 506.59 312.426 497.88 294.354 489.976Z" fill="#522323"/>
<path opacity="0.2" d="M237.673 302.385C237.673 302.385 230.774 331.569 200.297 312.395C200.297 312.395 191.312 334.117 164.006 334.716C163.913 334.722 163.835 334.721 163.738 334.717L163.191 311.755C163.191 311.755 136.341 308.319 116.951 296.286C110.991 292.583 105.734 288.073 102.189 282.602C98.854 277.46 98.0755 272.203 99.1062 267.038C99.1062 267.038 129.691 277.385 154.503 246.366C154.503 246.366 182.664 258.759 170.849 239.877C170.849 239.877 216.741 225.835 198.432 213.851C196.496 212.586 196.15 211.573 197.083 210.771C198.494 209.541 202.879 208.819 209.124 208.456C237.455 206.798 304.006 212.525 304.006 212.525C304.006 212.525 309.29 280.68 237.673 302.385Z" fill="#522323"/>
<path d="M284.886 259.358C271.632 273.907 252.322 285.327 229.61 292.66C227.414 293.37 225.222 294.028 223.031 294.636C173.481 308.443 126.939 296.428 112.107 250.491C104.955 228.339 106.429 202.177 115.211 178.784C125.435 151.523 145.571 128.022 173.528 118.99C206.603 108.317 242.64 120.465 268.467 143.078C283.212 155.988 294.624 172.31 300.255 189.739C308.979 216.729 301.957 240.637 284.886 259.358Z" fill="#FFCC93"/>
<path opacity="0.2" d="M302.714 215.02C293.582 242.171 263.563 268.176 228.579 279.471C211.917 284.852 195.77 286.856 181.008 285.522C113.638 276.284 115.198 179.52 115.21 178.786C112.833 185.126 110.993 191.655 109.708 198.303C109.819 195.057 110.067 191.802 110.454 188.538C104.994 208.872 104.89 230.422 110.925 249.115C114.258 259.435 119.194 268.039 125.401 275.026C146.644 300.327 183.897 305.535 223.032 294.631C222.093 294.323 221.131 294.022 220.155 293.721C222.904 292.987 225.661 292.175 228.425 291.286C270.332 277.762 300.668 250.303 302.714 215.02Z" fill="#522323"/>
<path opacity="0.6" d="M174.642 127.557C239.684 111.739 283.448 158.126 298.938 206.089C301.98 215.521 303.099 224.56 302.553 233.151C306.851 220.082 307.042 205.6 302.03 190.094C286.544 142.134 227.257 102.559 175.299 119.336C138.203 131.311 114.887 168.775 110.204 206.679C118.662 174.677 142.128 135.465 174.642 127.557Z" fill="white"/>
<path d="M234.607 282.453C232.339 283.715 229.914 284.143 227.508 284.059L227.507 284.067C218.92 283.78 210.606 276.877 210.606 276.877C210.606 276.877 208.875 288.238 201.636 292.698C199.219 294.189 196.183 294.908 192.394 294.176C185.812 292.904 182.974 289.58 181.84 286.299C181.801 286.197 181.769 286.093 181.742 285.987C178.704 275.506 189.521 263.168 205.907 258.422C219.377 254.521 232.415 256.973 238.314 263.793C239.147 264.751 239.841 265.822 240.376 266.974C242.116 271.324 242.02 278.373 234.607 282.453Z" fill="white"/>
<path d="M166.136 301.214C162.801 300.573 159.506 299.738 156.268 298.715C133.129 291.373 116.87 275.02 109.251 251.42C105.37 239.398 103.856 225.714 104.874 211.858C105.922 198.065 109.269 184.544 114.778 171.855C120.523 158.666 128.241 147.192 137.716 137.751C147.911 127.596 159.65 120.326 172.604 116.141C185.559 111.957 199.334 110.993 213.542 113.27C226.751 115.386 239.72 120.182 252.094 127.525C263.982 134.596 274.603 143.605 283.52 154.179C292.45 164.828 299.217 176.809 303.103 188.832C310.724 212.432 307.098 235.206 292.621 254.691C285.955 263.663 277.122 271.767 266.367 278.766C255.901 285.587 243.84 291.218 230.516 295.52C217.191 299.821 204.111 302.304 191.637 302.894C182.651 303.312 174.11 302.755 166.136 301.214ZM215.65 119.632C202.119 117.017 188.088 117.433 174.444 121.84C150.921 129.434 131.678 148.046 120.262 174.245C109.602 198.719 107.615 226.876 114.943 249.588C123.045 274.681 142.026 290.449 167.682 295.41C185.316 298.818 206.1 297.118 228.676 289.83C254.449 281.509 275.45 267.763 287.811 251.127C301.085 233.261 304.402 212.359 297.402 190.678C286.63 157.283 253.068 126.857 215.651 119.626L215.65 119.632Z" fill="#522323"/>
<path d="M221.778 305.185C213.624 306.795 201.638 292.108 201.638 292.108C208.993 287.576 210.751 276.033 210.751 276.033C210.751 276.033 219.197 283.047 227.921 283.339C227.973 283.861 229.821 303.6 221.778 305.185Z" fill="white"/>
<path d="M197.484 266.928C196.969 262.457 214.73 258.829 216.762 261.834C218.794 264.84 215.648 274.359 210.752 276.025C205.856 277.691 198.218 273.276 197.484 266.928Z" fill="#522323"/>
<path d="M201.348 268.472C201.672 269.647 204.777 269.815 208.286 268.851C211.794 267.886 214.375 266.146 214.05 264.969C213.725 263.792 210.62 263.626 207.112 264.593C203.603 265.559 201.022 267.295 201.348 268.472Z" fill="white"/>
<path d="M206.172 279.147C204.358 278.782 202.627 278.083 201.068 277.086C197.35 274.734 194.961 271.16 194.512 267.275C194.269 265.163 195.295 262.153 201.563 259.837C204.594 258.745 207.757 258.063 210.969 257.811C215.264 257.502 217.973 258.272 219.252 260.164C221.305 263.199 220.086 267.819 219.457 269.662C217.898 274.305 215.004 277.743 211.726 278.863C210.028 279.438 208.115 279.523 206.172 279.147ZM200.535 267.063C200.922 268.946 202.286 270.773 204.268 272.025C206.173 273.23 208.339 273.689 209.789 273.196C211.04 272.769 212.516 270.93 213.461 268.617C214.343 266.456 214.482 264.666 214.362 263.859L214.349 263.856C213.288 263.651 210.678 263.638 207.161 264.43C203.348 265.281 201.209 266.465 200.535 267.063Z" fill="#522323"/>
<path d="M182.249 277.803C182.272 277.83 182.291 277.861 182.306 277.894L182.355 277.994C182.387 278.063 182.422 278.131 182.45 278.196C182.512 278.333 182.568 278.463 182.619 278.594C182.729 278.855 182.821 279.109 182.914 279.357C183.093 279.851 183.248 280.321 183.386 280.771C183.42 280.884 183.455 280.996 183.491 281.108C183.527 281.221 183.558 281.327 183.587 281.436C183.642 281.653 183.709 281.865 183.758 282.075C183.781 282.18 183.813 282.283 183.838 282.385L183.913 282.693C183.976 282.893 184.029 283.092 184.083 283.289C184.117 283.386 184.151 283.481 184.179 283.578L184.222 283.723C184.236 283.774 184.252 283.824 184.271 283.873C184.312 283.981 184.348 284.092 184.378 284.2L184.432 284.363L184.457 284.442L184.471 284.468C184.479 284.486 184.485 284.504 184.491 284.523L184.498 284.541L184.513 284.578L184.543 284.65C184.581 284.746 184.623 284.836 184.657 284.941C184.691 285.046 184.735 285.118 184.775 285.209C184.815 285.3 184.847 285.384 184.885 285.47C184.973 285.635 185.043 285.812 185.127 285.974C185.173 286.055 185.216 286.138 185.26 286.221L185.324 286.347L185.4 286.466C185.502 286.623 185.59 286.792 185.708 286.94C185.815 287.098 185.93 287.25 186.054 287.395C186.564 288.01 187.174 288.534 187.86 288.945C188.6 289.387 189.385 289.749 190.202 290.027C191.067 290.326 191.953 290.562 192.852 290.733C193.696 290.897 194.555 290.973 195.415 290.961C196.632 290.953 197.835 290.697 198.952 290.211C199.321 290.05 199.679 289.865 200.023 289.656C201.417 288.817 202.659 287.575 203.706 286.09C204.777 284.539 205.652 282.861 206.311 281.095C206.655 280.193 206.967 279.27 207.23 278.331C207.363 277.864 207.484 277.392 207.592 276.922C207.648 276.686 207.698 276.452 207.747 276.22L207.813 275.877L207.87 275.582L207.873 275.564C207.94 275.181 208.082 274.816 208.29 274.488C208.499 274.16 208.77 273.876 209.088 273.653C209.406 273.43 209.765 273.273 210.144 273.189C210.524 273.105 210.916 273.097 211.298 273.165C211.784 273.251 212.241 273.457 212.629 273.762L212.801 273.901L213.008 274.061L213.437 274.384C213.735 274.602 214.025 274.812 214.334 275.022C214.934 275.438 215.549 275.841 216.18 276.229C217.421 276.993 218.708 277.682 220.034 278.29C221.325 278.886 222.663 279.376 224.033 279.757C224.696 279.938 225.367 280.086 226.045 280.199C226.702 280.302 227.365 280.369 228.03 280.399L225.062 282.764C225.195 282.081 225.567 281.468 226.111 281.034C226.655 280.601 227.336 280.376 228.032 280.399C229.037 280.44 230.044 280.355 231.029 280.145C231.974 279.942 232.885 279.602 233.732 279.137C234.619 278.651 235.445 278.062 236.192 277.382C236.54 277.053 236.865 276.701 237.165 276.329C237.453 275.961 237.713 275.573 237.944 275.168C238.394 274.353 238.707 273.47 238.871 272.554C238.956 272.086 239.005 271.612 239.017 271.137C239.022 270.652 238.966 270.168 238.85 269.697C238.742 269.224 238.588 268.764 238.468 268.302C238.342 267.835 238.241 267.361 238.164 266.883C238.074 266.382 238.037 265.874 238.054 265.366C238.057 265.095 238.079 264.805 238.106 264.49L238.153 263.989C238.17 263.904 238.169 263.802 238.189 263.725L238.216 263.588L238.227 263.432L238.256 263.061C238.28 262.761 238.409 262.478 238.62 262.263C238.832 262.048 239.113 261.915 239.414 261.887C239.478 261.881 239.542 261.878 239.607 261.88C239.673 261.893 239.743 261.889 239.809 261.899C239.949 261.926 240.059 261.935 240.184 261.958C240.309 261.98 240.418 262.003 240.534 262.039C240.65 262.075 240.757 262.108 240.865 262.149C241.279 262.305 241.671 262.517 242.029 262.779C242.69 263.259 243.243 263.872 243.652 264.579C244.053 265.241 244.353 265.958 244.544 266.707C244.726 267.455 244.831 268.219 244.857 268.987C244.889 269.756 244.888 270.524 244.863 271.288C244.839 272.062 244.758 272.832 244.621 273.594C244.342 275.14 243.812 276.63 243.051 278.005C242.666 278.687 242.23 279.339 241.746 279.954C241.263 280.555 240.74 281.122 240.178 281.65C239.08 282.657 237.866 283.528 236.56 284.245C235.218 284.987 233.775 285.53 232.277 285.856C230.817 286.17 229.322 286.299 227.83 286.242L230.799 283.875L230.792 283.911C230.663 284.593 230.293 285.206 229.749 285.638C229.205 286.069 228.523 286.29 227.829 286.26C226.916 286.224 226.006 286.133 225.104 285.989C224.225 285.844 223.353 285.653 222.493 285.418C220.819 284.952 219.186 284.352 217.608 283.623C216.064 282.916 214.565 282.115 213.119 281.225C212.399 280.783 211.691 280.322 210.996 279.842C210.649 279.604 210.304 279.356 209.961 279.101C209.788 278.974 209.617 278.844 209.444 278.71L209.182 278.508L208.886 278.281L213.641 276.478L213.591 276.739L213.462 277.405C213.407 277.692 213.342 277.977 213.275 278.258C213.144 278.823 213.001 279.379 212.845 279.932C212.533 281.04 212.169 282.132 211.753 283.213C210.921 285.43 209.817 287.535 208.467 289.48C207.755 290.494 206.952 291.442 206.069 292.311C205.149 293.215 204.128 294.01 203.026 294.679C202.461 295.02 201.876 295.323 201.272 295.587C199.456 296.374 197.502 296.794 195.522 296.821C194.257 296.84 192.993 296.729 191.751 296.49C190.563 296.265 189.393 295.953 188.251 295.555C187.053 295.145 185.903 294.609 184.817 293.958C183.679 293.273 182.621 292.462 181.665 291.539C180.678 290.583 179.85 289.475 179.212 288.258C179.065 287.954 178.914 287.636 178.794 287.327C178.734 287.178 178.682 287.025 178.624 286.874L178.584 286.759L178.562 286.702L178.552 286.675L178.54 286.635C178.506 286.526 178.471 286.419 178.433 286.308L178.386 286.144L178.359 286.03L178.306 285.811C178.27 285.664 178.235 285.518 178.204 285.371C178.188 285.302 178.174 285.219 178.161 285.136L178.121 284.891C178.094 284.727 178.073 284.563 178.046 284.4C178.014 284.072 177.987 283.747 177.973 283.421C177.96 283.096 177.959 282.774 177.99 282.455C178.009 282.136 178.045 281.818 178.099 281.503C178.131 281.339 178.16 281.19 178.19 281.034C178.22 280.879 178.27 280.727 178.313 280.573C178.49 279.958 178.744 279.368 179.069 278.816C179.152 278.678 179.235 278.539 179.331 278.406C179.379 278.339 179.423 278.271 179.473 278.205L179.627 278.009C179.732 277.876 179.844 277.749 179.962 277.628C180.086 277.499 180.207 277.391 180.359 277.247C180.455 277.157 180.568 277.087 180.692 277.041C180.815 276.994 180.946 276.973 181.078 276.977C181.21 276.982 181.339 277.012 181.459 277.066C181.579 277.121 181.687 277.199 181.777 277.295L181.794 277.314L182.249 277.803Z" fill="#522323"/>
<path d="M218.323 308.088C214.88 307.422 210.986 305.224 206.697 301.515C204.048 299.204 201.583 296.691 199.324 293.998C199.054 293.667 198.857 293.282 198.748 292.869C198.638 292.456 198.618 292.025 198.69 291.603C198.761 291.182 198.921 290.781 199.16 290.427C199.399 290.073 199.711 289.774 200.075 289.55C205.141 286.43 207.368 278.404 207.799 275.575C207.879 275.051 208.096 274.557 208.429 274.145C208.763 273.733 209.199 273.416 209.695 273.228C210.19 273.039 210.727 272.986 211.25 273.072C211.773 273.159 212.263 273.384 212.671 273.722C212.744 273.784 220.456 280.085 228.029 280.339C228.756 280.363 229.449 280.651 229.978 281.149C230.508 281.647 230.838 282.321 230.908 283.045C230.967 283.618 231.425 288.782 230.869 294.167C230.524 297.502 229.849 300.28 228.865 302.423C227.02 306.435 224.312 307.735 222.364 308.12C221.028 308.372 219.655 308.361 218.323 308.088ZM205.979 292.496C207.459 294.093 209.023 295.608 210.665 297.037C215.039 300.807 218.88 302.706 221.197 302.251C222.991 301.897 224.378 298.648 224.904 293.556C225.141 291.064 225.203 288.557 225.092 286.056C220.165 285.255 215.629 282.904 212.603 281.001C211.534 284.429 209.526 289.104 205.979 292.496Z" fill="#522323"/>
<path d="M213.516 274.89L218.879 295.74L207.982 277.172C207.577 276.481 207.462 275.657 207.664 274.881C207.867 274.105 208.369 273.441 209.06 273.036C209.751 272.63 210.576 272.516 211.351 272.718C212.127 272.92 212.791 273.422 213.197 274.113C213.338 274.356 213.445 274.618 213.516 274.89Z" fill="#522323"/>
<path d="M225.213 239.299C225.973 239.068 226.705 238.866 227.426 238.671C228.148 238.475 228.861 238.286 229.554 238.097C230.951 237.726 232.308 237.36 233.627 236.983C236.263 236.223 238.753 235.41 241.039 234.365C243.312 233.353 245.425 232.014 247.313 230.392C247.788 229.973 248.255 229.528 248.724 229.059C249.192 228.59 249.641 228.086 250.091 227.556C250.54 227.025 250.981 226.469 251.434 225.885C251.887 225.301 252.318 224.685 252.809 224.053C252.962 224.83 253.03 225.621 253.011 226.413C253 227.211 252.915 228.006 252.757 228.789C252.596 229.585 252.367 230.366 252.075 231.123C251.771 231.893 251.405 232.636 250.979 233.346C250.543 234.061 250.052 234.741 249.509 235.378C248.961 236.015 248.364 236.609 247.724 237.154C246.452 238.232 245.035 239.127 243.516 239.812C242.034 240.48 240.479 240.97 238.883 241.271C237.328 241.566 235.746 241.692 234.165 241.647C232.608 241.606 231.06 241.398 229.548 241.025C228.793 240.839 228.051 240.606 227.326 240.327C226.59 240.054 225.882 239.71 225.213 239.299Z" fill="#522323"/>
<path d="M153.33 266.719C154.092 266.489 154.822 266.287 155.545 266.093C156.268 265.899 156.98 265.707 157.673 265.518C159.07 265.148 160.427 264.781 161.746 264.405C164.382 263.644 166.872 262.833 169.158 261.788C171.43 260.775 173.543 259.436 175.43 257.814C175.905 257.395 176.374 256.949 176.842 256.481C177.31 256.014 177.76 255.509 178.208 254.978C178.656 254.447 179.106 253.893 179.552 253.305C179.997 252.718 180.435 252.107 180.926 251.475C181.08 252.252 181.148 253.043 181.127 253.834C181.117 254.632 181.033 255.427 180.875 256.209C180.713 257.006 180.485 257.787 180.192 258.545C179.888 259.315 179.521 260.058 179.096 260.768C178.661 261.482 178.169 262.161 177.627 262.799C177.078 263.436 176.481 264.029 175.841 264.574C174.569 265.653 173.152 266.548 171.631 267.232C170.151 267.902 168.597 268.391 167 268.691C165.446 268.986 163.864 269.113 162.282 269.069C160.725 269.027 159.178 268.818 157.666 268.445C156.911 268.26 156.168 268.028 155.443 267.749C154.706 267.476 153.999 267.131 153.33 266.719Z" fill="#522323"/>
<path d="M248.321 141.273L236.915 139.919L216.852 137.521L208.538 136.531C206.648 126.442 202.762 117.321 197.724 109.161C183.888 86.6999 161.396 71.4688 148.068 62.9855C132.879 53.3143 116.61 35.5439 126.249 18.6357C127.201 16.9714 128.322 15.4102 129.596 13.9773C145.629 -4.25148 185.637 4.68524 215.706 43.8346C246.81 84.3355 248.802 124.193 248.542 137.015C248.484 139.763 248.321 141.273 248.321 141.273Z" fill="#FFCC93"/>
<path opacity="0.6" d="M248.54 137.013C246.416 127.693 233.668 75.3913 209.224 47.5108C194.849 31.1133 178.162 19.8089 162.521 15.0782C162.527 15.2467 162.512 15.4151 162.479 15.5803C161.862 18.7694 155.232 20.1788 147.665 18.7163C142.844 17.7846 138.809 15.9143 136.677 13.8474C132.95 14.8226 129.423 16.4436 126.256 18.6368C127.207 16.9724 128.328 15.4112 129.602 13.9784C131.391 11.9458 133.506 10.2243 135.859 8.88422C137.147 8.13474 138.494 7.49285 139.887 6.96507C139.887 6.96507 139.887 6.96506 139.902 6.96792C159.169 -0.246701 190.837 11.468 215.699 43.8416C246.808 84.3366 248.8 124.194 248.54 137.013Z" fill="white"/>
<path d="M207.966 139.47C207.377 139.356 206.835 139.067 206.411 138.641C205.987 138.215 205.702 137.671 205.591 137.081C199.119 102.55 168.742 79.697 146.455 65.5107C142.018 62.6887 135.572 57.9643 130.044 51.5483C124.669 45.3013 121.495 38.9813 120.61 32.7635C119.546 25.2865 121.817 18.2993 127.359 11.9953C130.425 8.50566 134.291 5.87324 138.851 4.16582C143.252 2.51773 148.199 1.77137 153.552 1.94861C163.693 2.28416 174.827 5.91762 185.747 12.454C197.404 19.432 208.583 29.6549 218.077 42.0186C226.749 53.268 233.947 65.5801 239.495 78.6555C243.823 88.8824 247.05 99.5413 249.12 110.452C252.593 128.884 251.349 141.085 251.294 141.595C251.21 142.385 250.815 143.108 250.197 143.606C249.578 144.104 248.788 144.336 247.998 144.251C247.209 144.166 246.486 143.772 245.988 143.153C245.49 142.535 245.258 141.745 245.343 140.955C245.36 140.777 246.536 128.892 243.192 111.311C240.104 95.0781 232.417 70.511 213.331 45.6579C195.956 23.0336 172.973 8.57501 153.356 7.92517C144.167 7.62047 136.732 10.3933 131.855 15.9413C127.521 20.873 125.732 26.2458 126.539 31.9125C128.134 43.1168 139.534 54.0015 149.67 60.4545C159.733 66.8592 172.797 75.7556 184.589 87.7844C199.242 102.739 208.289 118.948 211.478 135.965C211.567 136.444 211.538 136.939 211.393 137.405C211.248 137.87 210.992 138.294 210.646 138.638C210.3 138.982 209.876 139.237 209.409 139.38C208.943 139.522 208.448 139.549 207.969 139.457L207.966 139.47Z" fill="#522323"/>
<path d="M153.086 34.43C159.649 23.0455 195.399 34.7668 221.062 85.7856C238.37 120.188 237.266 140.115 230.051 140.685C217.82 141.643 222.913 116.767 198.505 85.8773C178.45 60.4949 145.713 47.2127 153.086 34.43Z" fill="#522323"/>
<path d="M159.562 150.5L151.04 158.708L139.193 170.115L130.062 178.907C127.62 173.876 124.842 169.015 121.747 164.357C121.588 164.114 121.423 163.861 121.251 163.613C121.251 163.613 121.236 163.611 121.239 163.596C120.689 162.773 120.131 161.956 119.568 161.155C105.744 141.425 89.7235 128.999 89.7235 128.999C89.7132 132.168 89.0988 136.57 87.7566 141.226C84.7504 151.658 78.1002 163.353 66.5542 165.193C49.8826 167.848 27.8801 152.321 27.4165 109.116C27.3399 102.182 28.3109 96.0571 30.1525 90.7882C30.2749 90.4308 30.4043 90.0748 30.5409 89.7202C35.0695 77.7298 44.2097 70.3047 55.6777 67.7586C62.8994 66.1591 71.044 66.4899 79.5462 68.8339C87.514 71.0304 95.8033 74.9865 103.94 80.7893C113.641 87.7023 122.231 96.1544 129.605 104.759C137.669 114.176 144.251 123.779 149.169 131.734C152.828 137.646 155.564 142.65 157.298 145.995C158.799 148.852 159.562 150.5 159.562 150.5Z" fill="#FFCC93"/>
<path opacity="0.6" d="M75.6136 74.6771C75.6368 77.1972 69.6877 79.3148 62.3192 79.3858C55.7647 79.461 50.305 77.9023 49.1502 75.7894C41.7364 78.8146 35.5725 83.9268 30.5502 89.724C40.6127 63.0936 73.356 58.9972 103.951 80.7934C124.268 95.2778 139.775 116.514 149.18 131.738C152.827 137.632 155.561 142.62 157.292 145.966C155.93 144.063 113.331 85.0694 75.5954 74.4983C75.6074 74.5572 75.6135 74.617 75.6136 74.6771Z" fill="white"/>
<path opacity="0.2" d="M142.187 169.299C141.209 169.632 140.211 169.904 139.2 170.117C130.345 171.933 124.671 167.53 121.809 164.271C121.61 164.042 121.423 163.822 121.256 163.614C121.256 163.614 121.241 163.611 121.244 163.597C120.614 162.836 120.054 162.019 119.572 161.156C105.749 141.426 89.7281 129 89.7281 129C89.6998 139.285 83.2468 162.534 66.5592 165.192C49.8715 167.851 27.885 152.321 27.4215 109.115C27.3448 102.181 28.3159 96.0564 30.1575 90.7875C30.1575 90.7875 29.0693 127.131 50.3745 126.57C71.6797 126.008 72.4751 85.7673 72.4751 85.7673C107.587 86.8114 134.8 123.917 143.014 136.861C144.057 138.504 144.794 139.757 145.203 140.492C147.377 144.435 151.468 152.079 151.049 158.718C150.756 163.165 148.45 167.168 142.187 169.299Z" fill="#522323"/>
<path d="M141.845 162.273C134.332 167.353 117.171 128.96 89.1214 114.728C88.5405 108.115 87.3946 100.394 85.1562 94.3125C85.1562 94.3125 100.38 100.441 121.877 122.317C139.519 140.253 149.362 157.193 141.845 162.273Z" fill="#522323"/>
<path d="M57.7011 167.972C56.7916 167.796 55.8814 167.574 54.9705 167.306C50.7659 166.065 46.8046 163.891 43.1955 160.845C37.5948 156.117 33.1387 149.568 29.9484 141.381C26.4262 132.323 24.5641 121.479 24.4312 109.15C24.3263 99.423 26.1727 90.8995 29.9205 83.8201C33.5243 77.0105 38.707 71.8004 45.35 68.3371C53.4092 64.1287 63.2118 62.7984 73.6972 64.4915C84.2986 66.2004 95.3567 70.9944 105.683 78.3514C113.828 84.1558 121.875 91.5027 129.599 100.187C135.746 107.102 141.726 114.886 147.333 123.313C156.892 137.658 162.06 148.781 162.276 149.243C162.591 149.961 162.612 150.774 162.334 151.507C162.055 152.24 161.501 152.835 160.789 153.164C160.077 153.492 159.265 153.529 158.526 153.265C157.788 153.001 157.182 152.458 156.84 151.752C156.773 151.607 151.595 140.492 142.29 126.539C133.737 113.715 119.84 95.792 102.208 83.2265C83.311 69.7617 62.5876 66.0897 48.1208 73.6437C36.5218 79.7007 30.2298 92.2874 30.4175 109.084C30.6509 130.653 36.5598 147.409 47.0565 156.269C52.8371 161.148 59.5984 163.268 66.0933 162.234C74.0256 160.971 78.9648 154.134 81.7127 148.62C85.1642 141.692 86.721 133.769 86.7346 128.991C86.7359 128.431 86.894 127.883 87.191 127.409C87.488 126.935 87.9119 126.554 88.4147 126.308C88.9175 126.063 89.479 125.963 90.0355 126.021C90.592 126.079 91.1212 126.291 91.563 126.634C91.8353 126.845 98.3373 131.917 106.696 140.743C114.407 148.888 125.187 161.895 132.762 177.608C132.933 177.962 133.032 178.346 133.054 178.739C133.076 179.131 133.021 179.524 132.891 179.895C132.762 180.266 132.56 180.608 132.298 180.901C132.037 181.194 131.72 181.433 131.366 181.604C131.012 181.774 130.627 181.874 130.235 181.896C129.842 181.918 129.449 181.863 129.078 181.733C128.707 181.603 128.365 181.402 128.072 181.14C127.779 180.878 127.54 180.561 127.37 180.207C116.955 158.609 100.083 142.028 92.2049 135.018C91.4629 139.807 89.8771 145.672 87.0765 151.291C82.2384 161.002 75.3101 166.83 67.0408 168.148C63.9413 168.636 60.7801 168.577 57.7011 167.972Z" fill="#522323"/>
<path d="M139.228 165.622C136.499 165.094 134.144 162.886 133.146 161.949C130.266 159.248 126.949 155.139 123.109 150.393C115.354 140.796 105.047 128.042 92.5209 120.097C92.7802 125.127 92.7305 128.693 92.723 129.048C92.6914 129.83 92.3553 130.568 91.7866 131.105C91.218 131.641 90.4619 131.934 89.68 131.921C88.8981 131.908 88.1524 131.589 87.6025 131.033C87.0525 130.477 86.7418 129.728 86.7369 128.946C86.7415 128.738 87.0318 108.015 82.3578 95.3419C82.1582 94.798 82.1208 94.2079 82.25 93.6432C82.3793 93.0785 82.6696 92.5634 83.0859 92.1605C83.5022 91.7576 84.0264 91.4842 84.5951 91.3734C85.1637 91.2626 85.7523 91.3193 86.2893 91.5365C86.9349 91.7957 102.348 98.151 124.032 120.218C131.246 127.566 137.189 134.763 141.216 141.044C145.714 148.06 147.774 153.825 147.339 158.178C147.056 160.988 145.741 163.261 143.533 164.756C142.912 165.186 142.21 165.485 141.47 165.634C140.73 165.783 139.967 165.778 139.228 165.622ZM91.9741 112.832C107.093 121.047 119.005 135.781 127.767 146.624C130.984 150.607 133.763 154.046 136.134 156.484C138.767 159.204 139.957 159.641 140.273 159.714C140.739 159.376 141.253 158.813 141.378 157.569C141.845 152.896 136.464 141.404 119.757 124.401C106.851 111.268 96.2138 103.912 89.9977 100.22C90.949 104.389 91.5679 108.773 91.9741 112.832Z" fill="#522323"/>
<path opacity="0.2" d="M236.613 142.249C236.613 142.249 224.632 158.473 217.109 138.188C217.029 137.967 216.943 137.744 216.849 137.52C213.782 129.764 206.425 119.333 197.713 109.159C183.876 86.698 161.385 71.4668 148.056 62.9836C132.874 53.3205 116.605 35.5501 126.245 18.6419C126.442 19.1273 132.588 34.2678 157.008 25.9108C160.699 24.6593 164.635 24.3008 168.492 24.8648C172.349 25.4287 176.018 26.899 179.197 29.155C200.839 44.4516 243.591 82.397 236.901 139.928C236.823 140.695 236.718 141.468 236.613 142.249Z" fill="#522323"/>
<path d="M181.838 246.914C182.525 246.877 195.212 246.177 190.404 254.569C185.467 263.196 161.011 257.92 161.011 257.92C160.947 258.021 160.888 258.124 160.823 258.223C146.564 281.008 125.334 285.328 125.334 285.328L116.942 296.293C110.981 292.589 105.724 288.08 102.179 282.608C101.386 281.397 100.71 280.113 100.162 278.774C99.901 278.143 99.6741 277.498 99.4819 276.843C99.1986 275.895 98.9877 274.927 98.851 273.947C98.7758 273.391 98.7239 272.833 98.6954 272.27C98.6754 271.863 98.6623 271.456 98.6701 271.054C98.6727 270.689 98.6834 270.317 98.7134 269.95C98.728 269.717 98.7523 269.476 98.7763 269.238C98.843 268.504 98.9505 267.774 99.0985 267.052C102.742 248.876 128.915 231.993 144.977 225.927C148.561 224.579 153.905 222.645 160.6 220.495C163.893 219.431 167.522 218.319 171.429 217.191C171.451 217.188 171.473 217.181 171.494 217.173C171.777 217.09 172.108 216.994 172.479 216.89C177.221 215.613 188.584 213.259 198.408 213.862C204.494 214.237 209.986 215.749 212.961 219.365C213.905 220.502 214.578 221.838 214.928 223.273C218.701 238.178 182.981 246.64 181.838 246.914Z" fill="#FFCC93"/>
<path d="M181.845 246.918C182.533 246.881 195.219 246.181 190.411 254.573C185.475 263.2 161.018 257.924 161.018 257.924C160.954 258.025 160.896 258.128 160.83 258.227C153.663 255.844 148.602 251.702 146.959 246.088C144.561 237.827 150.13 228.295 160.609 220.491C163.902 219.426 167.531 218.315 171.438 217.187C171.46 217.183 171.482 217.177 171.503 217.169C171.786 217.086 172.117 216.99 172.488 216.886C177.23 215.609 188.593 213.255 198.417 213.857C204.503 214.233 209.995 215.745 212.971 219.361C213.914 220.497 214.587 221.834 214.937 223.269C218.708 238.182 182.988 246.644 181.845 246.918Z" fill="white"/>
<path opacity="0.6" d="M212.986 219.361C212.986 219.361 180.004 216.728 145.464 232.925C122.324 243.772 106.585 260.25 98.7212 269.942C98.7358 269.709 98.7601 269.469 98.7841 269.23C98.8508 268.496 98.9584 267.766 99.1063 267.044C102.75 248.868 128.923 231.985 144.985 225.919C150.329 223.904 159.597 220.596 171.437 217.183C171.459 217.18 171.481 217.174 171.501 217.165C171.785 217.082 172.116 216.986 172.486 216.883C177.229 215.605 188.592 213.251 198.415 213.854C204.518 214.232 210.011 215.744 212.986 219.361Z" fill="white"/>
<path opacity="0.2" d="M181.842 246.911C182.529 246.874 195.216 246.174 190.408 254.566C185.471 263.193 161.015 257.917 161.015 257.917C146.76 280.961 125.339 285.32 125.339 285.32L116.947 296.285C110.986 292.582 105.73 288.072 102.184 282.6C101.391 281.39 100.715 280.106 100.167 278.766C99.9068 278.135 99.6799 277.49 99.487 276.835C99.2058 275.887 98.9949 274.919 98.8561 273.939C98.7809 273.384 98.729 272.825 98.7004 272.263C98.6804 271.856 98.6673 271.448 98.6752 271.047C98.6782 270.44 98.712 269.833 98.7764 269.229C98.8431 268.495 98.9507 267.765 99.0986 267.043C99.0986 267.043 129.683 277.39 154.495 246.371C154.495 246.371 182.657 258.764 170.842 239.881C170.842 239.881 216.733 225.84 198.424 213.856C206.369 214.347 213.308 216.779 214.943 223.267C218.705 238.175 182.985 246.637 181.842 246.911Z" fill="#522323"/>
<path d="M116.375 299.223C116.018 299.153 115.676 299.019 115.367 298.827C108.447 294.535 103.166 289.623 99.6691 284.227C95.4624 277.743 94.5674 270.686 97.0088 263.256C103.143 244.587 129.041 228.727 143.923 223.116C149.677 220.947 158.976 217.655 170.602 214.305L170.654 214.291C170.946 214.206 171.289 214.107 171.672 213.999L171.697 213.992C175.893 212.857 182.853 211.466 189.802 210.962C199.304 210.272 206.565 211.354 211.378 214.176C214.766 216.163 216.939 218.974 217.836 222.536C218.646 225.754 218.134 228.917 216.299 231.934C212.049 238.959 201.119 243.908 192.686 246.827C193.012 247.158 193.3 247.523 193.547 247.917C194.522 249.481 195.218 252.162 192.996 256.049C190.353 260.667 183.877 262.825 173.747 262.463C169.955 262.304 166.177 261.893 162.439 261.233C154.93 272.612 145.778 279.257 139.28 282.871C131.824 287.019 126.173 288.201 125.93 288.248C125.544 288.326 125.148 288.328 124.762 288.253C124.376 288.178 124.009 288.028 123.681 287.811C123.353 287.594 123.071 287.314 122.852 286.988C122.632 286.663 122.478 286.297 122.4 285.912C122.322 285.526 122.32 285.13 122.395 284.744C122.47 284.358 122.62 283.991 122.837 283.663C123.054 283.335 123.334 283.053 123.659 282.834C123.985 282.614 124.351 282.46 124.736 282.382C124.781 282.372 129.892 281.28 136.584 277.52C142.721 274.072 151.498 267.599 158.465 256.337C158.784 255.821 159.253 255.415 159.809 255.171C160.365 254.928 160.981 254.859 161.577 254.974L161.641 254.986C165.727 255.806 169.87 256.306 174.034 256.483C181.397 256.736 186.417 255.494 187.801 253.074C188.557 251.754 188.513 251.15 188.472 251.084C188.038 250.39 184.978 249.703 182.026 249.894C181.277 249.944 180.537 249.711 179.952 249.241C179.367 248.77 178.98 248.097 178.868 247.355C178.756 246.613 178.927 245.856 179.346 245.234C179.766 244.612 180.404 244.171 181.135 243.997L181.161 243.99C190.216 241.828 206.734 236.176 211.182 228.836C212.177 227.21 212.448 225.622 212.037 223.992C211.538 222.024 210.332 220.495 208.356 219.336C200.598 214.788 183.131 217.098 173.273 219.76L172.373 220.017C172.326 220.033 172.261 220.053 172.18 220.073C160.778 223.361 151.669 226.584 146.031 228.713C131.158 234.317 107.882 249.32 102.691 265.118C100.818 270.821 101.471 276.004 104.687 280.963C107.7 285.614 112.353 289.91 118.517 293.733C119.111 294.102 119.558 294.668 119.778 295.332C119.999 295.996 119.98 296.716 119.725 297.368C119.47 298.02 118.995 298.561 118.382 298.899C117.769 299.237 117.057 299.349 116.37 299.216L116.375 299.223Z" fill="#522323"/>
</g>
<path d="M103.12 378.373C99.3926 379.662 95.3147 378.89 91.3851 378.58C86.2111 378.182 80.7861 378.668 76.3264 381.306C74.5904 382.332 73.0327 383.667 71.1864 384.46C65.2794 386.999 63.8538 382.178 64.3343 377.727C64.9424 372.078 63.5068 366.174 61.1938 361.022C59.7523 357.802 57.8511 354.743 57.1161 351.293C56.3811 347.843 57.1377 343.758 60.0621 341.787C60.2971 341.627 60.5442 341.485 60.8011 341.363C60.9826 341.271 61.1695 341.19 61.3608 341.121C65.3765 339.642 70.4265 342.701 72.1229 346.866C73.4324 350.088 73.3492 353.613 72.8322 357.102C72.6037 358.625 72.2952 360.152 71.9829 361.637C72.4958 360.233 73.0215 358.811 73.6265 357.434C74.6207 355.186 75.842 353.067 77.5976 351.37C79.9344 349.119 83.5171 347.858 86.5345 348.711C86.6589 348.749 86.7913 348.789 86.9192 348.837C87.4346 349.005 87.9237 349.245 88.3723 349.549C91.3596 351.548 92.1959 355.74 91.2875 359.217C91.0691 360.046 90.7784 360.853 90.4187 361.631C89.2967 364.09 87.5775 366.298 85.8891 368.436C86.6971 367.739 87.5753 367.128 88.5096 366.612C93.3006 363.938 99.4059 363.621 104.366 366.01C105.863 366.723 107.316 367.728 108.077 369.203C108.165 369.379 108.243 369.56 108.311 369.744C108.713 370.872 108.715 372.103 108.318 373.232C107.569 375.51 105.476 377.559 103.12 378.373Z" fill="#89BB4D"/>
<path opacity="0.6" d="M82.18 353.959C81.4064 354.793 81.4715 356.069 81.4793 357.21C81.4871 358.351 81.2579 359.709 80.2281 360.181C79.3893 360.584 78.3293 360.222 77.4854 360.614C77.0427 360.819 76.7194 361.218 76.3544 361.546C75.8215 362.024 75.1919 362.38 74.5087 362.592C73.8254 362.804 73.1045 362.866 72.3951 362.774C72.2385 362.772 72.0891 362.708 71.9793 362.597C71.9176 362.509 71.875 362.409 71.8543 362.304C71.1603 359.133 70.115 356.051 69.0715 352.981C68.4421 351.134 67.8148 349.272 66.8446 347.57C65.3923 345.007 63.257 342.934 60.7747 341.351C60.9561 341.259 61.143 341.178 61.3343 341.109C65.35 339.63 70.4 342.689 72.0964 346.854C73.4059 350.076 73.3227 353.6 72.8057 357.09C72.5772 358.612 72.2687 360.14 71.9564 361.624C72.4693 360.22 72.9951 358.798 73.6001 357.422C74.5942 355.174 75.8156 353.054 77.5711 351.357C79.908 349.106 83.4907 347.846 86.508 348.699C86.6325 348.736 86.7649 348.776 86.8928 348.824C86.5438 350.025 86.5072 351.393 85.5972 352.226C84.6595 353.097 83.0674 353.018 82.18 353.959Z" fill="white"/>
<path opacity="0.6" d="M108.312 373.22C107.031 372.097 105.676 371.043 104.15 370.279C101.373 368.881 98.1707 368.493 95.0707 368.675C91.9707 368.856 88.924 369.571 85.8987 370.278C86.6793 368.994 87.5496 367.766 88.5032 366.604C93.2943 363.929 99.3995 363.613 104.359 366.002C105.856 366.714 107.309 367.719 108.071 369.194C108.158 369.37 108.237 369.551 108.305 369.736C108.706 370.862 108.709 372.092 108.312 373.22Z" fill="white"/>
<path opacity="0.2" d="M103.118 378.372C99.3906 379.661 95.3126 378.889 91.383 378.579C86.2089 378.181 80.784 378.667 76.3242 381.305C74.5883 382.331 73.0305 383.666 71.1843 384.459C65.2773 386.998 63.8516 382.177 64.3322 377.726C64.9402 372.077 63.5047 366.173 61.1916 361.021C59.7501 357.801 57.8489 354.742 57.1139 351.292C56.3789 347.842 57.1355 343.757 60.06 341.787C60.4642 341.513 60.9003 341.289 61.3587 341.12C61.9741 341.762 62.4867 342.494 62.8782 343.292C64.2039 346.023 64.3934 349.136 65.1611 352.076C65.7976 354.498 66.8281 356.798 68.2115 358.885C69.0182 360.102 70.6821 361.323 71.7404 360.323C72.1074 359.982 72.2475 359.476 72.3673 358.992C72.527 358.378 72.6876 357.747 72.8295 357.105C72.6011 358.627 72.2925 360.155 71.9803 361.639C72.4931 360.235 73.0189 358.813 73.6239 357.437C73.3671 358.315 73.0983 359.195 72.8416 360.073C72.7075 360.506 72.5816 360.985 72.7569 361.403C72.9322 361.821 73.351 362.068 73.7521 362.287C76.4315 363.749 79.7114 365.215 82.386 363.751C84.0669 362.822 84.993 360.948 85.5411 359.107C86.2461 356.74 86.4977 354.262 86.2829 351.802C86.1971 350.776 86.0833 349.577 86.5316 348.716C87.1856 348.894 87.8063 349.177 88.3694 349.554C91.3567 351.552 92.193 355.745 91.2846 359.221C91.0662 360.05 90.7755 360.858 90.4158 361.635C88.9668 363.866 87.3559 366.005 85.8359 368.179C85.5825 368.551 85.3117 368.983 85.4045 369.423C85.5247 370.017 86.1906 370.282 86.7701 370.448C89.95 371.367 93.2066 371.996 96.5 372.327C99.3905 372.619 102.369 372.676 105.155 371.816C106.085 371.527 107.187 370.654 108.311 369.745C109.578 373.135 106.661 377.149 103.118 378.372Z" fill="#52292E"/>
<path d="M67.1839 388.066C66.1618 387.919 65.1921 387.521 64.3609 386.908C61.9898 385.158 60.896 381.691 61.3577 377.4C61.9823 371.584 60.1296 365.941 58.4653 362.236C58.0867 361.384 57.6645 360.541 57.2226 359.649C56.0288 357.243 54.7949 354.755 54.1885 351.91C53.0833 346.72 54.7263 341.768 58.3761 339.295C60.7326 337.701 63.6605 337.316 66.6204 338.215C70.2846 339.325 73.4504 342.204 74.8866 345.729C75.3046 346.761 75.6172 347.833 75.8196 348.928C77.6274 347.288 79.8422 346.163 82.233 345.67C85.0755 345.1 87.8449 345.592 90.0335 347.052C92.0483 348.397 93.4818 350.466 94.1768 353.036C94.7719 355.305 94.774 357.689 94.1829 359.959C94.03 360.543 93.8466 361.119 93.6335 361.684C93.881 361.644 94.13 361.605 94.3812 361.574C98.2275 361.039 102.146 361.637 105.657 363.296C108.103 364.471 109.764 365.939 110.729 367.809C111.814 369.903 111.894 372.353 110.953 374.711C109.775 377.656 107.15 380.139 104.098 381.192C100.427 382.457 96.6101 382.081 93.2426 381.749C92.5173 381.677 91.8337 381.609 91.1493 381.556C85.6425 381.125 81.176 381.907 77.8502 383.874C77.2946 384.201 76.7413 384.581 76.1545 384.981C74.9978 385.769 73.8018 386.584 72.3634 387.202C70.251 388.104 68.5395 388.27 67.1839 388.066ZM64.1533 343.775C63.3146 343.621 62.4485 343.793 61.7326 344.256C59.8964 345.5 59.57 348.451 60.041 350.668C60.4913 352.775 61.5073 354.825 62.5831 356.994C63.0301 357.897 63.4894 358.83 63.9233 359.787C65.893 364.167 68.0767 370.89 67.3069 378.044C67.0392 380.537 67.6133 381.875 67.9158 382.098C68.0283 382.181 68.6508 382.286 70.0008 381.705C70.9034 381.316 71.8186 380.697 72.7833 380.039C73.4227 379.604 74.0847 379.153 74.802 378.727C79.2082 376.119 84.8653 375.066 91.6172 375.593C92.3615 375.65 93.1169 375.725 93.8323 375.795C96.8569 376.094 99.7132 376.377 102.144 375.536C103.531 375.057 104.867 373.806 105.391 372.493C105.686 371.756 105.694 371.109 105.414 370.569C105.072 369.91 104.282 369.279 103.066 368.697C98.1946 366.358 91.9302 367.184 87.8314 370.702C87.268 371.199 86.5385 371.466 85.7875 371.45C85.0366 371.434 84.3192 371.136 83.7775 370.616C83.2359 370.095 82.9096 369.39 82.8635 368.641C82.8174 367.891 83.0548 367.151 83.5286 366.568C85.5434 364.011 87.6251 361.367 88.3867 358.441C88.9714 356.198 88.5815 353.273 86.7062 352.021C84.7006 350.681 81.4952 351.745 79.6771 353.498C77.2822 355.81 75.9544 359.438 74.7832 362.641C74.5163 363.339 73.9979 363.911 73.3301 364.246C72.6623 364.581 71.8933 364.654 71.1743 364.451C70.4554 364.248 69.8385 363.783 69.4451 363.147C69.0516 362.512 68.9101 361.753 69.0482 361.019C70.0895 356.049 70.8304 351.641 69.3452 347.992C68.5962 346.154 66.8039 344.53 64.8874 343.946C64.6456 343.871 64.3985 343.814 64.1483 343.775L64.1533 343.775Z" fill="#52292E"/>
<path d="M43.1597 444.773C38.1422 447.28 33.8476 447.198 31.2615 445.732C28.6753 444.267 26.409 440.614 25.9926 435.019C24.8603 419.783 42.9558 356.862 72.2853 373.526C101.615 390.19 56.83 437.945 43.1597 444.773Z" fill="#FF8700"/>
<path opacity="0.6" d="M72.1524 379.866C70.7971 379.087 69.3652 378.449 67.8794 377.963C67.9693 378.195 68.0166 378.44 68.0188 378.688C68.0359 380.746 64.8204 382.439 60.8492 382.463C57.3359 382.496 54.3943 381.206 53.7607 379.476C36.8614 388.909 26.6047 423.817 25.8599 438.264C25.549 437.069 25.3503 435.847 25.2664 434.614C24.1327 419.376 42.2295 356.457 71.5559 373.119C79.1028 377.406 81.7308 383.745 81.2603 390.919C80.0786 386.553 77.2193 382.745 72.1524 379.866Z" fill="white"/>
<path opacity="0.2" d="M81.8964 386.808C75.573 404.193 56.0833 423.326 48.1018 427.313C43.4807 429.62 39.5192 429.545 37.1429 428.201C34.7665 426.857 32.6739 423.487 32.2921 418.336C31.9382 413.584 33.6183 403.795 37.0403 393.526C29.4469 408.832 25.4685 427.455 26.0167 434.85C26.4337 440.442 28.7063 444.097 31.2858 445.561C33.8653 447.025 38.1666 447.109 43.1838 444.603C54.0665 439.161 84.6677 407.785 81.8964 386.808Z" fill="#52292E"/>
<path d="M33.5471 449.604C32.2269 449.419 30.9523 448.992 29.7871 448.344C25.9962 446.188 23.4636 441.295 23.0149 435.251C22.506 428.404 25.2486 415.237 29.6877 403.23C32.2828 396.209 35.2687 390.016 38.5652 384.824C42.4822 378.658 46.7428 374.084 51.2271 371.249C58.3758 366.725 66.1705 366.615 73.77 370.933C81.3695 375.251 85.2642 382.003 85.0384 390.46C84.8975 395.763 83.1534 401.76 79.8593 408.286C77.085 413.779 73.2955 419.511 68.5922 425.336C60.5501 435.296 50.6435 444.393 44.5051 447.461C40.682 449.368 36.8213 450.095 33.5471 449.604ZM64.6538 373.897C61.1732 373.375 57.7909 374.177 54.4273 376.306C47.3498 380.783 40.5601 391.083 35.3007 405.305C30.6984 417.758 28.6117 429.795 28.9822 434.808C29.3369 439.576 31.1576 442.239 32.7446 443.139C34.3316 444.039 37.5496 444.241 41.8275 442.106C46.3194 439.861 55.5958 431.903 63.9363 421.574C73.4629 409.778 78.8324 398.67 79.0554 390.299C79.2233 384.017 76.5268 379.383 70.8128 376.136C68.717 374.947 66.6699 374.199 64.6538 373.897Z" fill="#52292E"/>
<path d="M73.1122 409.356C73.0823 409.285 73.0456 409.218 73.0024 409.154C72.9586 409.075 72.8962 408.984 72.8446 408.901C72.7383 408.731 72.6142 408.557 72.4952 408.382C72.3763 408.207 72.2486 408.035 72.1211 407.86C71.9937 407.686 71.8664 407.51 71.7283 407.339L71.3219 406.818C71.179 406.645 71.0352 406.478 70.8922 406.307L70.4625 405.795L70.0157 405.295C68.7993 403.947 67.5048 402.671 66.1388 401.474C65.7919 401.175 65.4372 400.884 65.0898 400.589L64.5586 400.146L64.0104 399.726L62.9058 398.885L61.767 398.081L61.1917 397.662C60.9987 397.53 60.801 397.407 60.6057 397.28L59.4236 396.517L59.1262 396.327L58.8236 396.15L58.2152 395.794L56.9922 395.078L58.3593 395.452L59.0473 395.638L59.3928 395.732L59.7313 395.839L61.0929 396.273C61.32 396.346 61.5493 396.415 61.7756 396.493L62.4478 396.739L63.8001 397.234L65.1344 397.782L65.8052 398.06L66.464 398.362C66.9029 398.564 67.3457 398.764 67.7853 398.974C69.5492 399.837 71.2613 400.802 72.913 401.864L73.5389 402.272L74.1498 402.701C74.3544 402.845 74.5631 402.984 74.7607 403.131L75.3679 403.585C75.5718 403.733 75.7706 403.893 75.9728 404.054C76.175 404.214 76.376 404.371 76.5751 404.541C76.7741 404.711 76.9725 404.874 77.1728 405.058C77.2737 405.15 77.3711 405.233 77.4691 405.333C77.5671 405.434 77.6634 405.513 77.8084 405.671L79.0714 407.043C79.4502 407.456 79.7223 407.955 79.8642 408.498C80.0061 409.04 80.0134 409.609 79.8855 410.154C79.7577 410.7 79.4985 411.206 79.1306 411.629C78.7626 412.052 78.2969 412.379 77.7741 412.581C77.2512 412.783 76.6869 412.854 76.1303 412.788C75.5736 412.723 75.0414 412.522 74.5799 412.204C74.1183 411.886 73.7414 411.46 73.4819 410.963C73.2224 410.466 73.0881 409.914 73.0907 409.353L73.1122 409.356Z" fill="#52292E"/>
<path d="M51.086 437.415C51.0559 437.344 51.0192 437.276 50.9765 437.212C50.9324 437.134 50.87 437.044 50.8184 436.96C50.7124 436.789 50.5882 436.615 50.4693 436.44C50.3503 436.265 50.2226 436.092 50.0952 435.918C49.9677 435.743 49.8405 435.567 49.7024 435.396L49.2956 434.878C49.1531 434.703 49.0093 434.536 48.8662 434.364L48.4363 433.854L47.9881 433.353C46.7721 432.004 45.4775 430.728 44.1109 429.533C43.7643 429.232 43.4093 428.943 43.0622 428.646L42.5309 428.203L41.9828 427.783L40.8782 426.942L39.7396 426.136L39.1673 425.731C38.9741 425.601 38.7764 425.479 38.5813 425.35L37.3989 424.588L37.1032 424.399L36.7926 424.219L36.1842 423.862L34.9609 423.148L36.3297 423.523L37.0158 423.71L37.3613 423.804L37.7001 423.909L39.0616 424.343C39.2885 424.418 39.518 424.486 39.7444 424.564L40.4165 424.81L41.7689 425.305L43.1136 425.851L43.7856 426.121L44.4444 426.422C44.8831 426.626 45.3261 426.825 45.7654 427.036C47.5297 427.898 49.2418 428.863 50.8931 429.926L51.5193 430.332L52.1302 430.761C52.3346 430.907 52.5433 431.046 52.7411 431.191L53.3485 431.643C53.5524 431.792 53.7511 431.954 53.9535 432.112C54.1559 432.271 54.355 432.429 54.5555 432.601C54.7559 432.773 54.9545 432.934 55.1532 433.118C55.2541 433.211 55.3518 433.291 55.4495 433.394C55.5473 433.496 55.6423 433.571 55.7874 433.73L57.0504 435.101C57.4292 435.514 57.7013 436.014 57.8432 436.556C57.9851 437.098 57.9924 437.667 57.8645 438.213C57.7367 438.758 57.4775 439.265 57.1096 439.688C56.7416 440.11 56.2759 440.437 55.7531 440.639C55.2302 440.841 54.6659 440.912 54.1093 440.847C53.5526 440.781 53.0204 440.58 52.5589 440.262C52.0973 439.944 51.7204 439.518 51.4609 439.021C51.2014 438.525 51.0671 437.972 51.0697 437.411L51.086 437.415Z" fill="#52292E"/>
<path d="M34.2087 402.877C34.4181 402.922 34.5241 402.958 34.6719 402.997C34.8197 403.036 34.9337 403.075 35.0644 403.115C35.326 403.195 35.5695 403.282 35.8168 403.366C36.0642 403.451 36.2971 403.541 36.5434 403.632C36.7898 403.723 37.0229 403.812 37.2551 403.908L37.956 404.199C38.1881 404.294 38.415 404.403 38.6445 404.505L39.3256 404.815L39.9953 405.145C41.7542 406.018 43.4602 406.995 45.1043 408.069C45.5095 408.339 45.9066 408.618 46.3064 408.891L46.903 409.303L47.4858 409.728L48.6407 410.594L49.7574 411.501L50.314 411.954C50.4952 412.108 50.6735 412.27 50.8526 412.427L51.921 413.374L52.1859 413.611L52.4441 413.859L52.9556 414.355L53.9744 415.34L52.7278 414.646L52.1038 414.304L51.7917 414.134L51.4775 413.977L50.2205 413.353C50.0097 413.251 49.8029 413.144 49.5915 413.044L48.9586 412.762L47.6828 412.196L46.3908 411.681L45.7534 411.428L45.1009 411.197C44.6642 411.047 44.2337 410.89 43.7995 410.745C42.072 410.185 40.3132 409.726 38.5322 409.37L37.8759 409.243L37.2167 409.136C36.9971 409.103 36.7775 409.07 36.5563 409.037L35.8936 408.953C35.6773 408.92 35.4601 408.904 35.2457 408.882C35.0312 408.86 34.8148 408.84 34.6038 408.828C34.3928 408.817 34.1794 408.798 33.9806 408.795C33.8815 408.792 33.771 408.786 33.6829 408.788C33.6058 408.785 33.5285 408.788 33.4519 408.797C32.9725 409.087 32.4298 409.255 31.8707 409.287C31.3117 409.319 30.7533 409.214 30.2439 408.981C29.7346 408.749 29.2897 408.395 28.9479 407.952C28.6061 407.508 28.3777 406.988 28.2825 406.436C28.1873 405.884 28.2283 405.318 28.4017 404.785C28.5752 404.253 28.8759 403.771 29.2779 403.381C29.6799 402.991 30.1709 402.705 30.7084 402.548C31.2458 402.391 31.8135 402.368 32.3622 402.48L34.2087 402.877Z" fill="#52292E"/>
</g>
<defs>
<clipPath id="clip0_3_1780">
<rect width="468" height="464" fill="white"/>
</clipPath>
<clipPath id="clip1_3_1780">
<rect x="68.3203" y="-121" width="615.408" height="486.506" rx="30" transform="rotate(10.9389 68.3203 -121)" fill="white"/>
</clipPath>
</defs>
</svg>
