<?xml version="1.0" encoding="UTF-8"?>
<svg xmlns="http://www.w3.org/2000/svg" xmlns:xlink="http://www.w3.org/1999/xlink" width="200px" height="200px" viewBox="0 0 200 200" version="1.1">
<g id="surface1">
<path style=" stroke:none;fill-rule:nonzero;fill:rgb(0%,0%,0%);fill-opacity:1;" d="M 96.015625 15.457031 C 88.648438 19.765625 71.539062 29.710938 53.460938 40.136719 L 44.6875 45.167969 L 44.6875 112.601562 L 54.667969 118.359375 C 60.144531 121.539062 68.4375 126.328125 73.066406 129.027344 C 92.390625 140.21875 98.148438 143.558594 100.320312 144.765625 L 102.617188 146.054688 L 107.367188 143.359375 C 109.984375 141.867188 116.304688 138.203125 121.375 135.265625 C 126.488281 132.328125 133.535156 128.21875 137.078125 126.207031 C 157.125 114.613281 160.023438 112.84375 160.105469 112.320312 C 160.183594 111.917969 157.207031 109.984375 151.085938 106.480469 C 146.015625 103.582031 141.625 101.207031 141.304688 101.128906 C 140.980469 101.085938 132.207031 105.917969 121.859375 111.917969 C 111.472656 117.875 102.816406 122.785156 102.578125 122.785156 C 102.175781 122.785156 98.632812 120.773438 79.910156 109.902344 C 76.609375 107.972656 71.738281 105.191406 69.121094 103.703125 L 64.414062 100.964844 L 64.492188 78.824219 L 64.613281 56.640625 L 83.210938 45.894531 C 93.476562 39.976562 102.09375 34.902344 102.457031 34.621094 C 103.382812 33.855469 103.179688 12.320312 102.253906 12.238281 C 101.933594 12.199219 99.113281 13.648438 96.015625 15.457031 Z M 96.015625 15.457031 "/>
<path style=" stroke:none;fill-rule:nonzero;fill:rgb(0%,0%,0%);fill-opacity:1;" d="M 87.480469 47.945312 C 86.753906 48.148438 86.152344 48.429688 86.152344 48.511719 C 86.152344 48.632812 86.957031 49.4375 87.921875 50.320312 C 92.671875 54.667969 96.375 66.667969 95.410156 74.394531 C 94.808594 78.984375 93.277344 81.320312 89.773438 82.890625 L 88.003906 83.695312 L 89.171875 84.136719 C 94.203125 86.070312 98.109375 86.109375 102.132812 84.300781 C 106.402344 82.367188 111.109375 82.648438 117.792969 85.144531 C 121.015625 86.351562 123.109375 86.433594 125.160156 85.386719 C 127.617188 84.136719 127.777344 83.695312 127.011719 81.238281 C 126.007812 78.019531 121.457031 69 119.242188 65.820312 C 118.195312 64.292969 116.425781 62.398438 115.339844 61.59375 C 113.527344 60.304688 113.125 60.183594 111.03125 60.304688 C 109.742188 60.347656 108.695312 60.304688 108.695312 60.183594 C 108.695312 60.0625 108.976562 59.300781 109.300781 58.535156 C 110.023438 56.761719 109.824219 56.359375 107.003906 53.703125 C 102.375 49.316406 98.066406 47.503906 92.390625 47.542969 C 90.417969 47.542969 88.164062 47.746094 87.480469 47.945312 Z M 87.480469 47.945312 "/>
<path style=" stroke:none;fill-rule:nonzero;fill:rgb(0%,0%,0%);fill-opacity:1;" d="M 134.863281 77.132812 C 134.257812 78.664062 132.367188 81.320312 129.953125 83.9375 C 127.738281 86.351562 124.679688 88.164062 122.746094 88.164062 C 122.140625 88.164062 119.523438 87.519531 116.910156 86.714844 C 109.945312 84.582031 107.851562 84.542969 102.9375 86.3125 C 99.597656 87.519531 98.46875 87.761719 95.691406 87.761719 C 91.546875 87.761719 89.25 87.035156 85.425781 84.660156 C 82.730469 82.972656 82.085938 82.769531 79.105469 82.488281 C 75.121094 82.125 73.710938 81.523438 70.691406 78.824219 C 69.445312 77.695312 68.277344 76.890625 68.15625 77.054688 C 67.753906 77.457031 69.242188 84.179688 70.410156 87.199219 C 73.871094 96.175781 79.789062 102.738281 87.964844 106.683594 C 92.714844 109.019531 96.660156 109.902344 102.054688 109.902344 C 107.207031 109.902344 110.871094 109.019531 115.742188 106.683594 C 124.679688 102.335938 131.359375 94.324219 134.21875 84.378906 C 135.707031 79.347656 136.191406 73.632812 134.863281 77.132812 Z M 134.863281 77.132812 "/>
<path style=" stroke:none;fill-rule:nonzero;fill:rgb(0%,0%,0%);fill-opacity:1;" d="M 45.851562 151.972656 C 45.851562 152.738281 45.851562 154.550781 45.851562 156 C 45.851562 160.425781 45.8125 160.226562 46.898438 160.226562 C 47.988281 160.226562 48.269531 159.621094 47.304688 159.257812 C 46.820312 159.097656 46.699219 158.253906 46.699219 155.394531 C 46.699219 152.535156 46.820312 151.691406 47.304688 151.53125 C 48.269531 151.167969 47.988281 150.5625 46.898438 150.5625 C 46.015625 150.5625 45.894531 150.726562 45.851562 151.972656 Z M 45.851562 151.972656 "/>
<path style=" stroke:none;fill-rule:nonzero;fill:rgb(0%,0%,0%);fill-opacity:1;" d="M 158.210938 150.925781 C 158.210938 151.167969 158.414062 151.449219 158.613281 151.570312 C 158.855469 151.691406 159.019531 153.460938 159.019531 155.476562 C 159.019531 158.496094 158.898438 159.21875 158.332031 159.660156 C 157.6875 160.144531 157.730469 160.183594 158.9375 160.226562 L 160.226562 160.226562 L 160.226562 150.5625 L 159.21875 150.5625 C 158.65625 150.5625 158.210938 150.726562 158.210938 150.925781 Z M 158.210938 150.925781 "/>
<path style=" stroke:none;fill-rule:nonzero;fill:rgb(0%,0%,0%);fill-opacity:1;" d="M 50 151.449219 C 49.394531 152.054688 49.394531 153.90625 50 154.507812 C 50.28125 154.789062 50.925781 154.992188 51.53125 154.992188 C 52.898438 154.992188 53.703125 155.597656 53.421875 156.359375 C 53.140625 157.085938 50.726562 157.285156 50.726562 156.601562 C 50.726562 155.957031 49.917969 156.121094 49.636719 156.84375 C 49.316406 157.730469 50.203125 158.210938 52.175781 158.210938 C 54.105469 158.210938 54.75 157.648438 54.75 155.917969 C 54.75 154.46875 53.90625 153.785156 52.175781 153.785156 C 51.410156 153.785156 51.128906 153.582031 51.128906 152.980469 C 51.128906 151.933594 52.214844 151.488281 53.179688 152.09375 C 53.582031 152.375 54.105469 152.578125 54.347656 152.578125 C 54.992188 152.578125 54.832031 151.488281 54.105469 151.207031 C 53.019531 150.804688 50.523438 150.925781 50 151.449219 Z M 50 151.449219 "/>
<path style=" stroke:none;fill-rule:nonzero;fill:rgb(0%,0%,0%);fill-opacity:1;" d="M 56.761719 154.589844 C 56.761719 157.488281 56.882812 158.210938 57.328125 158.210938 C 57.730469 158.210938 57.972656 157.6875 58.050781 156.683594 C 58.171875 155.273438 58.253906 155.191406 59.582031 155.191406 C 60.910156 155.191406 60.992188 155.273438 61.109375 156.683594 C 61.191406 157.6875 61.433594 158.210938 61.835938 158.210938 C 62.277344 158.210938 62.398438 157.488281 62.398438 154.589844 C 62.398438 151.652344 62.277344 150.964844 61.796875 150.964844 C 61.394531 150.964844 61.191406 151.410156 61.191406 152.375 C 61.191406 153.742188 61.152344 153.785156 59.582031 153.785156 C 58.011719 153.785156 57.972656 153.742188 57.972656 152.375 C 57.972656 151.410156 57.769531 150.964844 57.367188 150.964844 C 56.882812 150.964844 56.761719 151.652344 56.761719 154.589844 Z M 56.761719 154.589844 "/>
<path style=" stroke:none;fill-rule:nonzero;fill:rgb(0%,0%,0%);fill-opacity:1;" d="M 66.0625 151.851562 C 65.902344 152.375 65.339844 153.824219 64.855469 155.113281 C 64.414062 156.402344 64.007812 157.609375 64.007812 157.808594 C 64.007812 158.574219 65.136719 158.210938 65.339844 157.40625 C 65.660156 156.199219 68.117188 156.28125 68.960938 157.488281 C 70.128906 159.257812 70.167969 157.769531 69 154.386719 C 68.117188 151.8125 67.671875 150.964844 67.109375 150.964844 C 66.746094 150.964844 66.265625 151.367188 66.0625 151.851562 Z M 67.835938 154.46875 C 68.035156 155.234375 67.914062 155.394531 67.269531 155.394531 C 66.425781 155.394531 66.222656 154.789062 66.667969 153.582031 C 66.988281 152.816406 67.429688 153.179688 67.835938 154.46875 Z M 67.835938 154.46875 "/>
<path style=" stroke:none;fill-rule:nonzero;fill:rgb(0%,0%,0%);fill-opacity:1;" d="M 71.660156 154.589844 C 71.660156 157.488281 71.78125 158.210938 72.222656 158.210938 C 72.585938 158.210938 72.867188 157.730469 72.945312 156.925781 C 73.109375 155.152344 73.914062 155.074219 74.917969 156.761719 C 75.363281 157.570312 76.007812 158.210938 76.328125 158.210938 C 77.054688 158.210938 77.054688 157.808594 76.246094 156.683594 C 75.644531 155.835938 75.644531 155.675781 76.246094 155.03125 C 77.011719 154.1875 77.09375 152.132812 76.410156 151.449219 C 76.128906 151.167969 74.960938 150.964844 73.792969 150.964844 L 71.660156 150.964844 Z M 75.484375 153.179688 C 75.484375 153.824219 75.203125 153.984375 74.273438 153.984375 C 73.308594 153.984375 73.027344 153.785156 72.945312 153.058594 C 72.824219 152.214844 72.945312 152.132812 74.15625 152.253906 C 75.160156 152.335938 75.484375 152.578125 75.484375 153.179688 Z M 75.484375 153.179688 "/>
<path style=" stroke:none;fill-rule:nonzero;fill:rgb(0%,0%,0%);fill-opacity:1;" d="M 78.90625 154.589844 C 78.90625 157.527344 79.027344 158.210938 79.507812 158.210938 C 79.871094 158.210938 80.113281 157.851562 80.113281 157.285156 C 80.113281 156.804688 80.3125 156.121094 80.515625 155.796875 C 80.835938 155.3125 81.121094 155.476562 82.125 156.683594 C 82.851562 157.527344 83.65625 158.210938 83.976562 158.210938 C 84.824219 158.210938 84.703125 157.929688 83.132812 156 L 81.683594 154.265625 L 82.929688 152.859375 C 84.300781 151.289062 84.378906 150.964844 83.535156 150.964844 C 83.210938 150.964844 82.449219 151.609375 81.84375 152.375 C 81.238281 153.140625 80.597656 153.785156 80.433594 153.785156 C 80.234375 153.785156 80.113281 153.140625 80.113281 152.375 C 80.113281 151.410156 79.910156 150.964844 79.507812 150.964844 C 79.027344 150.964844 78.90625 151.652344 78.90625 154.589844 Z M 78.90625 154.589844 "/>
<path style=" stroke:none;fill-rule:nonzero;fill:rgb(0%,0%,0%);fill-opacity:1;" d="M 88.566406 151.367188 C 88.566406 151.609375 89.007812 151.972656 89.574219 152.175781 C 90.5 152.535156 90.578125 152.738281 90.578125 155.433594 C 90.578125 157.527344 90.699219 158.253906 91.101562 158.132812 C 91.425781 158.011719 91.625 156.925781 91.707031 155.113281 C 91.828125 152.457031 91.910156 152.253906 92.792969 152.011719 C 94.6875 151.53125 93.800781 150.964844 91.183594 150.964844 C 89.652344 150.964844 88.566406 151.128906 88.566406 151.367188 Z M 88.566406 151.367188 "/>
<path style=" stroke:none;fill-rule:nonzero;fill:rgb(0%,0%,0%);fill-opacity:1;" d="M 95.007812 154.589844 L 95.007812 158.210938 L 97.261719 158.210938 C 99.796875 158.210938 100.203125 157.367188 97.785156 157.003906 C 96.738281 156.84375 96.417969 156.601562 96.417969 156 C 96.417969 155.433594 96.738281 155.152344 97.542969 155.074219 C 99.074219 154.871094 98.992188 153.785156 97.421875 153.785156 C 96.496094 153.785156 96.214844 153.582031 96.214844 153.019531 C 96.214844 152.375 96.539062 152.214844 97.707031 152.09375 C 100.203125 151.890625 99.839844 150.964844 97.261719 150.964844 L 95.007812 150.964844 Z M 95.007812 154.589844 "/>
<path style=" stroke:none;fill-rule:nonzero;fill:rgb(0%,0%,0%);fill-opacity:1;" d="M 101.328125 151.246094 C 101.167969 151.367188 101.046875 152.898438 101.046875 154.628906 C 101.046875 157.085938 101.167969 157.769531 101.691406 157.972656 C 102.496094 158.292969 104.832031 158.292969 105.636719 157.972656 C 106.441406 157.648438 106.480469 156.199219 105.675781 156.199219 C 105.355469 156.199219 105.074219 156.359375 105.074219 156.601562 C 105.074219 156.804688 104.429688 157.003906 103.664062 157.003906 L 102.214844 157.003906 L 102.335938 154.46875 C 102.457031 152.214844 102.535156 151.972656 103.382812 151.851562 C 103.90625 151.769531 104.667969 152.011719 105.113281 152.414062 C 105.796875 153.019531 105.878906 153.019531 106.121094 152.457031 C 106.238281 152.09375 106.238281 151.609375 106.078125 151.367188 C 105.796875 150.925781 101.769531 150.804688 101.328125 151.246094 Z M 101.328125 151.246094 "/>
<path style=" stroke:none;fill-rule:nonzero;fill:rgb(0%,0%,0%);fill-opacity:1;" d="M 108.292969 154.589844 C 108.292969 157.527344 108.414062 158.210938 108.898438 158.210938 C 109.339844 158.210938 109.5 157.769531 109.5 156.5625 L 109.5 154.953125 L 111.03125 155.074219 C 112.441406 155.191406 112.519531 155.273438 112.640625 156.683594 C 112.722656 157.6875 112.964844 158.210938 113.367188 158.210938 C 113.808594 158.210938 113.929688 157.488281 113.929688 154.589844 C 113.929688 151.691406 113.808594 150.964844 113.367188 150.964844 C 113.003906 150.964844 112.722656 151.449219 112.640625 152.253906 C 112.519531 153.460938 112.398438 153.582031 111.03125 153.703125 C 109.542969 153.824219 109.5 153.824219 109.5 152.414062 C 109.5 151.410156 109.339844 150.964844 108.898438 150.964844 C 108.414062 150.964844 108.292969 151.652344 108.292969 154.589844 Z M 108.292969 154.589844 "/>
<path style=" stroke:none;fill-rule:nonzero;fill:rgb(0%,0%,0%);fill-opacity:1;" d="M 115.941406 154.589844 C 115.941406 157.488281 116.0625 158.210938 116.546875 158.210938 C 116.949219 158.210938 117.148438 157.609375 117.230469 155.878906 L 117.351562 153.582031 L 118.679688 155.394531 C 119.445312 156.402344 120.167969 157.449219 120.371094 157.769531 C 120.53125 158.089844 120.972656 158.210938 121.335938 158.089844 C 122.222656 157.730469 122.304688 150.964844 121.375 150.964844 C 120.851562 150.964844 120.570312 151.8125 120.289062 154.550781 C 120.167969 155.433594 119.96875 155.273438 118.640625 153.261719 C 116.425781 149.917969 115.941406 150.160156 115.941406 154.589844 Z M 115.941406 154.589844 "/>
<path style=" stroke:none;fill-rule:nonzero;fill:rgb(0%,0%,0%);fill-opacity:1;" d="M 124.273438 151.246094 C 124.113281 151.367188 123.992188 152.898438 123.992188 154.628906 C 123.992188 157.085938 124.113281 157.769531 124.636719 157.972656 C 125.726562 158.375 128.625 158.253906 129.148438 157.730469 C 129.429688 157.449219 129.628906 156.121094 129.628906 154.589844 C 129.628906 153.058594 129.429688 151.730469 129.148438 151.449219 C 128.625 150.925781 124.71875 150.765625 124.273438 151.246094 Z M 128.261719 152.695312 C 128.382812 153.21875 128.421875 154.347656 128.339844 155.234375 C 128.21875 156.722656 128.140625 156.804688 126.730469 156.925781 L 125.203125 157.046875 L 125.203125 154.667969 C 125.203125 153.382812 125.320312 152.175781 125.484375 152.054688 C 125.605469 151.890625 126.246094 151.769531 126.851562 151.769531 C 127.738281 151.769531 128.058594 152.011719 128.261719 152.695312 Z M 128.261719 152.695312 "/>
<path style=" stroke:none;fill-rule:nonzero;fill:rgb(0%,0%,0%);fill-opacity:1;" d="M 131.640625 154.589844 L 131.640625 158.210938 L 133.453125 158.210938 C 134.78125 158.210938 135.265625 158.050781 135.265625 157.609375 C 135.265625 157.207031 134.863281 157.003906 134.058594 157.003906 L 132.851562 157.003906 L 132.851562 153.984375 C 132.851562 151.570312 132.730469 150.964844 132.246094 150.964844 C 131.761719 150.964844 131.640625 151.652344 131.640625 154.589844 Z M 131.640625 154.589844 "/>
<path style=" stroke:none;fill-rule:nonzero;fill:rgb(0%,0%,0%);fill-opacity:1;" d="M 137.15625 151.246094 C 136.996094 151.367188 136.875 152.898438 136.875 154.628906 C 136.875 157.085938 136.996094 157.769531 137.519531 157.972656 C 138.605469 158.375 141.503906 158.253906 142.027344 157.730469 C 142.3125 157.449219 142.511719 156.121094 142.511719 154.589844 C 142.511719 153.058594 142.3125 151.730469 142.027344 151.449219 C 141.503906 150.925781 137.601562 150.765625 137.15625 151.246094 Z M 141.144531 152.695312 C 141.265625 153.21875 141.304688 154.347656 141.222656 155.234375 C 141.101562 156.722656 141.023438 156.804688 139.613281 156.925781 L 138.082031 157.046875 L 138.082031 154.667969 C 138.082031 153.382812 138.203125 152.175781 138.367188 152.054688 C 138.484375 151.890625 139.128906 151.769531 139.734375 151.769531 C 140.621094 151.769531 140.941406 152.011719 141.144531 152.695312 Z M 141.144531 152.695312 "/>
<path style=" stroke:none;fill-rule:nonzero;fill:rgb(0%,0%,0%);fill-opacity:1;" d="M 144.6875 151.488281 C 144.566406 151.8125 144.523438 153.382812 144.605469 155.03125 L 144.726562 158.011719 L 146.660156 158.132812 C 149.035156 158.292969 149.757812 157.769531 149.757812 155.957031 C 149.757812 154.710938 149.636719 154.589844 148.550781 154.589844 C 147.222656 154.589844 146.980469 155.152344 147.988281 155.714844 C 148.953125 156.238281 148.308594 157.003906 146.898438 157.003906 L 145.691406 157.003906 L 145.8125 154.46875 C 145.933594 152.214844 146.015625 151.972656 146.859375 151.851562 C 147.382812 151.769531 148.148438 152.011719 148.589844 152.414062 C 149.316406 153.058594 149.355469 153.058594 149.597656 152.375 C 149.960938 151.410156 149.113281 150.964844 146.820312 150.964844 C 145.570312 150.964844 144.847656 151.167969 144.6875 151.488281 Z M 144.6875 151.488281 "/>
<path style=" stroke:none;fill-rule:nonzero;fill:rgb(0%,0%,0%);fill-opacity:1;" d="M 151.367188 151.328125 C 151.367188 151.53125 151.8125 152.496094 152.375 153.421875 C 152.9375 154.429688 153.382812 155.835938 153.382812 156.683594 C 153.382812 157.769531 153.542969 158.210938 153.984375 158.210938 C 154.429688 158.210938 154.589844 157.730469 154.589844 156.480469 C 154.628906 155.394531 154.953125 154.226562 155.597656 153.179688 C 156.761719 151.328125 156.804688 150.964844 156 150.964844 C 155.675781 150.964844 155.113281 151.53125 154.789062 152.214844 C 154.265625 153.179688 154.027344 153.339844 153.582031 152.980469 C 153.261719 152.695312 152.898438 152.175781 152.777344 151.730469 C 152.535156 150.964844 151.367188 150.644531 151.367188 151.328125 Z M 151.367188 151.328125 "/>
<path style=" stroke:none;fill-rule:nonzero;fill:rgb(0%,0%,0%);fill-opacity:1;" d="M 107.890625 167.875 C 107.890625 168.316406 108.089844 168.679688 108.292969 168.679688 C 108.535156 168.679688 108.695312 168.476562 108.695312 168.277344 C 108.695312 168.035156 109.058594 167.875 109.5 167.875 C 109.945312 167.875 110.304688 167.671875 110.304688 167.472656 C 110.304688 167.230469 109.78125 167.070312 109.097656 167.070312 C 108.171875 167.070312 107.890625 167.230469 107.890625 167.875 Z M 107.890625 167.875 "/>
<path style=" stroke:none;fill-rule:nonzero;fill:rgb(0%,0%,0%);fill-opacity:1;" d="M 118.640625 167.792969 C 117.269531 169.285156 118.277344 171.09375 120.410156 171.09375 C 121.296875 171.09375 121.578125 170.894531 121.578125 170.289062 C 121.578125 169.847656 121.296875 169.484375 120.972656 169.484375 C 120.613281 169.484375 120.492188 169.726562 120.652344 170.128906 C 120.972656 170.972656 119.605469 170.734375 119.042969 169.847656 C 118.4375 168.878906 119 167.875 120.167969 167.875 C 120.773438 167.875 121.136719 167.714844 120.972656 167.472656 C 120.570312 166.828125 119.363281 166.988281 118.640625 167.792969 Z M 118.640625 167.792969 "/>
<path style=" stroke:none;fill-rule:nonzero;fill:rgb(0%,0%,0%);fill-opacity:1;" d="M 132.449219 169.082031 C 132.449219 171.09375 132.449219 171.09375 133.777344 171.054688 C 134.621094 171.015625 134.78125 170.933594 134.257812 170.8125 C 132.929688 170.492188 132.570312 169.886719 133.574219 169.644531 C 134.660156 169.324219 134.742188 168.679688 133.65625 168.679688 C 133.210938 168.679688 132.851562 168.476562 132.851562 168.277344 C 132.851562 168.035156 133.210938 167.875 133.613281 167.875 C 134.058594 167.875 134.542969 167.671875 134.660156 167.472656 C 134.824219 167.230469 134.378906 167.070312 133.695312 167.070312 C 132.488281 167.070312 132.449219 167.109375 132.449219 169.082031 Z M 132.449219 169.082031 "/>
<path style=" stroke:none;fill-rule:nonzero;fill:rgb(0%,0%,0%);fill-opacity:1;" d="M 137.15625 167.351562 C 136.996094 167.472656 136.875 168.398438 136.875 169.363281 L 136.875 171.09375 L 138.40625 171.054688 C 139.652344 171.015625 139.734375 170.972656 138.929688 170.734375 C 137.601562 170.371094 137.398438 169.605469 138.566406 169.363281 L 139.492188 169.203125 L 138.605469 168.878906 C 137.480469 168.519531 137.398438 167.875 138.484375 167.875 C 138.929688 167.875 139.292969 167.671875 139.292969 167.472656 C 139.292969 167.027344 137.558594 166.910156 137.15625 167.351562 Z M 137.15625 167.351562 "/>
<path style=" stroke:none;fill-rule:nonzero;fill:rgb(0%,0%,0%);fill-opacity:1;" d="M 141.707031 169.164062 C 141.707031 171.09375 141.746094 171.175781 142.3125 170.449219 C 142.875 169.726562 142.953125 169.726562 143.476562 170.371094 C 144.242188 171.375 144.324219 171.296875 144.324219 169.566406 C 144.324219 167.671875 143.921875 167.070312 142.671875 167.070312 C 141.789062 167.070312 141.707031 167.230469 141.707031 169.164062 Z M 143.71875 168.519531 C 143.71875 168.878906 143.4375 169.082031 143.035156 169 C 142.027344 168.800781 141.910156 167.875 142.875 167.875 C 143.359375 167.875 143.71875 168.117188 143.71875 168.519531 Z M 143.71875 168.519531 "/>
<path style=" stroke:none;fill-rule:nonzero;fill:rgb(0%,0%,0%);fill-opacity:1;" d="M 146.941406 167.671875 C 146.296875 168.4375 147.0625 169.484375 148.1875 169.484375 C 148.710938 169.484375 148.832031 169.6875 148.671875 170.128906 C 148.550781 170.492188 148.148438 170.691406 147.707031 170.570312 C 147.261719 170.449219 146.941406 170.53125 146.941406 170.734375 C 146.941406 170.933594 147.503906 171.09375 148.148438 171.09375 C 149.15625 171.09375 149.355469 170.933594 149.355469 170.089844 C 149.355469 169.363281 149.074219 169.042969 148.347656 168.839844 C 147.140625 168.558594 147.019531 167.875 148.148438 167.875 C 148.589844 167.875 148.953125 167.671875 148.953125 167.472656 C 148.953125 166.867188 147.503906 166.988281 146.941406 167.671875 Z M 146.941406 167.671875 "/>
<path style=" stroke:none;fill-rule:nonzero;fill:rgb(0%,0%,0%);fill-opacity:1;" d="M 112.761719 169.363281 C 112.800781 170.570312 112.921875 170.851562 113.003906 170.167969 C 113.203125 168.800781 113.726562 168.800781 114.574219 170.089844 C 115.539062 171.578125 115.941406 171.335938 115.902344 169.164062 C 115.863281 168.117188 115.78125 167.632812 115.660156 168.074219 C 115.339844 169.484375 114.816406 169.605469 114.128906 168.519531 C 113.125 166.988281 112.722656 167.230469 112.761719 169.363281 Z M 112.761719 169.363281 "/>
<path style=" stroke:none;fill-rule:nonzero;fill:rgb(0%,0%,0%);fill-opacity:1;" d="M 123.589844 169.285156 C 123.589844 170.289062 123.792969 171.09375 123.992188 171.09375 C 124.234375 171.09375 124.394531 170.289062 124.394531 169.285156 C 124.394531 168.277344 124.234375 167.472656 123.992188 167.472656 C 123.792969 167.472656 123.589844 168.277344 123.589844 169.285156 Z M 123.589844 169.285156 "/>
<path style=" stroke:none;fill-rule:nonzero;fill:rgb(0%,0%,0%);fill-opacity:1;" d="M 126.410156 168.277344 C 126.410156 168.878906 126.691406 169.082031 127.414062 169.082031 C 128.339844 169.082031 128.382812 169 127.9375 168.277344 C 127.65625 167.835938 127.214844 167.472656 126.933594 167.472656 C 126.652344 167.472656 126.410156 167.835938 126.410156 168.277344 Z M 126.410156 168.277344 "/>
<path style=" stroke:none;fill-rule:nonzero;fill:rgb(0%,0%,0%);fill-opacity:1;" d="M 129.226562 168.277344 C 129.226562 168.71875 129.429688 169.082031 129.628906 169.082031 C 129.871094 169.082031 130.03125 168.71875 130.03125 168.277344 C 130.03125 167.835938 129.871094 167.472656 129.628906 167.472656 C 129.429688 167.472656 129.226562 167.835938 129.226562 168.277344 Z M 129.226562 168.277344 "/>
<path style=" stroke:none;fill-rule:nonzero;fill:rgb(0%,0%,0%);fill-opacity:1;" d="M 152.738281 169.042969 C 152.132812 169.96875 151.730469 170.8125 151.851562 170.894531 C 151.972656 171.015625 152.535156 170.371094 153.140625 169.445312 C 153.742188 168.558594 154.148438 167.714844 154.027344 167.59375 C 153.945312 167.472656 153.339844 168.15625 152.738281 169.042969 Z M 152.738281 169.042969 "/>
<path style=" stroke:none;fill-rule:nonzero;fill:rgb(0%,0%,0%);fill-opacity:1;" d="M 104.066406 169.203125 C 103.382812 169.726562 103.382812 169.808594 104.265625 170.410156 C 105.3125 171.136719 105.835938 171.015625 105.152344 170.167969 C 104.789062 169.765625 104.832031 169.484375 105.152344 169.164062 C 105.796875 168.519531 104.992188 168.558594 104.066406 169.203125 Z M 104.066406 169.203125 "/>
<path style=" stroke:none;fill-rule:nonzero;fill:rgb(0%,0%,0%);fill-opacity:1;" d="M 157.164062 169.886719 C 157.125 170.894531 157.207031 171.015625 157.851562 170.652344 C 158.777344 170.167969 158.855469 169.242188 157.972656 168.921875 C 157.609375 168.800781 157.328125 168.679688 157.285156 168.679688 C 157.246094 168.679688 157.207031 169.203125 157.164062 169.886719 Z M 157.164062 169.886719 "/>
<path style=" stroke:none;fill-rule:nonzero;fill:rgb(0%,0%,0%);fill-opacity:1;" d="M 107.890625 170.089844 C 107.890625 170.972656 108.050781 171.09375 109.21875 171.054688 C 110.144531 171.015625 110.265625 170.933594 109.621094 170.8125 C 109.097656 170.734375 108.695312 170.371094 108.695312 170.089844 C 108.695312 169.808594 109.097656 169.445312 109.621094 169.363281 C 110.265625 169.242188 110.144531 169.164062 109.21875 169.121094 C 108.050781 169.082031 107.890625 169.203125 107.890625 170.089844 Z M 107.890625 170.089844 "/>
<path style=" stroke:none;fill-rule:nonzero;fill:rgb(0%,0%,0%);fill-opacity:1;" d="M 126.410156 170.046875 C 126.410156 170.371094 126.609375 170.773438 126.8125 170.894531 C 127.054688 171.015625 127.214844 170.773438 127.214844 170.332031 C 127.214844 169.847656 127.054688 169.484375 126.8125 169.484375 C 126.609375 169.484375 126.410156 169.726562 126.410156 170.046875 Z M 126.410156 170.046875 "/>
<path style=" stroke:none;fill-rule:nonzero;fill:rgb(0%,0%,0%);fill-opacity:1;" d="M 128.421875 169.808594 C 128.421875 170.210938 129.308594 171.09375 129.710938 171.09375 C 129.871094 171.09375 130.03125 170.734375 130.03125 170.289062 C 130.03125 169.765625 129.75 169.484375 129.226562 169.484375 C 128.785156 169.484375 128.421875 169.644531 128.421875 169.808594 Z M 128.421875 169.808594 "/>
</g>
</svg>
