<svg width="162" height="154" viewBox="0 0 162 154" fill="none" xmlns="http://www.w3.org/2000/svg">
<path d="M154 80.6719C154 71.1511 152.112 61.7234 148.443 52.9273C144.775 44.1312 139.397 36.1389 132.619 29.4066C125.84 22.6744 117.793 17.3341 108.936 13.6906C100.079 10.0471 90.5865 8.17188 81 8.17188C71.4135 8.17187 61.9209 10.0471 53.0641 13.6906C44.2074 17.3341 36.1599 22.6744 29.3812 29.4066C22.6026 36.1388 17.2254 44.1312 13.5568 52.9273C9.88821 61.7234 8 71.151 8 80.6718" stroke="#DDEDC9" stroke-width="16" stroke-linecap="round" stroke-linejoin="round"/>
<path d="M8 80.6719C8 72.927 9.24885 65.2826 11.656 58.0156" stroke="#89BB4D" stroke-width="16" stroke-linecap="round" stroke-linejoin="round"/>
<path d="M72.9986 91.7891C72.9522 91.3549 72.7566 91.0168 72.4119 90.7749C72.0705 90.5329 71.6264 90.4119 71.0795 90.4119C70.6951 90.4119 70.3653 90.4699 70.0902 90.5859C69.8151 90.7019 69.6046 90.8594 69.4588 91.0582C69.313 91.2571 69.2384 91.4841 69.2351 91.7393C69.2351 91.9515 69.2831 92.1354 69.3793 92.2912C69.4787 92.447 69.6129 92.5795 69.782 92.6889C69.951 92.795 70.1383 92.8845 70.3438 92.9574C70.5492 93.0303 70.7564 93.0916 70.9652 93.1413L71.9197 93.38C72.3042 93.4695 72.6738 93.5904 73.0284 93.7429C73.3864 93.8954 73.7062 94.0876 73.9879 94.3196C74.273 94.5516 74.4983 94.8317 74.6641 95.1598C74.8298 95.4879 74.9126 95.8724 74.9126 96.3132C74.9126 96.9098 74.7602 97.4351 74.4553 97.8892C74.1503 98.34 73.7095 98.6929 73.1328 98.9482C72.5594 99.2 71.8651 99.326 71.0497 99.326C70.2576 99.326 69.5698 99.2034 68.9865 98.9581C68.4065 98.7128 67.9524 98.3549 67.6243 97.8842C67.2995 97.4136 67.1238 96.8402 67.0973 96.1641H68.9119C68.9384 96.5187 69.0478 96.8137 69.2401 97.049C69.4323 97.2843 69.6825 97.46 69.9908 97.576C70.3023 97.692 70.6503 97.75 71.0348 97.75C71.4358 97.75 71.7872 97.6903 72.0888 97.571C72.3937 97.4484 72.6323 97.2794 72.8047 97.0639C72.977 96.8452 73.0649 96.59 73.0682 96.2983C73.0649 96.0331 72.987 95.8144 72.8345 95.642C72.6821 95.4664 72.4683 95.3205 72.1932 95.2045C71.9214 95.0852 71.6032 94.9792 71.2386 94.8864L70.0803 94.5881C69.2417 94.3726 68.5788 94.0462 68.0916 93.6087C67.6077 93.1679 67.3658 92.5829 67.3658 91.8537C67.3658 91.2538 67.5282 90.7285 67.853 90.2777C68.1811 89.8269 68.6269 89.4773 69.1903 89.2287C69.7538 88.9768 70.3918 88.8509 71.1044 88.8509C71.8269 88.8509 72.46 88.9768 73.0036 89.2287C73.5504 89.4773 73.9796 89.8236 74.2912 90.2678C74.6027 90.7086 74.7635 91.2157 74.7734 91.7891H72.9986ZM79.8084 99.321C79.0627 99.321 78.4164 99.157 77.8695 98.8288C77.3226 98.5007 76.8984 98.0417 76.5968 97.4517C76.2985 96.8617 76.1493 96.1723 76.1493 95.3835C76.1493 94.5947 76.2985 93.9036 76.5968 93.3104C76.8984 92.7171 77.3226 92.2564 77.8695 91.9283C78.4164 91.6001 79.0627 91.4361 79.8084 91.4361C80.5542 91.4361 81.2005 91.6001 81.7473 91.9283C82.2942 92.2564 82.7168 92.7171 83.0151 93.3104C83.3167 93.9036 83.4675 94.5947 83.4675 95.3835C83.4675 96.1723 83.3167 96.8617 83.0151 97.4517C82.7168 98.0417 82.2942 98.5007 81.7473 98.8288C81.2005 99.157 80.5542 99.321 79.8084 99.321ZM79.8184 97.8793C80.2227 97.8793 80.5608 97.7682 80.8326 97.5462C81.1043 97.3208 81.3065 97.0192 81.4391 96.6413C81.575 96.2635 81.6429 95.8426 81.6429 95.3786C81.6429 94.9112 81.575 94.4886 81.4391 94.1108C81.3065 93.7296 81.1043 93.4264 80.8326 93.201C80.5608 92.9756 80.2227 92.8629 79.8184 92.8629C79.4041 92.8629 79.0594 92.9756 78.7843 93.201C78.5125 93.4264 78.3087 93.7296 78.1728 94.1108C78.0402 94.4886 77.9739 94.9112 77.9739 95.3786C77.9739 95.8426 78.0402 96.2635 78.1728 96.6413C78.3087 97.0192 78.5125 97.3208 78.7843 97.5462C79.0594 97.7682 79.4041 97.8793 79.8184 97.8793ZM86.7947 88.9901V99.1719H84.995V88.9901H86.7947ZM91.4792 99.3061C90.8793 99.3061 90.3424 99.152 89.8684 98.8438C89.3945 98.5355 89.0199 98.0881 88.7449 97.5014C88.4698 96.9148 88.3322 96.2022 88.3322 95.3636C88.3322 94.5152 88.4714 93.7992 88.7498 93.2159C89.0315 92.6293 89.411 92.1868 89.8883 91.8885C90.3656 91.5869 90.8975 91.4361 91.4842 91.4361C91.9316 91.4361 92.2995 91.5123 92.5879 91.6648C92.8762 91.8139 93.1049 91.9946 93.274 92.2067C93.443 92.4155 93.5739 92.6127 93.6667 92.7983H93.7413V88.9901H95.546V99.1719H93.7761V97.9688H93.6667C93.5739 98.1544 93.4397 98.3516 93.264 98.5604C93.0884 98.7659 92.8564 98.9415 92.568 99.0874C92.2797 99.2332 91.9167 99.3061 91.4792 99.3061ZM91.9814 97.8295C92.3625 97.8295 92.6873 97.7268 92.9558 97.5213C93.2243 97.3125 93.4281 97.0225 93.5673 96.6513C93.7065 96.2801 93.7761 95.8475 93.7761 95.3537C93.7761 94.8598 93.7065 94.4306 93.5673 94.0661C93.4314 93.7015 93.2292 93.4181 92.9608 93.2159C92.6956 93.0137 92.3691 92.9126 91.9814 92.9126C91.5803 92.9126 91.2456 93.017 90.9771 93.2259C90.7086 93.4347 90.5065 93.723 90.3706 94.0909C90.2347 94.4588 90.1667 94.8797 90.1667 95.3537C90.1667 95.831 90.2347 96.2569 90.3706 96.6314C90.5098 97.0026 90.7136 97.2959 90.9821 97.5114C91.2538 97.7235 91.5869 97.8295 91.9814 97.8295Z" fill="#2B4D02"/>
<path d="M62.7402 52.4902L61.6641 78.875L53.5742 78.5039L54.0195 60.9512L51.0508 62.9922L48.2676 56.6465L54.3164 52.1191L62.7402 52.4902ZM87.1025 65.8867C87.1025 66.9753 86.9788 68.0576 86.7314 69.1338C86.4964 70.21 86.1501 71.2428 85.6924 72.2324C85.2347 73.222 84.6719 74.1436 84.0039 74.9971C83.3483 75.8506 82.5938 76.5928 81.7402 77.2236C80.8867 77.8545 79.9466 78.3493 78.9199 78.708C77.9056 79.0667 76.8109 79.2461 75.6357 79.2461C74.4482 79.2461 73.3411 79.0667 72.3145 78.708C71.2878 78.3493 70.3477 77.8545 69.4941 77.2236C68.653 76.5928 67.8984 75.8506 67.2305 74.9971C66.5625 74.1436 65.9997 73.222 65.542 72.2324C65.0843 71.2428 64.7318 70.21 64.4844 69.1338C64.2493 68.0452 64.1318 66.9629 64.1318 65.8867C64.1318 64.8105 64.2493 63.7282 64.4844 62.6396C64.7318 61.5511 65.0843 60.512 65.542 59.5225C65.9997 58.5329 66.5625 57.6113 67.2305 56.7578C67.8984 55.8919 68.653 55.1436 69.4941 54.5127C70.3477 53.8818 71.2878 53.387 72.3145 53.0283C73.3535 52.6696 74.4606 52.4902 75.6357 52.4902C76.8109 52.4902 77.9056 52.6696 78.9199 53.0283C79.9466 53.387 80.8867 53.8818 81.7402 54.5127C82.5938 55.1436 83.3483 55.8919 84.0039 56.7578C84.6719 57.6113 85.2347 58.5329 85.6924 59.5225C86.1501 60.512 86.4964 61.5511 86.7314 62.6396C86.9788 63.7282 87.1025 64.8105 87.1025 65.8867ZM79.2725 66.4434C79.2725 65.8991 79.1982 65.293 79.0498 64.625C78.9014 63.957 78.6725 63.3324 78.3633 62.751C78.054 62.1696 77.6582 61.681 77.1758 61.2852C76.6934 60.8893 76.1182 60.6914 75.4502 60.6914C74.7699 60.6914 74.1885 60.8893 73.7061 61.2852C73.2236 61.681 72.8216 62.1696 72.5 62.751C72.1908 63.3324 71.9619 63.957 71.8135 64.625C71.665 65.293 71.5908 65.8991 71.5908 66.4434C71.5908 66.9876 71.665 67.5938 71.8135 68.2617C71.9619 68.9297 72.1908 69.5544 72.5 70.1357C72.8216 70.7171 73.2236 71.2057 73.7061 71.6016C74.1885 71.9974 74.7699 72.1953 75.4502 72.1953C76.1182 72.1953 76.6934 71.9974 77.1758 71.6016C77.6582 71.2057 78.054 70.7171 78.3633 70.1357C78.6725 69.5544 78.9014 68.9297 79.0498 68.2617C79.1982 67.5938 79.2725 66.9876 79.2725 66.4434ZM114.415 71.2676C114.415 71.9232 114.279 72.5726 114.007 73.2158C113.735 73.8467 113.339 74.4157 112.819 74.9229C112.3 75.4176 111.669 75.8258 110.927 76.1475C110.197 76.4567 109.368 76.6113 108.44 76.6113C107.525 76.6113 106.696 76.4567 105.954 76.1475C105.224 75.8258 104.6 75.4176 104.08 74.9229C103.573 74.4157 103.183 73.8467 102.911 73.2158C102.639 72.5726 102.503 71.9232 102.503 71.2676C102.503 70.6243 102.639 69.9811 102.911 69.3379C103.183 68.6947 103.573 68.1257 104.08 67.6309C104.6 67.1237 105.224 66.7155 105.954 66.4062C106.696 66.0846 107.525 65.9238 108.44 65.9238C109.368 65.9238 110.197 66.0846 110.927 66.4062C111.669 66.7155 112.3 67.1237 112.819 67.6309C113.339 68.1257 113.735 68.6947 114.007 69.3379C114.279 69.9811 114.415 70.6243 114.415 71.2676ZM110.222 71.2305C110.222 71.0326 110.185 70.8223 110.11 70.5996C110.049 70.3646 109.943 70.1481 109.795 69.9502C109.646 69.7399 109.455 69.5667 109.22 69.4307C108.997 69.2946 108.725 69.2266 108.403 69.2266C108.082 69.2266 107.803 69.2946 107.568 69.4307C107.333 69.5667 107.142 69.7399 106.993 69.9502C106.845 70.1481 106.733 70.3646 106.659 70.5996C106.585 70.8223 106.548 71.0326 106.548 71.2305C106.548 71.4284 106.585 71.6449 106.659 71.8799C106.733 72.1025 106.845 72.319 106.993 72.5293C107.142 72.7272 107.333 72.8942 107.568 73.0303C107.803 73.1663 108.082 73.2344 108.403 73.2344C108.725 73.2344 108.997 73.1663 109.22 73.0303C109.455 72.8942 109.646 72.7272 109.795 72.5293C109.943 72.319 110.049 72.1025 110.11 71.8799C110.185 71.6449 110.222 71.4284 110.222 71.2305ZM100.313 62.0645C100.313 62.7201 100.177 63.3695 99.9053 64.0127C99.6331 64.6436 99.2373 65.2126 98.7178 65.7197C98.1982 66.2145 97.5674 66.6227 96.8252 66.9443C96.0954 67.2536 95.2666 67.4082 94.3389 67.4082C93.4235 67.4082 92.5947 67.2536 91.8525 66.9443C91.1227 66.6227 90.498 66.2145 89.9785 65.7197C89.4714 65.2126 89.0817 64.6436 88.8096 64.0127C88.5374 63.3695 88.4014 62.7201 88.4014 62.0645C88.4014 61.4212 88.5374 60.778 88.8096 60.1348C89.0817 59.4915 89.4714 58.9225 89.9785 58.4277C90.498 57.9206 91.1227 57.5124 91.8525 57.2031C92.5947 56.8815 93.4235 56.7207 94.3389 56.7207C95.2666 56.7207 96.0954 56.8815 96.8252 57.2031C97.5674 57.5124 98.1982 57.9206 98.7178 58.4277C99.2373 58.9225 99.6331 59.4915 99.9053 60.1348C100.177 60.778 100.313 61.4212 100.313 62.0645ZM96.1201 62.0273C96.1201 61.8294 96.083 61.6191 96.0088 61.3965C95.9469 61.1615 95.8418 60.945 95.6934 60.7471C95.5449 60.5368 95.3532 60.3636 95.1182 60.2275C94.8955 60.0915 94.6234 60.0234 94.3018 60.0234C93.9801 60.0234 93.7018 60.0915 93.4668 60.2275C93.2318 60.3636 93.04 60.5368 92.8916 60.7471C92.7432 60.945 92.6318 61.1615 92.5576 61.3965C92.4834 61.6191 92.4463 61.8294 92.4463 62.0273C92.4463 62.2253 92.4834 62.4417 92.5576 62.6768C92.6318 62.8994 92.7432 63.1159 92.8916 63.3262C93.04 63.5241 93.2318 63.6911 93.4668 63.8271C93.7018 63.9632 93.9801 64.0312 94.3018 64.0312C94.6234 64.0312 94.8955 63.9632 95.1182 63.8271C95.3532 63.6911 95.5449 63.5241 95.6934 63.3262C95.8418 63.1159 95.9469 62.8994 96.0088 62.6768C96.083 62.4417 96.1201 62.2253 96.1201 62.0273ZM107.735 56.0898C106.152 59.541 104.68 63.054 103.319 66.6289C101.971 70.1914 100.709 73.791 99.5342 77.4277L95.6748 76.0176C96.4046 74.224 97.1283 72.4365 97.8457 70.6553C98.5755 68.8617 99.3177 67.0804 100.072 65.3115C100.839 63.5426 101.631 61.7923 102.447 60.0605C103.264 58.3164 104.136 56.597 105.063 54.9023L107.735 56.0898Z" fill="#2B4D02"/>
</svg>
