<svg width="162" height="154" viewBox="0 0 162 154" fill="none" xmlns="http://www.w3.org/2000/svg">
<path d="M154 80.6719C154 71.1511 152.112 61.7234 148.443 52.9273C144.775 44.1312 139.397 36.1389 132.619 29.4066C125.84 22.6744 117.793 17.3341 108.936 13.6906C100.079 10.0471 90.5865 8.17188 81 8.17188C71.4135 8.17187 61.9209 10.0471 53.0641 13.6906C44.2074 17.3341 36.1599 22.6744 29.3812 29.4066C22.6026 36.1388 17.2254 44.1312 13.5568 52.9273C9.88821 61.7234 8 71.151 8 80.6718" stroke="#DDEDC9" stroke-width="16" stroke-linecap="round" stroke-linejoin="round"/>
<path d="M154 80.6719C154 71.1511 152.112 61.7234 148.443 52.9273C144.775 44.1312 139.397 36.1389 132.619 29.4066C125.84 22.6744 117.793 17.3341 108.936 13.6906C100.079 10.0471 90.5865 8.17188 81 8.17188C71.4135 8.17187 61.9209 10.0471 53.0641 13.6906C44.2074 17.3341 36.1599 22.6744 29.3812 29.4066C22.6026 36.1388 17.2254 44.1312 13.5568 52.9273C9.88821 61.7234 8 71.151 8 80.6718" stroke="#89BB4D" stroke-width="16" stroke-linecap="round" stroke-linejoin="round"/>
<path d="M72.9986 91.7891C72.9522 91.3549 72.7566 91.0168 72.4119 90.7749C72.0705 90.5329 71.6264 90.4119 71.0795 90.4119C70.6951 90.4119 70.3653 90.4699 70.0902 90.5859C69.8151 90.7019 69.6046 90.8594 69.4588 91.0582C69.313 91.2571 69.2384 91.4841 69.2351 91.7393C69.2351 91.9515 69.2831 92.1354 69.3793 92.2912C69.4787 92.447 69.6129 92.5795 69.782 92.6889C69.951 92.795 70.1383 92.8845 70.3438 92.9574C70.5492 93.0303 70.7564 93.0916 70.9652 93.1413L71.9197 93.38C72.3042 93.4695 72.6738 93.5904 73.0284 93.7429C73.3864 93.8954 73.7062 94.0876 73.9879 94.3196C74.273 94.5516 74.4983 94.8317 74.6641 95.1598C74.8298 95.4879 74.9126 95.8724 74.9126 96.3132C74.9126 96.9098 74.7602 97.4351 74.4553 97.8892C74.1503 98.34 73.7095 98.6929 73.1328 98.9482C72.5594 99.2 71.8651 99.326 71.0497 99.326C70.2576 99.326 69.5698 99.2034 68.9865 98.9581C68.4065 98.7128 67.9524 98.3549 67.6243 97.8842C67.2995 97.4136 67.1238 96.8402 67.0973 96.1641H68.9119C68.9384 96.5187 69.0478 96.8137 69.2401 97.049C69.4323 97.2843 69.6825 97.46 69.9908 97.576C70.3023 97.692 70.6503 97.75 71.0348 97.75C71.4358 97.75 71.7872 97.6903 72.0888 97.571C72.3937 97.4484 72.6323 97.2794 72.8047 97.0639C72.977 96.8452 73.0649 96.59 73.0682 96.2983C73.0649 96.0331 72.987 95.8144 72.8345 95.642C72.6821 95.4664 72.4683 95.3205 72.1932 95.2045C71.9214 95.0852 71.6032 94.9792 71.2386 94.8864L70.0803 94.5881C69.2417 94.3726 68.5788 94.0462 68.0916 93.6087C67.6077 93.1679 67.3658 92.5829 67.3658 91.8537C67.3658 91.2538 67.5282 90.7285 67.853 90.2777C68.1811 89.8269 68.6269 89.4773 69.1903 89.2287C69.7538 88.9768 70.3918 88.8509 71.1044 88.8509C71.8269 88.8509 72.46 88.9768 73.0036 89.2287C73.5504 89.4773 73.9796 89.8236 74.2912 90.2678C74.6027 90.7086 74.7635 91.2157 74.7734 91.7891H72.9986ZM79.8084 99.321C79.0627 99.321 78.4164 99.157 77.8695 98.8288C77.3226 98.5007 76.8984 98.0417 76.5968 97.4517C76.2985 96.8617 76.1493 96.1723 76.1493 95.3835C76.1493 94.5947 76.2985 93.9036 76.5968 93.3104C76.8984 92.7171 77.3226 92.2564 77.8695 91.9283C78.4164 91.6001 79.0627 91.4361 79.8084 91.4361C80.5542 91.4361 81.2005 91.6001 81.7473 91.9283C82.2942 92.2564 82.7168 92.7171 83.0151 93.3104C83.3167 93.9036 83.4675 94.5947 83.4675 95.3835C83.4675 96.1723 83.3167 96.8617 83.0151 97.4517C82.7168 98.0417 82.2942 98.5007 81.7473 98.8288C81.2005 99.157 80.5542 99.321 79.8084 99.321ZM79.8184 97.8793C80.2227 97.8793 80.5608 97.7682 80.8326 97.5462C81.1043 97.3208 81.3065 97.0192 81.4391 96.6413C81.575 96.2635 81.6429 95.8426 81.6429 95.3786C81.6429 94.9112 81.575 94.4886 81.4391 94.1108C81.3065 93.7296 81.1043 93.4264 80.8326 93.201C80.5608 92.9756 80.2227 92.8629 79.8184 92.8629C79.4041 92.8629 79.0594 92.9756 78.7843 93.201C78.5125 93.4264 78.3087 93.7296 78.1728 94.1108C78.0402 94.4886 77.9739 94.9112 77.9739 95.3786C77.9739 95.8426 78.0402 96.2635 78.1728 96.6413C78.3087 97.0192 78.5125 97.3208 78.7843 97.5462C79.0594 97.7682 79.4041 97.8793 79.8184 97.8793ZM86.7947 88.9901V99.1719H84.995V88.9901H86.7947ZM91.4792 99.3061C90.8793 99.3061 90.3424 99.152 89.8684 98.8438C89.3945 98.5355 89.0199 98.0881 88.7449 97.5014C88.4698 96.9148 88.3322 96.2022 88.3322 95.3636C88.3322 94.5152 88.4714 93.7992 88.7498 93.2159C89.0315 92.6293 89.411 92.1868 89.8883 91.8885C90.3656 91.5869 90.8975 91.4361 91.4842 91.4361C91.9316 91.4361 92.2995 91.5123 92.5879 91.6648C92.8762 91.8139 93.1049 91.9946 93.274 92.2067C93.443 92.4155 93.5739 92.6127 93.6667 92.7983H93.7413V88.9901H95.546V99.1719H93.7761V97.9688H93.6667C93.5739 98.1544 93.4397 98.3516 93.264 98.5604C93.0884 98.7659 92.8564 98.9415 92.568 99.0874C92.2797 99.2332 91.9167 99.3061 91.4792 99.3061ZM91.9814 97.8295C92.3625 97.8295 92.6873 97.7268 92.9558 97.5213C93.2243 97.3125 93.4281 97.0225 93.5673 96.6513C93.7065 96.2801 93.7761 95.8475 93.7761 95.3537C93.7761 94.8598 93.7065 94.4306 93.5673 94.0661C93.4314 93.7015 93.2292 93.4181 92.9608 93.2159C92.6956 93.0137 92.3691 92.9126 91.9814 92.9126C91.5803 92.9126 91.2456 93.017 90.9771 93.2259C90.7086 93.4347 90.5065 93.723 90.3706 94.0909C90.2347 94.4588 90.1667 94.8797 90.1667 95.3537C90.1667 95.831 90.2347 96.2569 90.3706 96.6314C90.5098 97.0026 90.7136 97.2959 90.9821 97.5114C91.2538 97.7235 91.5869 97.8295 91.9814 97.8295Z" fill="#2B4D02"/>
<path d="M50.7168 52.4902L49.6406 78.875L41.5508 78.5039L41.9961 60.9512L39.0273 62.9922L36.2441 56.6465L42.293 52.1191L50.7168 52.4902ZM75.0791 65.8867C75.0791 66.9753 74.9554 68.0576 74.708 69.1338C74.473 70.21 74.1266 71.2428 73.6689 72.2324C73.2113 73.222 72.6484 74.1436 71.9805 74.9971C71.3249 75.8506 70.5703 76.5928 69.7168 77.2236C68.8633 77.8545 67.9232 78.3493 66.8965 78.708C65.8822 79.0667 64.7874 79.2461 63.6123 79.2461C62.4248 79.2461 61.3177 79.0667 60.291 78.708C59.2643 78.3493 58.3242 77.8545 57.4707 77.2236C56.6296 76.5928 55.875 75.8506 55.207 74.9971C54.5391 74.1436 53.9762 73.222 53.5186 72.2324C53.0609 71.2428 52.7083 70.21 52.4609 69.1338C52.2259 68.0452 52.1084 66.9629 52.1084 65.8867C52.1084 64.8105 52.2259 63.7282 52.4609 62.6396C52.7083 61.5511 53.0609 60.512 53.5186 59.5225C53.9762 58.5329 54.5391 57.6113 55.207 56.7578C55.875 55.8919 56.6296 55.1436 57.4707 54.5127C58.3242 53.8818 59.2643 53.387 60.291 53.0283C61.3301 52.6696 62.4372 52.4902 63.6123 52.4902C64.7874 52.4902 65.8822 52.6696 66.8965 53.0283C67.9232 53.387 68.8633 53.8818 69.7168 54.5127C70.5703 55.1436 71.3249 55.8919 71.9805 56.7578C72.6484 57.6113 73.2113 58.5329 73.6689 59.5225C74.1266 60.512 74.473 61.5511 74.708 62.6396C74.9554 63.7282 75.0791 64.8105 75.0791 65.8867ZM67.249 66.4434C67.249 65.8991 67.1748 65.293 67.0264 64.625C66.8779 63.957 66.6491 63.3324 66.3398 62.751C66.0306 62.1696 65.6348 61.681 65.1523 61.2852C64.6699 60.8893 64.0947 60.6914 63.4268 60.6914C62.7464 60.6914 62.165 60.8893 61.6826 61.2852C61.2002 61.681 60.7982 62.1696 60.4766 62.751C60.1673 63.3324 59.9385 63.957 59.79 64.625C59.6416 65.293 59.5674 65.8991 59.5674 66.4434C59.5674 66.9876 59.6416 67.5938 59.79 68.2617C59.9385 68.9297 60.1673 69.5544 60.4766 70.1357C60.7982 70.7171 61.2002 71.2057 61.6826 71.6016C62.165 71.9974 62.7464 72.1953 63.4268 72.1953C64.0947 72.1953 64.6699 71.9974 65.1523 71.6016C65.6348 71.2057 66.0306 70.7171 66.3398 70.1357C66.6491 69.5544 66.8779 68.9297 67.0264 68.2617C67.1748 67.5938 67.249 66.9876 67.249 66.4434ZM99.126 65.8867C99.126 66.9753 99.0023 68.0576 98.7549 69.1338C98.5199 70.21 98.1735 71.2428 97.7158 72.2324C97.2581 73.222 96.6953 74.1436 96.0273 74.9971C95.3717 75.8506 94.6172 76.5928 93.7637 77.2236C92.9102 77.8545 91.9701 78.3493 90.9434 78.708C89.929 79.0667 88.8343 79.2461 87.6592 79.2461C86.4717 79.2461 85.3646 79.0667 84.3379 78.708C83.3112 78.3493 82.3711 77.8545 81.5176 77.2236C80.6764 76.5928 79.9219 75.8506 79.2539 74.9971C78.5859 74.1436 78.0231 73.222 77.5654 72.2324C77.1077 71.2428 76.7552 70.21 76.5078 69.1338C76.2728 68.0452 76.1553 66.9629 76.1553 65.8867C76.1553 64.8105 76.2728 63.7282 76.5078 62.6396C76.7552 61.5511 77.1077 60.512 77.5654 59.5225C78.0231 58.5329 78.5859 57.6113 79.2539 56.7578C79.9219 55.8919 80.6764 55.1436 81.5176 54.5127C82.3711 53.8818 83.3112 53.387 84.3379 53.0283C85.377 52.6696 86.484 52.4902 87.6592 52.4902C88.8343 52.4902 89.929 52.6696 90.9434 53.0283C91.9701 53.387 92.9102 53.8818 93.7637 54.5127C94.6172 55.1436 95.3717 55.8919 96.0273 56.7578C96.6953 57.6113 97.2581 58.5329 97.7158 59.5225C98.1735 60.512 98.5199 61.5511 98.7549 62.6396C99.0023 63.7282 99.126 64.8105 99.126 65.8867ZM91.2959 66.4434C91.2959 65.8991 91.2217 65.293 91.0732 64.625C90.9248 63.957 90.696 63.3324 90.3867 62.751C90.0775 62.1696 89.6816 61.681 89.1992 61.2852C88.7168 60.8893 88.1416 60.6914 87.4736 60.6914C86.7933 60.6914 86.2119 60.8893 85.7295 61.2852C85.2471 61.681 84.8451 62.1696 84.5234 62.751C84.2142 63.3324 83.9854 63.957 83.8369 64.625C83.6885 65.293 83.6143 65.8991 83.6143 66.4434C83.6143 66.9876 83.6885 67.5938 83.8369 68.2617C83.9854 68.9297 84.2142 69.5544 84.5234 70.1357C84.8451 70.7171 85.2471 71.2057 85.7295 71.6016C86.2119 71.9974 86.7933 72.1953 87.4736 72.1953C88.1416 72.1953 88.7168 71.9974 89.1992 71.6016C89.6816 71.2057 90.0775 70.7171 90.3867 70.1357C90.696 69.5544 90.9248 68.9297 91.0732 68.2617C91.2217 67.5938 91.2959 66.9876 91.2959 66.4434ZM126.438 71.2676C126.438 71.9232 126.302 72.5726 126.03 73.2158C125.758 73.8467 125.362 74.4157 124.843 74.9229C124.323 75.4176 123.692 75.8258 122.95 76.1475C122.22 76.4567 121.392 76.6113 120.464 76.6113C119.549 76.6113 118.72 76.4567 117.978 76.1475C117.248 75.8258 116.623 75.4176 116.104 74.9229C115.596 74.4157 115.207 73.8467 114.935 73.2158C114.662 72.5726 114.526 71.9232 114.526 71.2676C114.526 70.6243 114.662 69.9811 114.935 69.3379C115.207 68.6947 115.596 68.1257 116.104 67.6309C116.623 67.1237 117.248 66.7155 117.978 66.4062C118.72 66.0846 119.549 65.9238 120.464 65.9238C121.392 65.9238 122.22 66.0846 122.95 66.4062C123.692 66.7155 124.323 67.1237 124.843 67.6309C125.362 68.1257 125.758 68.6947 126.03 69.3379C126.302 69.9811 126.438 70.6243 126.438 71.2676ZM122.245 71.2305C122.245 71.0326 122.208 70.8223 122.134 70.5996C122.072 70.3646 121.967 70.1481 121.818 69.9502C121.67 69.7399 121.478 69.5667 121.243 69.4307C121.021 69.2946 120.748 69.2266 120.427 69.2266C120.105 69.2266 119.827 69.2946 119.592 69.4307C119.357 69.5667 119.165 69.7399 119.017 69.9502C118.868 70.1481 118.757 70.3646 118.683 70.5996C118.608 70.8223 118.571 71.0326 118.571 71.2305C118.571 71.4284 118.608 71.6449 118.683 71.8799C118.757 72.1025 118.868 72.319 119.017 72.5293C119.165 72.7272 119.357 72.8942 119.592 73.0303C119.827 73.1663 120.105 73.2344 120.427 73.2344C120.748 73.2344 121.021 73.1663 121.243 73.0303C121.478 72.8942 121.67 72.7272 121.818 72.5293C121.967 72.319 122.072 72.1025 122.134 71.8799C122.208 71.6449 122.245 71.4284 122.245 71.2305ZM112.337 62.0645C112.337 62.7201 112.201 63.3695 111.929 64.0127C111.657 64.6436 111.261 65.2126 110.741 65.7197C110.222 66.2145 109.591 66.6227 108.849 66.9443C108.119 67.2536 107.29 67.4082 106.362 67.4082C105.447 67.4082 104.618 67.2536 103.876 66.9443C103.146 66.6227 102.521 66.2145 102.002 65.7197C101.495 65.2126 101.105 64.6436 100.833 64.0127C100.561 63.3695 100.425 62.7201 100.425 62.0645C100.425 61.4212 100.561 60.778 100.833 60.1348C101.105 59.4915 101.495 58.9225 102.002 58.4277C102.521 57.9206 103.146 57.5124 103.876 57.2031C104.618 56.8815 105.447 56.7207 106.362 56.7207C107.29 56.7207 108.119 56.8815 108.849 57.2031C109.591 57.5124 110.222 57.9206 110.741 58.4277C111.261 58.9225 111.657 59.4915 111.929 60.1348C112.201 60.778 112.337 61.4212 112.337 62.0645ZM108.144 62.0273C108.144 61.8294 108.106 61.6191 108.032 61.3965C107.97 61.1615 107.865 60.945 107.717 60.7471C107.568 60.5368 107.377 60.3636 107.142 60.2275C106.919 60.0915 106.647 60.0234 106.325 60.0234C106.004 60.0234 105.725 60.0915 105.49 60.2275C105.255 60.3636 105.063 60.5368 104.915 60.7471C104.767 60.945 104.655 61.1615 104.581 61.3965C104.507 61.6191 104.47 61.8294 104.47 62.0273C104.47 62.2253 104.507 62.4417 104.581 62.6768C104.655 62.8994 104.767 63.1159 104.915 63.3262C105.063 63.5241 105.255 63.6911 105.49 63.8271C105.725 63.9632 106.004 64.0312 106.325 64.0312C106.647 64.0312 106.919 63.9632 107.142 63.8271C107.377 63.6911 107.568 63.5241 107.717 63.3262C107.865 63.1159 107.97 62.8994 108.032 62.6768C108.106 62.4417 108.144 62.2253 108.144 62.0273ZM119.759 56.0898C118.175 59.541 116.703 63.054 115.343 66.6289C113.994 70.1914 112.733 73.791 111.558 77.4277L107.698 76.0176C108.428 74.224 109.152 72.4365 109.869 70.6553C110.599 68.8617 111.341 67.0804 112.096 65.3115C112.863 63.5426 113.654 61.7923 114.471 60.0605C115.287 58.3164 116.159 56.597 117.087 54.9023L119.759 56.0898Z" fill="#2B4D02"/>
</svg>
