<svg width="162" height="154" viewBox="0 0 162 154" fill="none" xmlns="http://www.w3.org/2000/svg">
<path d="M154 80.6719C154 71.1511 152.112 61.7234 148.443 52.9273C144.775 44.1312 139.397 36.1389 132.619 29.4066C125.84 22.6744 117.793 17.3341 108.936 13.6906C100.079 10.0471 90.5865 8.17188 81 8.17188C71.4135 8.17187 61.9209 10.0471 53.0641 13.6906C44.2074 17.3341 36.1599 22.6744 29.3812 29.4066C22.6026 36.1388 17.2254 44.1312 13.5568 52.9273C9.88821 61.7234 8 71.151 8 80.6718" stroke="#DDEDC9" stroke-width="16" stroke-linecap="round" stroke-linejoin="round"/>
<path d="M8 80.6721C8 65.3616 12.8804 50.4441 21.9418 38.0577" stroke="#89BB4D" stroke-width="16" stroke-linecap="round" stroke-linejoin="round"/>
<path d="M72.9986 91.7891C72.9522 91.3549 72.7566 91.0168 72.4119 90.7749C72.0705 90.5329 71.6264 90.4119 71.0795 90.4119C70.6951 90.4119 70.3653 90.4699 70.0902 90.5859C69.8151 90.7019 69.6046 90.8594 69.4588 91.0582C69.313 91.2571 69.2384 91.4841 69.2351 91.7393C69.2351 91.9515 69.2831 92.1354 69.3793 92.2912C69.4787 92.447 69.6129 92.5795 69.782 92.6889C69.951 92.795 70.1383 92.8845 70.3438 92.9574C70.5492 93.0303 70.7564 93.0916 70.9652 93.1413L71.9197 93.38C72.3042 93.4695 72.6738 93.5904 73.0284 93.7429C73.3864 93.8954 73.7062 94.0876 73.9879 94.3196C74.273 94.5516 74.4983 94.8317 74.6641 95.1598C74.8298 95.4879 74.9126 95.8724 74.9126 96.3132C74.9126 96.9098 74.7602 97.4351 74.4553 97.8892C74.1503 98.34 73.7095 98.6929 73.1328 98.9482C72.5594 99.2 71.8651 99.326 71.0497 99.326C70.2576 99.326 69.5698 99.2034 68.9865 98.9581C68.4065 98.7128 67.9524 98.3549 67.6243 97.8842C67.2995 97.4136 67.1238 96.8402 67.0973 96.1641H68.9119C68.9384 96.5187 69.0478 96.8137 69.2401 97.049C69.4323 97.2843 69.6825 97.46 69.9908 97.576C70.3023 97.692 70.6503 97.75 71.0348 97.75C71.4358 97.75 71.7872 97.6903 72.0888 97.571C72.3937 97.4484 72.6323 97.2794 72.8047 97.0639C72.977 96.8452 73.0649 96.59 73.0682 96.2983C73.0649 96.0331 72.987 95.8144 72.8345 95.642C72.6821 95.4664 72.4683 95.3205 72.1932 95.2045C71.9214 95.0852 71.6032 94.9792 71.2386 94.8864L70.0803 94.5881C69.2417 94.3726 68.5788 94.0462 68.0916 93.6087C67.6077 93.1679 67.3658 92.5829 67.3658 91.8537C67.3658 91.2538 67.5282 90.7285 67.853 90.2777C68.1811 89.8269 68.6269 89.4773 69.1903 89.2287C69.7538 88.9768 70.3918 88.8509 71.1044 88.8509C71.8269 88.8509 72.46 88.9768 73.0036 89.2287C73.5504 89.4773 73.9796 89.8236 74.2912 90.2678C74.6027 90.7086 74.7635 91.2157 74.7734 91.7891H72.9986ZM79.8084 99.321C79.0627 99.321 78.4164 99.157 77.8695 98.8288C77.3226 98.5007 76.8984 98.0417 76.5968 97.4517C76.2985 96.8617 76.1493 96.1723 76.1493 95.3835C76.1493 94.5947 76.2985 93.9036 76.5968 93.3104C76.8984 92.7171 77.3226 92.2564 77.8695 91.9283C78.4164 91.6001 79.0627 91.4361 79.8084 91.4361C80.5542 91.4361 81.2005 91.6001 81.7473 91.9283C82.2942 92.2564 82.7168 92.7171 83.0151 93.3104C83.3167 93.9036 83.4675 94.5947 83.4675 95.3835C83.4675 96.1723 83.3167 96.8617 83.0151 97.4517C82.7168 98.0417 82.2942 98.5007 81.7473 98.8288C81.2005 99.157 80.5542 99.321 79.8084 99.321ZM79.8184 97.8793C80.2227 97.8793 80.5608 97.7682 80.8326 97.5462C81.1043 97.3208 81.3065 97.0192 81.4391 96.6413C81.575 96.2635 81.6429 95.8426 81.6429 95.3786C81.6429 94.9112 81.575 94.4886 81.4391 94.1108C81.3065 93.7296 81.1043 93.4264 80.8326 93.201C80.5608 92.9756 80.2227 92.8629 79.8184 92.8629C79.4041 92.8629 79.0594 92.9756 78.7843 93.201C78.5125 93.4264 78.3087 93.7296 78.1728 94.1108C78.0402 94.4886 77.9739 94.9112 77.9739 95.3786C77.9739 95.8426 78.0402 96.2635 78.1728 96.6413C78.3087 97.0192 78.5125 97.3208 78.7843 97.5462C79.0594 97.7682 79.4041 97.8793 79.8184 97.8793ZM86.7947 88.9901V99.1719H84.995V88.9901H86.7947ZM91.4792 99.3061C90.8793 99.3061 90.3424 99.152 89.8684 98.8438C89.3945 98.5355 89.0199 98.0881 88.7449 97.5014C88.4698 96.9148 88.3322 96.2022 88.3322 95.3636C88.3322 94.5152 88.4714 93.7992 88.7498 93.2159C89.0315 92.6293 89.411 92.1868 89.8883 91.8885C90.3656 91.5869 90.8975 91.4361 91.4842 91.4361C91.9316 91.4361 92.2995 91.5123 92.5879 91.6648C92.8762 91.8139 93.1049 91.9946 93.274 92.2067C93.443 92.4155 93.5739 92.6127 93.6667 92.7983H93.7413V88.9901H95.546V99.1719H93.7761V97.9688H93.6667C93.5739 98.1544 93.4397 98.3516 93.264 98.5604C93.0884 98.7659 92.8564 98.9415 92.568 99.0874C92.2797 99.2332 91.9167 99.3061 91.4792 99.3061ZM91.9814 97.8295C92.3625 97.8295 92.6873 97.7268 92.9558 97.5213C93.2243 97.3125 93.4281 97.0225 93.5673 96.6513C93.7065 96.2801 93.7761 95.8475 93.7761 95.3537C93.7761 94.8598 93.7065 94.4306 93.5673 94.0661C93.4314 93.7015 93.2292 93.4181 92.9608 93.2159C92.6956 93.0137 92.3691 92.9126 91.9814 92.9126C91.5803 92.9126 91.2456 93.017 90.9771 93.2259C90.7086 93.4347 90.5065 93.723 90.3706 94.0909C90.2347 94.4588 90.1667 94.8797 90.1667 95.3537C90.1667 95.831 90.2347 96.2569 90.3706 96.6314C90.5098 97.0026 90.7136 97.2959 90.9821 97.5114C91.2538 97.7235 91.5869 97.8295 91.9814 97.8295Z" fill="#2B4D02"/>
<path d="M65.2266 61.6934C65.2266 62.6829 65.0472 63.6292 64.6885 64.5322C64.3298 65.4229 63.8535 66.264 63.2598 67.0557C62.6784 67.835 62.0104 68.5586 61.2559 69.2266C60.5137 69.8822 59.7591 70.4759 58.9922 71.0078H64.8555L64.4102 78.7266L47.043 78.1328V71.3789C47.6986 71.1562 48.3851 70.8903 49.1025 70.5811C49.8324 70.2594 50.5436 69.8945 51.2363 69.4863C51.9414 69.0781 52.6032 68.6204 53.2217 68.1133C53.8525 67.6061 54.403 67.0557 54.873 66.4619C55.3555 65.8558 55.7327 65.2002 56.0049 64.4951C56.2894 63.79 56.4316 63.0293 56.4316 62.2129C56.4316 61.7428 56.3451 61.3285 56.1719 60.9697C56.0111 60.611 55.7822 60.3141 55.4854 60.0791C55.1885 59.8317 54.8421 59.6523 54.4463 59.541C54.0628 59.4173 53.6484 59.3555 53.2031 59.3555C52.832 59.3555 52.4548 59.3988 52.0713 59.4854C51.6878 59.5596 51.3105 59.6709 50.9395 59.8193C50.5684 59.9678 50.2158 60.1533 49.8818 60.376C49.5602 60.5863 49.2695 60.8275 49.0098 61.0996L47.377 53.8262C47.8346 53.3685 48.3604 52.985 48.9541 52.6758C49.5479 52.3665 50.1725 52.1191 50.8281 51.9336C51.4837 51.7357 52.1517 51.5934 52.832 51.5068C53.5124 51.4202 54.1803 51.377 54.8359 51.377C56.2956 51.377 57.6562 51.6429 58.918 52.1748C60.1797 52.6943 61.2744 53.418 62.2021 54.3457C63.1423 55.2611 63.8783 56.3496 64.4102 57.6113C64.9544 58.873 65.2266 60.2337 65.2266 61.6934ZM89.4033 65.8867C89.4033 66.9753 89.2796 68.0576 89.0322 69.1338C88.7972 70.21 88.4508 71.2428 87.9932 72.2324C87.5355 73.222 86.9727 74.1436 86.3047 74.9971C85.6491 75.8506 84.8945 76.5928 84.041 77.2236C83.1875 77.8545 82.2474 78.3493 81.2207 78.708C80.2064 79.0667 79.1117 79.2461 77.9365 79.2461C76.749 79.2461 75.6419 79.0667 74.6152 78.708C73.5885 78.3493 72.6484 77.8545 71.7949 77.2236C70.9538 76.5928 70.1992 75.8506 69.5312 74.9971C68.8633 74.1436 68.3005 73.222 67.8428 72.2324C67.3851 71.2428 67.0326 70.21 66.7852 69.1338C66.5501 68.0452 66.4326 66.9629 66.4326 65.8867C66.4326 64.8105 66.5501 63.7282 66.7852 62.6396C67.0326 61.5511 67.3851 60.512 67.8428 59.5225C68.3005 58.5329 68.8633 57.6113 69.5312 56.7578C70.1992 55.8919 70.9538 55.1436 71.7949 54.5127C72.6484 53.8818 73.5885 53.387 74.6152 53.0283C75.6543 52.6696 76.7614 52.4902 77.9365 52.4902C79.1117 52.4902 80.2064 52.6696 81.2207 53.0283C82.2474 53.387 83.1875 53.8818 84.041 54.5127C84.8945 55.1436 85.6491 55.8919 86.3047 56.7578C86.9727 57.6113 87.5355 58.5329 87.9932 59.5225C88.4508 60.512 88.7972 61.5511 89.0322 62.6396C89.2796 63.7282 89.4033 64.8105 89.4033 65.8867ZM81.5732 66.4434C81.5732 65.8991 81.499 65.293 81.3506 64.625C81.2021 63.957 80.9733 63.3324 80.6641 62.751C80.3548 62.1696 79.959 61.681 79.4766 61.2852C78.9941 60.8893 78.4189 60.6914 77.751 60.6914C77.0706 60.6914 76.4893 60.8893 76.0068 61.2852C75.5244 61.681 75.1224 62.1696 74.8008 62.751C74.4915 63.3324 74.2627 63.957 74.1143 64.625C73.9658 65.293 73.8916 65.8991 73.8916 66.4434C73.8916 66.9876 73.9658 67.5938 74.1143 68.2617C74.2627 68.9297 74.4915 69.5544 74.8008 70.1357C75.1224 70.7171 75.5244 71.2057 76.0068 71.6016C76.4893 71.9974 77.0706 72.1953 77.751 72.1953C78.4189 72.1953 78.9941 71.9974 79.4766 71.6016C79.959 71.2057 80.3548 70.7171 80.6641 70.1357C80.9733 69.5544 81.2021 68.9297 81.3506 68.2617C81.499 67.5938 81.5732 66.9876 81.5732 66.4434ZM116.716 71.2676C116.716 71.9232 116.58 72.5726 116.308 73.2158C116.035 73.8467 115.64 74.4157 115.12 74.9229C114.601 75.4176 113.97 75.8258 113.228 76.1475C112.498 76.4567 111.669 76.6113 110.741 76.6113C109.826 76.6113 108.997 76.4567 108.255 76.1475C107.525 75.8258 106.9 75.4176 106.381 74.9229C105.874 74.4157 105.484 73.8467 105.212 73.2158C104.94 72.5726 104.804 71.9232 104.804 71.2676C104.804 70.6243 104.94 69.9811 105.212 69.3379C105.484 68.6947 105.874 68.1257 106.381 67.6309C106.9 67.1237 107.525 66.7155 108.255 66.4062C108.997 66.0846 109.826 65.9238 110.741 65.9238C111.669 65.9238 112.498 66.0846 113.228 66.4062C113.97 66.7155 114.601 67.1237 115.12 67.6309C115.64 68.1257 116.035 68.6947 116.308 69.3379C116.58 69.9811 116.716 70.6243 116.716 71.2676ZM112.522 71.2305C112.522 71.0326 112.485 70.8223 112.411 70.5996C112.349 70.3646 112.244 70.1481 112.096 69.9502C111.947 69.7399 111.756 69.5667 111.521 69.4307C111.298 69.2946 111.026 69.2266 110.704 69.2266C110.382 69.2266 110.104 69.2946 109.869 69.4307C109.634 69.5667 109.442 69.7399 109.294 69.9502C109.146 70.1481 109.034 70.3646 108.96 70.5996C108.886 70.8223 108.849 71.0326 108.849 71.2305C108.849 71.4284 108.886 71.6449 108.96 71.8799C109.034 72.1025 109.146 72.319 109.294 72.5293C109.442 72.7272 109.634 72.8942 109.869 73.0303C110.104 73.1663 110.382 73.2344 110.704 73.2344C111.026 73.2344 111.298 73.1663 111.521 73.0303C111.756 72.8942 111.947 72.7272 112.096 72.5293C112.244 72.319 112.349 72.1025 112.411 71.8799C112.485 71.6449 112.522 71.4284 112.522 71.2305ZM102.614 62.0645C102.614 62.7201 102.478 63.3695 102.206 64.0127C101.934 64.6436 101.538 65.2126 101.019 65.7197C100.499 66.2145 99.8682 66.6227 99.126 66.9443C98.3962 67.2536 97.5674 67.4082 96.6396 67.4082C95.7243 67.4082 94.8955 67.2536 94.1533 66.9443C93.4235 66.6227 92.7988 66.2145 92.2793 65.7197C91.7721 65.2126 91.3825 64.6436 91.1104 64.0127C90.8382 63.3695 90.7021 62.7201 90.7021 62.0645C90.7021 61.4212 90.8382 60.778 91.1104 60.1348C91.3825 59.4915 91.7721 58.9225 92.2793 58.4277C92.7988 57.9206 93.4235 57.5124 94.1533 57.2031C94.8955 56.8815 95.7243 56.7207 96.6396 56.7207C97.5674 56.7207 98.3962 56.8815 99.126 57.2031C99.8682 57.5124 100.499 57.9206 101.019 58.4277C101.538 58.9225 101.934 59.4915 102.206 60.1348C102.478 60.778 102.614 61.4212 102.614 62.0645ZM98.4209 62.0273C98.4209 61.8294 98.3838 61.6191 98.3096 61.3965C98.2477 61.1615 98.1426 60.945 97.9941 60.7471C97.8457 60.5368 97.654 60.3636 97.4189 60.2275C97.1963 60.0915 96.9242 60.0234 96.6025 60.0234C96.2809 60.0234 96.0026 60.0915 95.7676 60.2275C95.5326 60.3636 95.3408 60.5368 95.1924 60.7471C95.0439 60.945 94.9326 61.1615 94.8584 61.3965C94.7842 61.6191 94.7471 61.8294 94.7471 62.0273C94.7471 62.2253 94.7842 62.4417 94.8584 62.6768C94.9326 62.8994 95.0439 63.1159 95.1924 63.3262C95.3408 63.5241 95.5326 63.6911 95.7676 63.8271C96.0026 63.9632 96.2809 64.0312 96.6025 64.0312C96.9242 64.0312 97.1963 63.9632 97.4189 63.8271C97.654 63.6911 97.8457 63.5241 97.9941 63.3262C98.1426 63.1159 98.2477 62.8994 98.3096 62.6768C98.3838 62.4417 98.4209 62.2253 98.4209 62.0273ZM110.036 56.0898C108.453 59.541 106.981 63.054 105.62 66.6289C104.272 70.1914 103.01 73.791 101.835 77.4277L97.9756 76.0176C98.7054 74.224 99.429 72.4365 100.146 70.6553C100.876 68.8617 101.618 67.0804 102.373 65.3115C103.14 63.5426 103.932 61.7923 104.748 60.0605C105.564 58.3164 106.437 56.597 107.364 54.9023L110.036 56.0898Z" fill="#2B4D02"/>
</svg>
